<svg xmlns="http://www.w3.org/2000/svg" viewBox="0 0 1540 800" enable-background="new 0 0 1540 800"><g fill="#fff"><path d="M604 781c-7.2-1.3-14.4-2.2-21.5-4-39.6-9.8-69.6-43.1-75.6-83.5-7.1-47.8 18.9-93.2 63.3-110.8 52.9-20.9 113.5 7 132.3 60.7 20.1 57.8-12.7 119-72 133.9-6.7 1.7-13.7 2.5-20.5 3.7h-6zm2.8-30.2c39.7 0 72.2-32.6 72.5-72.7.3-39.5-32.8-73.1-72.2-73.1-39.3 0-72.2 33.2-72.2 73.1.1 39.7 32.7 72.7 71.9 72.7zM40 773c2.4-5.2 5-10.3 7.1-15.6 23.1-58.2 46.1-116.4 69-174.7 2-5 4.3-7.2 10.1-7.1 17.7.5 13.3-2.4 19.6 13.4 24.1 60.5 48 121 71.9 181.5 2.6 6.6 2.4 6.9-4.7 7-5.7 0-11.3-.3-17 .1-4.9.3-7.5-1.4-9.3-6.2-6-15.7-12.7-31.1-18.8-46.8-1.7-4.4-4.1-6.1-8.9-6-19 .2-38 .3-57 0-5.5-.1-8.4 1.6-10.5 6.8-6.1 15.8-12.8 31.5-19 47.2-1.4 3.4-3.3 5-7 4.8-8.5-.4-17-.4-25.4-.6-.1-1.1-.1-2.5-.1-3.8zm90.4-149.1c-1.3 2.3-2 3.2-2.4 4.3-7 19.6-13.9 39.2-21 58.7-1.4 3.8 0 4.7 3.6 4.7 12.5-.1 25 0 37.4 0 5.5 0 5.9-.6 4.2-5.7l-17.5-50.4c-1.2-3.5-2.6-6.9-4.3-11.6zM1505 732c-.4.5-1 1-1.2 1.5-6.1 24.7-24.1 36.8-46.9 42.8-23.1 6.1-45.2 3-65.7-9.7-11.7-7.2-19.8-17.2-22.7-30.9-.4-2-.3-4.1-.5-6.2l1.2-.6c.8.9 2.1 1.8 2.3 2.8 5.6 25.4 24.1 36.7 47.2 41.7 26.1 5.6 50.1.1 69.5-19.2 14.8-14.7 16-37.6 6-53.4-6.8-10.7-17.7-15.3-29.2-17.4-14.5-2.7-29.3-3.4-43.9-5.7-14.4-2.3-29.2-4.4-40.3-15.5-13.6-13.5-16-39.5-5.3-57.1 7.1-11.8 17.9-19.3 30.6-23.7 21.9-7.6 43.8-7.5 65.1 2.7 13.6 6.6 23 16.9 26.6 31.9.4 1.7.2 3.4.3 5.2l-1.7.4c-.7-1.2-1.6-2.2-2-3.5-4.6-17.1-16.1-27.9-32.4-33.2-26.3-8.6-51.4-6.4-73.6 11.5-18.2 14.7-21.1 43.8-5.8 61.5 4.2 4.9 10.6 9 16.8 11 10.2 3.2 21 4.5 31.7 6.3 14 2.4 28.3 3.8 42.2 6.8 16.5 3.6 26.6 14.3 30.2 31 .2 1.1.9 2 1.4 3 .1 5.3.1 10.7.1 16zM1425.5 28.1h74.9v531.4c-1.6.1-3.4.2-5.1.2-16.3 0-32.7-.1-49 .1-4.1.1-6.6-1.3-9-4.7-49.3-71.5-98.7-142.8-148.1-214.2l-100.7-145.5c-.8-1.2-1.8-2.3-3.7-4.6-.3 3.2-.6 5-.6 6.8l-.1 288c0 22.8-.2 45.7.1 68.5 0 4.9-1.7 5.8-6.1 5.7-21.8-.2-43.7-.2-65.5 0-4.9.1-5.7-1.7-5.7-6 .1-102.2 0-204.3 0-306.5 0-71.2.1-142.3.2-213.5v-5.6c1.8-.2 3.1-.4 4.3-.4 17.5 0 35-.1 52.5.1 2.1 0 5 1.3 6.1 2.9 22.3 31.8 44.4 63.6 66.4 95.6 53.7 78.3 107.3 156.6 161 235 7.9 11.5 15.9 23 23.9 34.5.9 1.3 2 2.5 4.1 3.4.1-123.5.1-247.1.1-371.2zM428.6 21.5c40.1 1.1 81.7 11.3 117.9 38.4 23.7 17.7 41 40.4 50.4 68.6 3.3 10.1 5.5 20.5 8.4 30.7 1.1 3.8-.6 4.9-3.9 5-9.1.3-18.3.6-27.4.8-13.3.4-26.6.6-39.9 1.1-4.8.2-7-.8-8.6-6.2-5.2-17.6-16.4-31-31.7-40.9-18.4-11.9-38.6-17.9-60.5-19.5-26.9-2-52.4 2.2-76.6 13.7-18.7 8.9-34.8 21.3-41.6 41.6-11.9 35.3-2.4 70.5 39.1 85.3 21.4 7.6 43.6 10.3 65.9 12.5 39.7 4 78.8 10.4 115.9 25.8 14.4 6 28.2 13.3 39.6 24 22.8 21.3 37.9 46.7 41.8 78.4 3.7 29.9.5 58.5-13 85.5-13.5 27.1-34.1 47.9-59.7 63.8-33.3 20.8-69.7 31.6-108.9 34.1-46.2 2.9-89.3-7.2-129.3-30.4-32.1-18.6-56.5-44.2-69.6-79.6-5.2-14-7.9-28.5-8-43.5 0-2.2-.3-4.2 3.1-4.3 23-.4 45.9-.8 68.9-1.4 3.6-.1 5.7.8 5.9 4.8 1.6 25.5 15.5 43.3 36.1 56.7 19.7 12.8 41.5 19.3 64.8 21.5 33.6 3.2 65-3.5 93.7-21.2 20-12.3 35.1-29.1 38.8-53.2 3.4-21.8.2-42.4-19.1-56.4-7.4-5.4-16.4-8.9-25.1-12-18.6-6.7-38.1-9-57.6-11.1-33.9-3.7-67.9-6.7-100.7-16.5-27.8-8.3-53.4-20.8-73.4-42.6-15.4-16.8-24.7-36.8-28.7-59-2.2-12-3.7-24.4-3.6-36.6.4-40.2 15.1-74.7 43.8-102.8 24.8-24.2 55-38.9 88.3-47.5 19.6-5 39.7-7.4 64.5-7.6zM976.9 28.2c1.9-.1 3.2-.3 4.5-.3 22.7 0 45.3.1 68-.1 4.1 0 5 1.3 5 5.1-.2 123.7.3 247.3-.5 371-.3 52.9-25.2 93.6-68.4 123.3-31.3 21.5-66.1 33.1-103.8 37-49 5-95.2-3.8-138.2-27.7-35.6-19.8-62-47.9-75.3-87.2-4.9-14.5-7.5-29.4-7.5-44.6-.1-123.7-.1-247.3-.1-371v-5.4h77.3v6.2c0 119.8.3 239.7-.2 359.5-.2 37.6 17.6 62.7 49.9 79.1 17.4 8.9 36.1 13.4 55.5 15.1 33.7 3 65.4-3.2 94.2-21.2 26.3-16.4 39.7-40.4 39.7-71.7-.1-120 0-240 0-360-.1-2.2-.1-4.4-.1-7.1zM367.8 719.8h.5c3.8-.1 8.4-1.5 11.3.1 2.5 1.4 3.2 6.3 4.6 9.6 2.9 6.5 7.9 11.2 14.1 14.4 19.5 9.8 38.8 9.2 57.5-2.3 5.8-3.6 10-8.7 12.3-15.3 4.3-12-.6-24-12.6-28-8.7-2.9-18.1-4.1-27.2-5.8-12.1-2.3-24.5-3.4-36.3-6.6-19.4-5.3-33-17.4-36.7-38-4-21.9 2-40.6 19.6-54.9 27.7-22.4 73.5-22.3 99.8.2 9.7 8.3 15.4 19.1 18 31.5.7 3.2-.7 4.3-3.6 4.4-6.8.3-13.7.7-20.5.6-1.6 0-4.1-1.3-4.7-2.6-5.5-13.4-16.3-19.3-29.7-21.4-14.2-2.3-27.6-.1-39.6 8.1-8.8 6-12.3 14.7-11.2 25.1 1.1 10.2 7.5 16.3 16.8 18.9 8 2.2 16.3 3.2 24.4 4.8 13.3 2.7 27.1 4.2 39.9 8.6 42.6 14.7 41.5 62.6 18.1 85.7-29.5 28.9-84.3 29.6-113.8.7-9.3-9-14.9-19.9-15.8-33-.3-3.8 1-5.1 4.7-4.9 3.4.3 6.8.2 10.1.1zM224.5 677.7c0-31 .1-62-.1-93 0-5.2 1.7-6.8 6.6-6.5 5.8.3 11.7.3 17.5.1 3.9-.1 5.2 1.4 5.2 5.3-.2 52.3-.2 104.6-.3 156.9 0 8.2 0 8.2 7.9 8.2 26.5 0 53 .1 79.5-.1 4.7 0 6.6 1.2 6.3 6.1-.4 5.6-.4 11.3 0 17 .3 4.6-1.4 6.1-5.9 6-21.5-.2-43-.1-64.5-.1-15.3 0-30.7-.1-46 .1-4.5 0-6.1-1.4-6.1-6.1.2-31.3.1-62.6.1-94-.1.1-.2.1-.2.1zM873 697.5c1.8 1.1 3.9 1.9 5.5 3.3 20.8 18.7 41.6 37.5 62.3 56.3.9.8 2 1.5 2.5 2.4.5.9.3 2.1.4 3.1-1.1 0-2.4.5-3.2 0-2-1.4-3.9-3.2-5.7-4.8-21.4-19.3-42.8-38.6-64.1-58-2.2-2-3.6-4.9-5.4-7.4 2.9-.6 5.8-1.8 8.7-1.8 12.2-.3 24.4.2 36.5-.6 29.8-2.1 46.5-24.5 48.4-47.9 2.5-31.1-17.3-54-43.9-58-3.9-.6-7.9-.9-11.9-.9-19.2-.1-38.3.1-57.5-.2-4.9-.1-6.1 1.6-6.1 6.3.1 60.3.1 120.7 0 181 0 2.2-1.5 4.5-2.2 6.7-.7-2.1-1.9-4.3-1.9-6.4-.1-61.7-.2-123.3-.2-185 0-7.2 0-7.3 7.1-7.2 23 .1 46-.3 69 .6 28.6 1.1 51 24.7 52.2 53.4.9 23.1-7 41.8-27.1 54.3-9.9 6.2-21.1 8-32.6 8.1-8 .1-16 0-24 0-1.7 0-3.4.3-5.1.4-.7.8-1.2 1.6-1.7 2.3zM1084.2 728.8c.6.8 1.6 1.6 1.7 2.5 3 17.1 13.5 28.4 28.5 35.5 28.9 13.7 57 11.7 82.9-7.5 19.2-14.2 23.5-41.6 10.2-60.1-7-9.7-17.6-13.8-28.6-15.8-14.8-2.6-29.9-3.7-44.9-5.7-10.6-1.4-21-3.6-30.5-8.8-7.7-4.3-13.4-10.5-16.5-18.8-8.3-22.7-3.3-46.1 17.5-60.8 25.6-18.1 67.1-17.9 91.2.8 8.2 6.3 13.7 14.5 16.6 24.3.4 1.4.9 2.9.8 4.4-.1 1-1.1 2-1.7 3-.8-.7-2-1.2-2.3-2.1-.9-2.1-1.3-4.5-2.1-6.7-4.2-11.4-11.9-19.8-22.8-24.8-26.3-12.1-52.2-11.2-76.6 4.7-18.7 12.1-25.1 35.2-16.2 55.6 5.5 12.8 16.5 19.2 29.3 21.8 14.3 2.9 28.9 4 43.3 6.6 10.9 2 22 4 32.2 8 15.6 6 21.5 19.4 22.6 35.3 1.4 21.4-8.5 36.7-26.4 47.4-28.1 16.9-65.9 15-91.3-4.3-8.9-6.8-15-15.5-17.8-26.4-.6-2.4-.5-5.1-.7-7.6.5-.1 1-.3 1.6-.5zM1350.8 581.8c-1.8.2-3.7.7-5.5.7h-92.5c-6.7 0-6.7.1-6.7 6.7v80.5c0 6.4 0 6.5 6.3 6.5h90.5c2 0 3.9.4 5.9.7l.1 1.9c-1.9.3-3.8.8-5.7.8h-90.5c-6.1 0-6.7.5-6.7 6.5 0 27.2.1 54.3-.1 81.5 0 4.8 1.6 5.9 6.1 5.9 31.3-.2 62.7-.1 94 0 1.9 0 3.7.6 5.5.9l-.1 1.9c-1.7.2-3.3.7-5 .7-33 0-66 0-99 .1-4.3 0-5.7-1-5.7-5.5.2-62.3.2-124.6.1-186.9 0-4.4 1.4-5.8 5.8-5.7 32.8.1 65.7.1 98.5.1 1.6 0 3.2.5 4.8.8-.1.5-.1 1.2-.1 1.9zM1066.5 776.1h-86.7c-.1-.6-.2-1.1-.2-1.7 1.9-.4 3.7-1 5.6-1 10.2-.1 20.3-.2 30.5 0 4.4.1 6.1-1.8 6.1-5.9-.3-59.2-.6-118.5-1-177.7 0-7.4 0-7.4-7.4-7.4-9.8 0-19.7.1-29.5-.1-1.7 0-3.3-.7-6.1-1.4 5.8-3.1 86.1-2.6 89.5.5-2.2.4-3.8.9-5.5.9-10.2.1-20.3.2-30.5-.1-4.8-.1-6.3 1.4-6.3 6.2.1 49.6 0 99.3-.1 148.9 0 10 .3 19.9 0 29.9-.1 4.5 1.1 6.2 5.9 6 10.3-.3 20.7-.1 31-.1 1.6 0 3.3.5 4.9.8-.1.9-.1 1.6-.2 2.2zM112.7 476.5c.1 1.5.3 3.1.3 4.6 0 8.8.1 17.7 0 26.5-.1 3.4 1.1 4.8 4.6 4.7 12.8-.1 25.6-.1 38.5 0 3.6 0 4.6-1.5 4.5-4.8-.1-8.7-.1-17.3 0-26 0-1.7.3-3.3.4-5 .5 0 .9 0 1.4.1v74.6l-1.2.2c-.2-1.6-.6-3.2-.6-4.8-.1-9.2-.1-18.3 0-27.5.1-3.7-1.3-5.1-5-5-12.5.1-25 .1-37.5 0-3.8 0-5.3 1.2-5.2 5.2.2 9.2.1 18.3.1 27.5 0 1.6-.2 3.1-.4 5.3-2.6-3.3-3-71 .1-75.6zM214.7 476.6c-1.5.1-3 .3-4.5.3-10.2 0-20.3.1-30.5 0-3.5-.1-4.8 1.2-4.7 4.7.1 8.8.2 17.7 0 26.5-.1 3.6 1.6 4.6 4.9 4.5 9.5-.1 19 0 28.5 0 1.7 0 3.4.2 5.1.3v1.4c-1.3.2-2.6.4-4 .4-9.8.1-19.7.2-29.5 0-3.6 0-5.1 1.3-5 4.9.1 8.7.1 17.3 0 26-.1 3.7 1.3 5.1 5 5 9.7-.1 19.3 0 29 0 1.6 0 3.2 0 5 1.2-1 .2-1.9.7-2.9.7-11 .1-22-.1-33 .1-3.8.1-5.2-1.1-5.2-5.1.2-22.5.1-45 0-67.4 0-3.1.5-5.2 4.3-5.1l35.5.1c.7 0 1.4.3 2.1.5-.1.3-.1.7-.1 1zM76.1 550.9c-.1-1.5-.3-3.1-.3-4.6v-58.4c0-13.2.9-10.8-10.7-11-5.2-.1-10.4 0-16.8 0 4.2-3.3 51.3-3.5 54.9 0-3.5 0-7-.1-10.5 0-4.8.2-11.3-1.2-13.8 1.3s-1.3 9-1.3 13.8l-.1 53.9c0 1.7-.2 3.4-.3 5-.2.1-.6.1-1.1 0z"/></g></svg>