<svg xmlns="http://www.w3.org/2000/svg" viewBox="0 0 526.2 346.7" enable-background="new 0 0 526.2 346.7"><g><path fill="#414649" d="M413.4 37.3c.5-1 1.6-1.3 2.5-1.7-.1 4.4-3.8 7.8-3.6 12.2-.1 1.5-.3 3-.6 4.5 1.9-.9 2.4-3.2 4.2-4.4l-.2-1c1.4-1.9.9-5 3.2-6.1 0 2.8-.6 5.5-.9 8.2-.1 1.3-1 2.3-1.6 3.3l-.4-2c-.3.4-.6.7-.8 1.1.8.8 2.6 1.4 1.6 2.8 1.3 1.1 2.6 2.4 2.9 4.2.1 1 1.2.9 1.9 1.2-.7-1.1-1.3-2.2-1.9-3.4 1.5.5 2.7 1.7 3.5 3 1.7 2.6 3.2 5.4 4.2 8.4-1.1-.6-2.2-1.3-3.4-2 .9 1.8 1.7 3.7 2.1 5.7-1-.6-1.9-1.3-2.7-2.1.7 1.2 1.3 2.4 1.9 3.6.6-.4 1.2-.7 1.9-1.1.1 1.2.3 2.5-1.2 2.6 2 5.3 3 11 5.5 16.1 1.1 3 2.9 5.7 4.6 8.4 1.6 2.4 2.6 5.2 4.3 7.5 1.5 2.2 2.1 4.8 2.1 7.4-1.7-1.7-1.8-4.4-3.2-6.3-.8-.8-2-1.3-3-1.8.4-.5.7-1 1.1-1.4l-.9-.9c-1.6-5.1-5.8-9-7.1-14.3-.5-2.5-2.5-4.2-3.5-6.5-.8-1.8-1.4-3.7-2.2-5.6l-.3 2.4c-2.3-.1-4.7-.5-7 .2-.8.2-1.7.5-2.5.1l2.2-1.5c.6-.4 1.2-.9 1.7-1.4-1.4.1-2.9.3-4.3.6-.3.4-.2 2.2-1 1.5-.7-.5-1.3-1.1-1.9-1.7.9 5.2 2.8 10.4 6.6 14.2.8.7 1 1.6.3 2.4l.5.4c.6-1.5 1.2-3.1 1.7-4.7 1.5 2.8-.2 5.8-.8 8.6-.5.3-1.1.7-1.6 1.1l.4 1 1.5-1.1c-.2.8-.4 1.6-.5 2.4.6-.2 1.2-.4 1.8-.5l-.7 2.7 1.8-1.4v3.3c.5-.8 1-1.5 1.4-2.3l.9-.5-1.1 3c.8-.4 1.7-.8 2.5-1.3-.4.8-.8 1.5-1.1 2.3 1.2 1.9 2.5 3.8 3.3 5.9-.5.6-1 1.2-1.5 1.7 2 1 4.1 2.2 5.5 4.1l-1.8.9.6 1.6c.8-.5 1.6-1.1 2.4-1.7l.1 2.9-.8.7c.6.3 1.1.8 1.5 1.4.7-.4 1.3-.8 2-1.1l-.5 2.6.9-2.4 2.1-1.9v-3.2c-.8-.9-1.6-1.8-2.5-2.6.6-2.3 2.4-4 3.9-5.7l1.6 3.7c1.2.3 2.5.7 2.7 2.1-1.7-.1-3.3-.5-4.7-1.4l-1.1 1.6 1.8 1.3c-.3.4-.9 1.2-1.1 1.6.9.6 1.9.9 2.9 1.1-.3-1.4-.5-2.8-.6-4.3 2.6.3 2.8 3.2 1.9 5.1-1.4.7-3.1.9-4.2 2.2-1.1 1.1-1.6 2.7-2.6 4-2.2.9-4.6.5-6.9.1-.2.3-.6.8-.9 1-1.6.1-3.1-.4-4.4-1.4-1-.3-2.4-.2-3-1.3-1.1-1.9 0-4.3-1-6.1-1.2-1.8-2.6-3.5-4.5-4.4-6.2-3.2-10.2-9.2-15.7-13.2-2.2-1.7-5.1-2.3-6.9-4.4-1-.9-2.1-2.8-3.8-1.9-1.5.3-1.1 2.1-1.3 3.2v-.2c-.1-1.9 0-3.8-.7-5.6-1 0-1.9.2-2.8.2.2 1.5.5 2.9.6 4.4-.9 1-1.8 2-2.5 3.1-2 3.1-4.6 5.8-6.2 9.1-1.3 2.7-3.4 5.1-4.5 7.9-2.9 6.9-5.9 13.8-10.3 19.8-4.7 6.2-8.6 13.8-8.2 21.8-1.4-2-2.8-3.9-4.1-5.8-.7.5-1.4.9-2 1.4l-1.2-2.3 1.5-1.2-3.6-4.4 2.3.6c-.3-2.4-.1-5.1-1.4-7.3-.8-1.3-1.5-2.7-1.7-4.2.7.5 1.2 1.1 1.7 1.8.2-.2.7-.5 1-.6.7 1.3 1 2.8 1.1 4.3.7 2.1 1.8 4.1 2.6 6.2l1.2-2.4c-.7-2-1.3-4.1-1.7-6.2 1 .5 2 1 3 1.6-.4-2-.7-4-.8-6 .9.5 1.1 1.5 1.4 2.4-.3-2-.3-4.1.6-5.9 1.3-2.1-.3-4.3-.6-6.5 1.7.7 1.8 2.7 2.4 4.2-.1-2.1-.5-4.1-1.1-6.1l1.9.7c0 1 .1 2 .1 3.1.5-.3 1.3-.4 1.7-.9 0-1.3-.5-2.6.1-3.8.2.4.6 1.3.7 1.7 4.2-4.9 4.4-11.8 7.5-17.3-1.8-1-.5-2.8 0-4.2 1.4-2.8 2-5.9 3.3-8.8.2.1.7.3 1 .3l1.1-3.2-.8-1.3c.3-.1 1-.3 1.4-.4.4-1 .8-2 1.2-3.1.8.2 1.6.4 2.4.5-.2-1.2-.4-2.4-.7-3.6 1.9-.2 3.1-1.6 3.6-3.3l1.5 2.7c-2.1 2.2-3.3 5.1-5.2 7.4-1.4 1.9-2.4 3.9-3.3 5.9-.9 2-2.9 3.3-3.4 5.4-1.2 5.1-2.2 10.2-3.6 15.3-.9 3.4-3.5 6.2-4.1 9.7-.3 1.6-.8 3.4-2 4.6-1.8 1.7-2.4 4.2-2.8 6.6-.2 1.6.8 2.9 1.5 4.3-.3-2.1-.5-4.3-.3-6.5l1.5.7.3-3.4c.5.4 1 .8 1.6 1.2v2c.4-1.7.9-3.5 2-4.8.1 1 .3 2 .4 2.9 1.1-3.1 2-6.4 3.6-9.3-.2-2.4.5-4.8 1.3-7.1.2.4.7 1.2 1 1.6-.1-2-.2-4 .2-6 1.8-.4 1.4 2.5 1.7 3.8.2-1.8.7-3.6.2-5.4-.4-1.3-.6-2.7-.4-4.1.4.7.9 1.5 1.3 2.3.8-2.5 1.3-5 1.3-7.6l2.8-2.1c.2-2.2.4-4.4.7-6.6l1.2 3.4c0-1.9.2-3.8.5-5.7l1.2 3.6c.9 1.4 1.2 3.1 1.3 4.8h.3c-.1-2.3-.1-4.5 0-6.8.3.2.9.7 1.2 1-.6-1.6-.3-3.3.5-4.9l1.4 3.7 2.7-1.1c-.7-2.3-1.7-4.5-2.6-6.8 1.1-1.9 1-4.1.8-6.2l-2.7 2.1c-.7-1.1-1.4-2.2-2-3.3 1.5-1.6 2.6-3.6 4.5-4.8-.2 1.2-.5 2.4-.8 3.6 1.2-2 2.2-4.2 3.7-6.1l5.1-4.9c.1.4.2 1.2.2 1.5 1.2-2 1-4.2.6-6.4l-1.8-1.2c-.5.8-1 1.6-1.5 2.3l-.9-1.6c-.5 1-1.1 2-2.3 2 .1-1.8 1.7-2.9 2.9-4.1-2.1-.6-3.5 1.6-4.6 3.1-.4 1.1-1.7.9-2.6 1 0-.3 0-.8.1-1 2.3-.5 3-2.8 4.1-4.6 2.5-.8 5.4-1.2 8.1-1l1.2-1.8 2.6.9c-.5-.7-.8-1.8-1.9-1.6-2.8.2-5.9 0-8.4 1.5-2.9.2-5.8.9-8.2 2.4-1.9 1.2-4.1 1.7-5.9 2.9-1.7 1.1-3.5 2.2-5.3 3.1-.4-.3-.8-.6-1.1-.9 3.9-2.7 8.1-5 12.5-6.9 3.8-2.1 8-3.5 12.4-3.6 1.7-.1 3.5 0 5.2-.2 1.5-.7 2.7-1.9 4.3-2.4 1.9-.7 4-.8 5.5-2.2 2.3-2.3 4.4-5 6-8z"/><path fill="#171617" d="M405.6 49.4c1.7-2 3.4-4 5-6.1-.3 2.3 0 4.8-.9 7-.8 2.1-2 4.2-3.6 5.9-1.7.7-3.9.5-5.1 2.1-1 1.2-2.5 1.7-4.1 1.9 0 .3 0 .9-.1 1.2-.3-1.2-.6-2.5-.8-3.7.6.6 1.2 1.2 1.8 1.7.2-.6.4-1.2.7-1.8.7.1 1.4.3 2.2.4-.1-.5-.1-1-.1-1.6 1.2-1 1.3-2.3.6-3.6.9-1.2 1.8-2.3 2.8-3.4h1.6zM403.9 58.8c2.3-.7 4-2.5 5.8-4-.5 1.8-1.2 3.6-2.8 4.6l-3-.6zM413.4 56.3c.9 1.1 1.7 2.2 2.5 3.3-.2.3-.5.9-.6 1.2 2.4 3.6 4.4 7.4 6.7 11 1.1 1.5 1.2 3.4 1.5 5.2-.4.1-1.1.3-1.4.4-.1-.5-.2-1.1-.2-1.6-.3.6-.6 1.2-.9 1.9l-.2-4c-.4 0-.8-.1-1.3-.1-.4-.4-.7-.9-1-1.3-2.5-.1-5.1-.7-7.6-.1.4 1.1 1.1 2.2 1.6 3.3-1.4-.2-2.5-1-3.3-2.2 1.2-1.2 2.3-2.6 3.2-4.1l-3.2-.6-.9-1.9c-1.4-.5-2.7-1.4-3.8-2.5.5-1.1.9-2.3 2-3 1.7-1.1 2.6-3 4-4.4 2.1-.1 2.9 2.6 4.8 3.2-.6-1.4-1.2-2.6-1.9-3.7z"/><path fill="#414649" d="M380.1 61.3c0-1.2-.1-2.5 1.2-3.1-.1 1.2.2 2.7-1.2 3.1zM411.3 58.1c1.3 2 2.9 3.8 4.5 5.6.8 1 0 2.3-.1 3.4-1.6-.6-3.5-1-4.2-2.7-.9-1.8-2.2-3.6-2.5-5.6.8.5 1.6 1.2 2.3 1.9v-2.6z"/><path fill="#EDEDED" d="M366 59.8l1.2.8c.4.3.8.6 1.1.9.8.6 1.5 1.3 2.2 1.9l-2 2.2c-.7-.7-1.4-1.4-2.1-2l-1.8-1.5.2-.4c.3-.6.7-1.3 1.2-1.9z"/><path fill="#414649" d="M376.7 60.5c1.2.1.4 2.4-.6 1.9-.6-.6-.2-1.7.6-1.9z"/><path fill="#171617" d="M400.7 60.2c1 1.8 1.6 3.8 2.1 5.8 1.2.4 2.8.4 2.9 2 .8 3.2 3 6 3.3 9.4.4 3.8 2.3 7.1 3.3 10.7.4 2.1 2.4 3.1 3.9 4.4l-1.3.8c.7 1 1.4 2.1 2.1 3.2-.8-.4-1.7-.9-2.5-1.2-1.3.7-1.8 2.4-3.3 2.9-1.8.7-3.6 1.2-5.4 1.6 1-.4 2-.7 3.1-1 .7-1.1 1.2-2.2 1.6-3.4-2.1.8-4.1 2.1-6.1 3.3-1.3-.7-1.4-2.4-2.7-3-.6.1-1.2.3-1.8.5.5-1.2 1.9-3.1.1-4-.3 1.7-1.2 3.1-2.3 4.4.4-1.2 2-3.1-.1-3.6 0-.4-.1-.8-.1-1.1.3 1 .8 1.4 1.5.9.5-1.2 0-2.4-.2-3.6-1.4-.7-1.4-2.1-1.4-3.5-.4-.1-1.1-.2-1.5-.2l-.3-3.1-1.5 2-1.2-.3-.2 3 2 1.1 1.2-.8.7 3.5-2 .7c.3.5.7 1 1 1.4.3.8.8 1.4 1.5 1.9-.2.3-.4.6-.7.9-.5-.9-1.1-1.9-1.9-2.6-.2-1.3.1-3.1-1.8-3.2.2 1.5-.8 4.1 1.5 4.2-.7.2-1.4.5-2.1.8l-1.4-3c.5.6 1.1 1.1 1.7 1.6.1-2.3-1.8-4.3-1.1-6.6.6-2.7-.2-5.5.9-8.1 1.6-4.5 4.2-8.6 5.5-13.3-.3-.5-.5-.9-.7-1.4l.5-1.1h1.9c.5-1.1.8-2 1.3-2.9z"/><path fill="#414649" d="M360.7 63.8l4.1-2.1-.2.4 1.8 1.5c-2.3.1-4.3 1.4-6.2 2.7-.2-.3-.5-1-.6-1.4-1.4.2-2.8.4-4.1.9-.5.6-.7 1.4-1.1 2.1.4-.5.8-1 1.2-1.6.9.7 1.4 1.7 1.5 2.8-1.4.9-2.9 1.7-3.9 3l1 2.3-.4 1.2c.4 1 1.2 1.9 1.2 3-.3 1.3-1.1 2.4-1.8 3.5-.5-1.7-.7-3.4-.8-5.1-2.1-3.5-1.3-7.7-.6-11.5-1.4 1.3-2.6 2.9-3.6 4.5l-1.5-.6-1 1.4c-.4.1-1.1.3-1.4.4l-.1.3c-.3 1.8-.9 3.6-1.6 5.3.4 3.6.7 7.2 0 10.8-.9 3.5.3 7.1.1 10.6-2-.5-1.1-3-1.4-4.5h-.5l1.1 9.3c.1 1.3-1.2 2.1-1.8 3.1.2 1.8 1.2 3.4 1.9 5.1-.6.4-1.1.8-1.7 1.1.8 3.7.7 7.5 1.1 11.2l-.7.1c-1.1-4-2.4-8.1-2.3-12.3.1-3.4-.3-6.9.6-10.2.5-2.3.1-4.7.4-7.1.2-1.2-.8-2.1-1.4-3-.8 1.4-.5 2.9-.4 4.4-.5 7-1.3 14.1-.3 21.1-.2 0-.6 0-.8.1-.2-3-1.3-5.8-1.6-8.8.5-3.5.5-7.1.9-10.6.2-2.3.2-4.8-1.1-6.8-.5-1-1.6-1.9-1.2-3.1.5-.7 1.1-1.3 1.6-1.9.7 1.6.9 3.4.8 5.1l.9-1.5 2.3.6 1.1-.4.9-3.9c0-2-.9-4-.5-6 .3-2 1-4 1.6-5.9-.7 1-1.5 1.9-2.3 2.9l.3-2.7c-1.4 1.2-2.8 2.4-4.2 3.7l-.1 3.4c-.3.1-1 .3-1.4.4-.5.8-1 1.5-1.7 2.2.1-1.1.2-2.2.3-3.4-1.4 1.2-1.9 2.9-2 4.7l1.3-.8c-.1 2.8.3 5.7.6 8.5-2.1.2-1.5-1.9-1.6-3.3l-2.6.9c-.1-.4-.4-1.1-.6-1.5.9 2.2.9 4.6.6 6.9-.5-.8-1-1.6-1.8-2-.3-1.6-.1-3.2-.7-4.7-2.3.3-3.6 2.7-6 2.6 1.4-3.7 6-4.2 8.5-6.9 2-1.4 1.5-4.6 3.8-5.7 2.3-1 3.1-3.6 5-5 1.4-1 1.6-2.8 2.5-4.1 2-1.5 4.6-1.8 6.9-2.6 2.6-1.6 5.4-2.8 8.3-3.7 1.8-.2 3.6.3 5.4.6zM372.7 63.3c2.3-.5 0 2.7-.6.8.2-.2.5-.6.6-.8z"/><path fill="#EDEDED" d="M370.7 66.8c.3-.4.9-1.2 1.3-1.6 1.8 2 3.4 4.3 5 6.5l-2.4 1.7c-1.5-2-2.8-4.2-4.6-5.9-1.1-.1-1.1 1.7-2 2-.2-1.2.6-2.1 1.1-3.1.5.2 1.1.3 1.6.4z"/><path fill="#171617" d="M390.5 67.5c1.1-.5 1.6 1.9.5 2-.7-.3-1-1.4-.5-2z"/><path fill="#414649" d="M414.1 67.5c2.2.3 4.4 1.2 5.2 3.5-2-.7-4.4-1.3-5.2-3.5z"/><path fill="#171617" d="M340.4 71.3c.8-.8 1.6-1.5 2.6-2.1l-.6 2.3c-.6-.1-1.5-.2-2-.2z"/><path fill="#414649" d="M361.9 69.3c.8-.6 1.6.8.8 1.3-.8.7-1.6-.8-.8-1.3zM346.5 71.2l.9-.1c.3 1.9.3 3.9-.4 5.7.4 2.1.8 4.2.8 6.4l-1.3-1.5c.1.6.2 1.2.3 1.9l1.3.3c.5.9 1.1 1.8 1.7 2.7-1 .5-2.1.7-3.2.7l.5 5.6c0 1.6 1.4 2.6 1.8 4.1.5 1.9.8 3.9.6 5.9-.5 2.6-1.6 5.1-1.2 7.7.4 2 .7 4 .6 6-1.2-.8-1.4-2.2-1.4-3.5l-1.9-.4-.7-2.1c-.4.1-1.1.2-1.4.3v-3.5l2.5-.2c.1.9.2 1.8.3 2.6.1-.2.3-.5.4-.6-.2-2.4.7-4.9-.3-7.2-.6-8.8-2.8-17.5-2-26.3.6-.4 1.2-.8 1.9-1.2 0-1 .1-2.1.2-3.3zM360.2 71.3c1.4 1.6 1.3 3.9.8 5.8-.7-1.9-1-3.9-.8-5.8zM349.7 81.1c-.8-2.9-2.7-6.3-.5-9.1l.5 5.1c.3.1 1 .3 1.4.4 1.3 4.8.8 9.8 1.2 14.8v11.8l-2-2.8c.7-6.8-.2-13.5-.6-20.2zM362 73.6c.9.1 1.1 1.7.7 2.4-1 0-1.3-1.7-.7-2.4z"/><path fill="#EDEDED" d="M375.8 75.1l2.4-1.3c.5.8 1 1.6 1.4 2.4l2 3.3 1.2.9c.2 1.1.5 2.2.8 3.2.9 2.3 1.9 4.5 2.6 6.8l-2.7 1.1c-.5-1.2-1-2.5-1.4-3.7-.5-1.3-.9-2.5-1.4-3.7.8-.3 1.7-.5 2.1-1.4l-.3-1.6c-1-.2-1.9.6-2.8.9l-1.5-2.7-2.4-4.2z"/><path fill="#414649" d="M398.8 79.1c.1-1.9.6-3.8 1.6-5.5-.4 1.9 0 4.3-1.6 5.5z"/><path fill="#171617" d="M385.1 74.8c1.2 1.1.7 2.9.8 4.4-.5-1.4-.8-2.9-.8-4.4zM386.9 79.3c.1-1.1-.5-2.8.9-3.2-.1 1.1-.4 2.2-.9 3.2zM381.7 79.5l2.7-2.1c.3 2.1.3 4.3-.8 6.2-.3-1.1-.6-2.1-.8-3.2-.3-.3-.7-.6-1.1-.9z"/><path fill="#414649" d="M335.2 82.3c1-1.4 2.4-2.4 3.7-3.6 1.1 2.7.5 5.6 1 8.4.2.8-.1 1.5-.8 1.9-.2-.4-.7-1.1-.9-1.4l-1.8 1.3c.1-2.3-2-4.3-1.2-6.6zM406.4 80.1c1.3-.6.9 2.5-.1 2.4-.6-.7-.4-1.8.1-2.4zM355.4 80.9c.6-.2 2.7-1.5 2.2.1-.1.7-.2 1.5-.4 2.2l-1.8-2.3z"/><path fill="#171617" d="M379.6 82c.9-.3 1.8-1.1 2.8-.9l.3 1.6c-.4.9-1.3 1.1-2.1 1.4l1.4 3.7c-.8 1.5-1.2 3.2-.5 4.9-.3-.2-.9-.7-1.2-1-.1 2.3-.2 4.5 0 6.8h-.3c-.1-1.7-.4-3.3-1.3-4.8l-1.2-3.6c-.3 1.9-.4 3.8-.5 5.7l-1.2-3.4c-.3 2.2-.5 4.4-.7 6.6l-2.8 2.1c0 2.6-.5 5.1-1.3 7.6l-1.3-2.3c-.2 1.4 0 2.7.4 4.1.6 1.8.1 3.6-.2 5.4-.2-1.2.2-4.2-1.7-3.8-.3 2-.2 4-.2 6-.2-.4-.7-1.2-1-1.6-.8 2.3-1.5 4.6-1.3 7.1-1.6 2.9-2.5 6.2-3.6 9.3-.1-1-.2-2-.4-2.9-1.2 1.4-1.6 3.1-2 4.8v-2c-.5-.4-1-.8-1.6-1.2l-.3 3.4-1.5-.7c-.2 2.2 0 4.3.3 6.5-.6-1.4-1.7-2.7-1.5-4.3.4-2.4 1-4.8 2.8-6.6 1.3-1.2 1.7-2.9 2-4.6.6-3.5 3.1-6.3 4.1-9.7 1.4-5 2.4-10.2 3.6-15.3.5-2.2 2.5-3.5 3.4-5.4.9-2 1.8-4 3.3-5.7 2-2.1 3.3-5 5.3-7.2zM337.2 82.3c.8-.6 1.6.8.9 1.4-.8.5-1.6-.9-.9-1.4z"/><path fill="#414649" d="M365 85c.3.7.5 1.4.8 2-.4.1-1.2.3-1.6.3.3-.8.5-1.6.8-2.3z"/><path fill="#171617" d="M385.6 85.4z"/><path fill="#414649" d="M421.1 85.8c.8.4.8.8 0 1.2-.8-.4-.8-.8 0-1.2zM435.9 87.2c1-.5 1.8 1.7.6 1.9-.8-.2-1.2-1.3-.6-1.9zM348.9 89.2c1.9.4.3 3.2.2 4.4-1.5-1.1-1.1-3-.2-4.4zM401 89.4c2-.8 1.1 3-.4 1.9-.2-.5-.6-2 .4-1.9zM411.6 90.7c.8-.6 1.5.9.8 1.4-.8.6-1.5-.9-.8-1.4zM326.2 96.5c-1-1.7-2.4-4.3-.6-5.9.2 1 .3 1.9.4 2.9l1.3.7c.7.9.8 2 1.1 3.1.9.7 1.8 1.4 2.8 2.1-.1-1.7-.2-3.4-.2-5.1.8.7 1.3 1.7 1.4 2.8.6 3.2 1.6 6.2 1.8 9.5-1.8-1.6-2.3-4.2-3.6-6.1-1.4-1.5-3.5-2.1-4.4-4zM423.1 94.6c.5-1.7 2-3 3.8-3.2 1.4.6 1.9 2.3 2.7 3.5 1.7 3 4.2 5.3 6.3 8l-.1.6c-.3.1-.8.2-1 .3-1.2-1.4-2.7-2.4-4.2-3.5-1.9-2.1-2.1-5.1-3.9-7.3-1.3.4-2.4 1.1-3.6 1.6z"/><path fill="#EDEDED" d="M386.8 92.9c.7 1.8.6 3.7.7 5.6h-2.8l-.1-1c-.2-1.5-.4-3-.6-4.4.9 0 1.9-.1 2.8-.2z"/><path fill="#414649" d="M411.8 92.7c.7.3 1.4.6 2 1-.5 1.5-2.2 2.3-3.7 2.4.6-1.1 1.2-2.2 1.7-3.4zM301.7 99.4c3.5-2 7.6-2.6 11.1-4.5.2.4.7 1.1 1 1.5-2.1 1.8-4.9 2-7.3 3.2-.9.4-1.7.8-2.6 1-.8-.4-1.5-.8-2.2-1.2zM323.7 95l2.2 1.3.1 3.1c-1.3-1.1-1.9-2.8-2.3-4.4zM373.8 96.5c.9-.7 1.7 1 .9 1.5-.9.7-1.7-.9-.9-1.5z"/><path fill="#171617" d="M346.3 96.7c2.3.7 1.5 3.4 1.7 5.1-1.8-1-1.8-3.2-1.7-5.1z"/><path fill="#414649" d="M324.1 102.2c-1.2-1.4-1.7-3.7-.2-5 .3 1.6.4 3.3.2 5zM343.5 104.7c-.1-2.5-.7-5.5 1-7.5.4 2.5.9 5.5-1 7.5z"/><path fill="#EDEDED" d="M300.1 100.3c.5-.3 1-.6 1.5-.8.7.4 1.4.8 2.2 1.1l.5.2-.3 2.3c-.9.1-1.9.2-2.7.7l-1.8-1.5c0-.5 0-1.4-.1-1.8l.1-.6.6.4z"/><path fill="#171617" d="M404 99.4c1.6-1 .2 2 0 0z"/><path fill="#414649" d="M290.9 102.2l8.8-2.4-.1.6-.5 1.6c-.7-.7-1.3-.4-2 .1.8.3 1.7.7 2.4 1.3-2.9-.5-5.9-.6-8.5.8.1.5.2 1 .3 1.4l-1.3.1c.1-.3.2-1 .3-1.4-6.7 1.5-12.1 6.1-18.4 8.5-2 .7-3.6 2.3-5.7 2.8 0-1.1.4-2 1.4-2.4 7.4-4.3 15.2-8 23.3-11z"/><path fill="#171617" d="M410.5 100.8c2.1 1.2 4.1.1 6-.9.3 1.4-.9 1.5-1.9 1.5-.2.7-.3 1.3-.4 2l2.3-1.2c.1 1.1-.3 2.4.9 3 2.1 1.4 3.3 3.9 5.8 4.6.4 1.1.3 2.4.2 3.5.6-.6 1.2-1.1 1.8-1.6.1.7.1 1.4-.1 2.2-1.4-.5-3-.8-4.5-.3-1.5.6-2.7-.5-4-1l-.1 1.3-4.4-3.4 1.9-.1c-1.1-1.7-2.4-3.3-3.6-5 1 1.1 2.2 2.2 3.5 3 .2.2.5.7.7 1 2.4.1 3.2 3.2 5.8 2.9-.4-1.1-.8-2.2-1.2-3.2-3.3-1.8-4.9-5.6-8.4-7.1-.2-.4-.3-1-.3-1.2z"/><path fill="#EDEDED" d="M305.3 103.3c2.3 1.5 4.6 3.2 6.8 4.9-.5.8-1.1 1.6-1.6 2.3-2.3-1.6-4.5-3.3-6.9-4.9.6-.7 1.1-1.5 1.7-2.3z"/><path fill="#414649" d="M359.6 103.8c.8.1 1 .5.5 1.2-.9-.1-1.1-.5-.5-1.2zM429.3 108.5c1.9-.6 2.8-2.5 4.6-3.5-1 1.5-2 2.9-2.6 4.6-1 .3-1.9.6-2.8.8.2-.5.5-1.2.8-1.9zM331.8 106c1-.4 1.9 1.1 1.5 2-.9.3-2-1.2-1.5-2zM352.4 105.9c1-.3 1.3 0 1 1-1 .3-1.3 0-1-1zM294 108.8c.5-.7 2-.1 1.4.8-.6.7-2.1.1-1.4-.8zM367.9 108.8c1-.3 1.3 0 1 1-1.1.3-1.4 0-1-1zM432.6 110.5c.4-1.1 1.6-1.3 2.5-1.9.2 1 .2 2-.9 2.4v2.9c-1.9.1-2-2-1.6-3.4z"/><path fill="#EDEDED" d="M312.2 112.2c.7-.7 1.4-1.4 2.2-2 1.8 2.2 3.7 4.3 5.3 6.7l-2.3 1.6c-1.6-2.1-3.2-4.4-5.2-6.3z"/><path fill="#414649" d="M299.3 110.7c.4-.2 1.9-.1 1.3.6-.6.5-1.3.7-2.1.5-1-.3.3-1.1.8-1.1zM358 111.9c.7-.5 1.4.8.8 1.3-.8.4-1.5-.8-.8-1.3zM296.3 113.8c.6-.5 2-.7 2.2.2-.2 1.1-2.9 1-2.2-.2zM345.8 113.6c1.9 2.4 1.4 5.6 2.5 8.3 1.5 3.4 3 6.9 3.9 10.6-2.8-1.3-2.4-5-4-7.3-.5-.3-1.5-.2-1.4-1-.3-3.5-1.7-7-1-10.6zM277.7 114.6c1.6 0 4.1 0 4.2 2.2-1.4-.3-4.2-.4-4.2-2.2zM295.9 117.7c1.4-1.2 2.9-2.3 4.5-3.2-.5 2.1-2.4 3.2-4.5 3.2zM319.9 114.9c.8-.2 1.1.1.9.9-.9.2-1.2-.1-.9-.9zM349.7 114.9c.8-.6 1.5.9.9 1.4-.9.6-1.6-.9-.9-1.4zM283.9 115.5c1-.3 1.3 0 1 1-1 .2-1.3-.1-1-1zM294.7 116c.7-.6 1.1-.4 1.2.4-.7.5-1.1.4-1.2-.4zM253 119.8l10.6-3.7c-.8 2.1-3.2 2.6-5 3.5-4.1 2-8.8 2.2-13.2 3l.2-.7c2.1-1.3 4.9-1.3 7.4-2.1zM290.6 117.7c.5-.8 1.9.1 1.3.9-.5.7-1.9-.2-1.3-.9zM303.4 118.3c1-.3 1.3 0 1 1-1 .3-1.3 0-1-1z"/><path fill="#171617" d="M422.2 118.3c.4 0 1.1.1 1.4.2l.7 1.5-1.3.4c-.3-.6-.6-1.3-.8-2.1z"/><path fill="#414649" d="M172 121.6c7.6-1.7 15.3-3.8 23.1-3 1.6.1 3.1.7 4.1 2-3.5-.1-7-.6-10.5-1-2.4-.5-4.2 1.5-6.5 1.5-4.4 0-8.7 1.5-13 2.1-3.7.5-7.3 1.7-11 1.6 3.9-2.8 9.1-2.5 13.8-3.2zM273 120.7c-.9-2 1.5-2 2.8-1.5 1.7.6 3.2 1.8 4.7 2.9 1.8 1.4 3.8 2.5 5.3 4.3-3.8-2.1-6.9-5.3-10.8-7.2l-2 1.5z"/><path fill="#EDEDED" d="M318.8 121c.8-.7 1.6-1.4 2.5-2 1.4 2.5 3 4.8 4.7 7.1-.8.5-1.5 1.1-2.4 1.6-1.7-2.2-3.1-4.6-4.8-6.7z"/><path fill="#414649" d="M199.5 120.2c6.7-.4 13.2 1.1 19.8 1.4 7.6.9 15.2.8 22.8.4v.4c-3.2.6-6.5.3-9.8.4-3.9-.1-7.9.2-11.8-.5-3-.6-6.1.5-9.1 0-3.3-.4-6.5-.8-9.8-1-.9 0-1.5-.6-2.1-1.1z"/><path fill="#171617" d="M424.7 120.9l1.2-.7c.2 1.8.7 3.6 1.3 5.3-1.5-1.1-2-3-2.5-4.6z"/><path fill="#414649" d="M262.6 120.7c1.2.4-.3 2.3-1.2 1.5-.4-.7.5-1.6 1.2-1.5z"/><path fill="#969797" d="M242.1 121.9c1.1 0 2.3 0 3.4-.1l-.2.7c-.3 2.6.3 5.2.4 7.7l-3.1.2c-.4-2.7-.8-5.5-.5-8.2v-.3z"/><path fill="#EDEDED" d="M176.3 122.7l2.8-.9c.9 2.6 2 5.2 2.8 7.8-.9.3-1.8.6-2.8.8-.7-2.6-1.8-5.2-2.8-7.7zM242.4 122.1l2.5.1c-.1 2.6-.1 5.3.6 7.9l-2.4.2c-.5-2.8-.7-5.5-.7-8.2z"/><path fill="#414649" d="M267.3 122.5c1-.3 1.3 0 .9 1-1 .3-1.3 0-.9-1zM262 123.1l1.2-.5c-.6 1.6-1 3.2-1.2 4.9l-.5.7c.1-1.7.1-3.4.5-5.1zM306.4 123.1c.8.5-.3 2.6-1.2 2.5-.3-.9.3-2.1 1.2-2.5zM269.2 123.7c.6-.8 2.1.1 1.4 1-.6.9-2.1-.1-1.4-1zM271.4 124c1-.2 2-.3 3-.4-.3.7-.6 1.3-1 2v1.8c-.9-1.1-1.5-2.2-2-3.4zM302.2 123.6c.8.4.8.8 0 1.2-.8-.4-.8-.8 0-1.2z"/><path fill="#EDEDED" d="M155.1 124.3c.9.1 1.7.3 2.6.5 0 2.8-.4 5.7-1.1 8.4-.9-.2-1.8-.4-2.7-.7.4-2.1.7-4.3.9-6.5l.1-.7c.1-.1.2-.7.2-1z"/><path fill="#414649" d="M275.7 125h1.5c-.7 1.8-1.2 3.7-1.5 5.7v-1.8l-1.1-.9c0-.3 0-.8-.1-1.1.3-.1 1.1-.2 1.4-.2 0-.6-.1-1.2-.2-1.7zM303.4 124.9c.8-.7 1.5.8.8 1.3-.9.7-1.6-.8-.8-1.3zM147.2 127.5c2.7-.2 5.1-1.7 7.7-2l-.1.7c-2.9.2-5.5 1.6-8.2 2.7l-7.6 3.1.2 1.5c-.9 1-2 1.9-3.1 2.7.9-1.1 1.7-2.2 2.3-3.4-3.1.9-6.3 2.1-9.6 1.8-4.9-.5-9.9-1.6-14.8-1.3-2.8.4-5.8.3-8.4 1.8-3.4-.2-6.2 1.8-9.2 2.9-.4-.2-1.1-.5-1.4-.7 2.1-1.5 4.6-1.9 6.8-3 2.6-1.3 5.5-1.2 8.2-1.9 6.6-1.5 13.4 0 20.1.7 2.6.4 4.9-.9 7.3-1.7 3.3-1.1 6.2-3.4 9.8-3.9zM270.2 125.1c1.8 2 .8 5 .9 7.4-.3-2.5-1.1-4.9-.9-7.4zM301.7 125.4c.8.4.7.8-.1 1.2-.7-.4-.7-.8.1-1.2zM253.2 127.8c.9-.7 1.5.9.7 1.3-.9.8-1.5-.8-.7-1.3zM272.1 128c.8.1 1 .5.4 1.2-.8-.1-.9-.5-.4-1.2zM284.4 127.6c1.3 2.2 1.9 4.8 3.4 6.9.1-.5.3-1.5.4-2.1.4.6.8 1.2 1.2 1.9-.8.7-1.5 1.5-2.2 2.2-.2-.4-.5-1.1-.7-1.4l-2.1-.8-.5 1.6c0-.9 0-1.8.1-2.6l1.8-1.3c-.5-1.4-1.1-2.9-1.4-4.4z"/><path fill="#EDEDED" d="M327.6 127.9c1.8 2.1 3.6 4.1 5.2 6.4-.5.8-1.1 1.5-1.7 2.3-1.4-1.4-2.5-3-4.1-4.3-1.7-.2-3.3.8-5 1.2-.8-.6-.8-1.7-1.2-2.6 2.3-1.1 5-1.2 6.8-3z"/><path fill="#414649" d="M293.4 128.4c1-.3 1.3 0 1 1-1 .3-1.3-.1-1-1zM269.2 128.8c.4 2.5 1.5 5.4-.2 7.7l-1.8-.8 2.3-.9c-.2-2-.3-4-.3-6zM250.4 129.5c.5-.8 1.9.1 1.3.9-.6.7-2-.1-1.3-.9zM254.2 129.7c2 .1-.9 1.7 0 0zM261.4 131.3c-.4-.8.2-1.5.8-1.9.2 2.3.1 4.7-.1 7-.2.2-.5.6-.7.7.8-1.9.4-3.9 0-5.8zM252.5 130.2c2 0-.8 1.7 0 0zM284 130.4c1.1.1.3 2.2-.6 1.8-.4-.6 0-1.6.6-1.8zM257.3 130.8c.9-.7 1.7.9.9 1.5-.9.6-1.7-1-.9-1.5z"/><path fill="#EDEDED" d="M313.6 133.6c0-.6 0-1.2.1-1.8l.1 1.7c1.5-.5 3.1-1 4.6-1.6l1.2 2.5-8 3c-.3-.9-.6-1.8-1-2.7.9-.3 2-.7 3-1.1zM179.9 132.8l2.8-.3c.6 2.7 1.2 5.5 1.4 8.3l-2.8.3c-.1-2.8-.9-5.5-1.4-8.3zM243.6 133.5c.8-.4 1.7-.7 2.5-.9.8 2.7 1.4 5.4 2.1 8.1l-2.5.9c-1-2.7-1.7-5.4-2.1-8.1z"/><path fill="#414649" d="M190 133.6v3.8c-1.3-1-.3-2.6 0-3.8zM167.4 134.4c1 .1.3 2.2-.6 1.8-.6-.5-.1-1.6.6-1.8zM198.9 138.2c-.4-1.2-1.5-2.8 0-3.6.1 1.2.1 2.4 0 3.6z"/><path fill="#EDEDED" d="M297.4 140.5c.2-1.9 0-3.9 1.1-5.6l-.8 5.2c.5.9.9 1.8 1.3 2.7-2.5 1.2-5.3 1.5-8 2.3 1 1.9 2.3 3.7 2.7 5.8-.8.3-1.6.6-2.4 1-1-2.1-2-4.2-3.3-6.2-2.9.4-5.7 1-8.6 1 0-.6-.1-1.9-.2-2.6 2.6-.3 5.3-1 7.9-1.1.2.3.5.9.6 1.2.8-.7 1.8-1 2.7-.3l-.7-1.5c2.7-.8 5.2-1.4 7.7-1.9zM153.5 135.5l2.9.2-1.3 8.3c-.9-.1-1.9-.2-2.8-.2.3-2.8.8-5.5 1.2-8.3z"/><path fill="#414649" d="M273.3 135.6c.8-.6 1.6.8.9 1.3-.8.7-1.7-.7-.9-1.3zM195.2 136.3c.9.1.8 1.7.3 2.3-.8-.1-.8-1.7-.3-2.3z"/><path fill="#EDEDED" d="M300.5 139.3c2.7-.8 5-2.4 7.6-3.1.2.8 1.8 2.1.5 2.7-2.3 1.3-4.7 2.3-7.3 3l-.8-2.6z"/><path fill="#414649" d="M138.4 136.7c.8.4.8.8 0 1.2-.7-.4-.7-.8 0-1.2zM283.4 141.9v-5.3c.2.7.3 1.4.5 2 .7.5 1.3 1.2 1.8 1.8-.6-.1-1.2-.1-1.9-.2l-.4 1.7z"/><path fill="#EDEDED" d="M332.4 137.7c.8-.4 1.6-.8 2.5-1.2 1.8 2.2 3.6 4.4 5.5 6.5l-2.8 1.3c-1.7-2.2-3.8-4.2-5.2-6.6z"/><path fill="#414649" d="M124.3 137.3c1.9-1.1 3.7.7 5.3 1.7l1.4-1.4c-.4 1.4-.7 2.9-.9 4.4l2.3-2.5c-.2 3.4-2.5 6.2-2.5 9.6.4.5.8 1.1 1.3 1.6.3-1.6.5-3.1.7-4.7.2.1.7.2.9.2-.3 1.6-.6 3.3-.7 5-1 0-2.1 0-3.1.1 0 1.4 0 2.7-.1 4.1-1.4 1.7-1.7 3.9-1.6 6-.3 4 .7 7.9 1.6 11.8 1.1 3.2 2.8 6.2 4.6 9 1.8 2.4 1.6 5.6 3.1 8.1-.3.2-.9.5-1.2.6.4 1.3.7 2.7 1 4.1-.9-.8-1.7-1.5-2.5-2.3-.1-1.1-.3-2.2-.5-3.3l1.5.8c-.9-1.9-1.7-3.9-2.7-5.8.3 1.5.6 3 1 4.4l-1.2-.5c1 2 1.4 4.1 1.7 6.3-.5 2.2.5 4.3 1.1 6.3-.4 0-1.2 0-1.7.1 1.2 1.9 1.9 4 2.1 6.2l3.1.9c-.2 1.8-1.7 1.3-2.9 1.1-.2.6-.4 1.3-.5 1.9.3.4.7.8 1 1.3-.4 2-.3 4 .3 5.9-.9 3.5-1.2 7.3-2.4 10.7-2.8 8.4-8.5 15.4-13.8 22.4-.8 1.2-2.1 1.7-3.1 2.7-.5 1.4-.6 2.8-.7 4.3-.5.9-1 1.9-1.7 2.8l-.9.9c0-.2-.1-.5-.2-.7-.8.2-1.5-.3-2-.9.6-.4 1.2-.8 1.7-1.3-.3-.9-.8-1.7-1.2-2.5 2.3-2 4.5-4.2 6.5-6.5 5.6-5.5 9.3-12.6 13-19.4 1.8-3.1 2.1-6.7 2.7-10.1.7-12.1-4.7-23.5-4.7-35.5-.6-2.8.3-5.9-1.5-8.4-2.3-4.1-3.1-8.8-2.5-13.5.2-6.8 1.6-13.6 4.5-19.8-2.3-1.5-5.1-1.7-7.6-2.8-2 .8-3.7 2.2-5.4 3.4.2-1.4.4-2.9.9-4.2 2.3-.6 4.4-1.4 6.5-2.6zM269.7 137.3c.8-.6 1.6.8 1 1.4-.8.5-1.6-.9-1-1.4zM149.7 138.1c1-.5 1.8 1.7.6 1.9-.8-.2-1.2-1.4-.6-1.9zM267.9 137.8c1-.3 1.3 0 1 .9-1 .4-1.3.1-1-.9zM87.8 143.6c2.3-1.8 4.3-4 6.8-5.6.2.2.7.7 1 .9-.7.9-1.7 1.5-2.7 2-1.6.9-2.9 2.3-4.2 3.6l1 1.3c-.8 1.6-1.8 3.1-3.7 3.5v-2.8l1.8-1.9c.1-.3 0-.7 0-1zM314.6 138.5c1-.3 1.3 0 1 1-1 .3-1.3-.1-1-1zM209.1 139.1c.4.7.9 1.4 1.3 2.2-.7.2-1.4.4-2.2.6-1.3 2.4-2.2 5.1-4 7.3 1.3-3.5 3.4-6.6 4.9-10.1zM267.8 140.5c1.5-.8 3.2-1.2 4.9-1.4-.8 1.9-3.3 1.3-4.9 1.4zM106.3 139.4l2 .1c-.3 1.3-.6 2.5-1 3.7-.4-1.2-.7-2.5-1-3.8zM113.6 139.7c1 0 .8 1.6-.1 1.6s-.7-1.6.1-1.6zM143.9 139.7c.8-.6 1.7.7.9 1.3-.8.7-1.7-.7-.9-1.3zM145.5 139.8c.8-.6 1.6.8.9 1.4-.7.6-1.6-.8-.9-1.4zM275.6 139.8c1.1-.6 1.5 1.8.4 2-.8-.2-.9-1.5-.4-2zM111.6 144.2c.9-2.1 3.1-3.2 5-4.3-1 2.7-3.8 4.2-4.6 7.1-1.1 2.8-.5 6.1-2.1 8.7l-1.1-2.1c-.4-.7-.7-1.4-.9-2.2l1.4 1c.6-2.8 1.2-5.6 2.3-8.2zM164.4 140.8c1 0 .8 1.6-.1 1.6-.9.1-.8-1.5.1-1.6zM316.5 140.6c1.9.4 4.3.6 5.5 2.4-1.9-.3-4.9.1-5.5-2.4zM184.7 143.5l1.2-2.1c.1 1.6.3 3.2.5 4.8-1.9 1.9-.8 4.9-1.6 7.3-.3-1.3-1.7-1.1-2.8-1.3-.7-2.8-.7-5.8-.4-8.6.4 2.7.5 5.5.5 8.2l2.6.1c0-2.8-.2-5.6-.4-8.4h-1.7l.3-1.7c.7.6 1.3 1.1 1.8 1.7zM192.3 146.7c.1-1.9-.2-4.1 1.3-5.6 0 2-.4 3.9-1.3 5.6zM326.4 141.5c.8-.6 1.7.8 1 1.3-.8.6-1.7-.7-1-1.3zM148.4 142c.9-.3 1.3 0 1 1-.9.3-1.3 0-1-1zM340.4 143.1c.7.7 1.3 1.4 1.8 2.3l-.8-.3c-.6.6-1.2 1.2-1.7 1.9 0-.5.1-1 .2-1.5-.9-.3-1.8-.6-2.8-.9l.5-.2c.9-.4 1.8-.9 2.8-1.3z"/><path fill="#EDEDED" d="M181.7 143.6h2.8c.2 2.8.4 5.6.4 8.4l-2.6-.1c-.1-2.9-.2-5.6-.6-8.3zM246.2 144l2.7-.6c.4.6.2 1.8 1 2.1 1.7.6 3.5.8 5.2 1-.1 1-.2 1.9-.4 2.9l-4.7-.7c.1 1 .2 2 .4 3-.9 0-2.2 1-2.9 0l-1.3-7.7z"/><path fill="#414649" d="M319.8 143.3c1.6.1 3 .8 4.3 1.6l-.1-.9 3.1 1.3c0 .5.1 1 .1 1.4 1.3.6 2.6 1.5 3.3 2.8 1.4.7 2.8 1.3 4.2 2.1l.3 1.4 1.8 1.9c-1.6-.7-2.4-2.3-3.5-3.6-1.3-.8-2.8-1.1-4.3-1.5.1-.2.2-.7.2-1l-2.9-.7c2.8 4.2 5.6 8.5 7.4 13.3-.2.6-1 .7-1.5 1.1l.7-1.9c-2-3.7-3.4-7.8-6.5-10.9-1.1-1.2-2.3-2.3-3.5-3.5v-.7c-1-.4-2.4-.9-3.1-2.2zM157.9 144.4c1.2.1.5 2.4-.6 1.9-.5-.5-.1-1.7.6-1.9z"/><path fill="#969797" d="M268.2 145.7c2.8-.4 5.6-1.3 8.4-1.3.4.8.5 1.8.6 2.7-2.6 1.2-5.6 1.2-8.4 1.6-.3-1-.5-2-.6-3z"/><path fill="#414649" d="M180.4 145c2 .2-1 1.7 0 0z"/><path fill="#EDEDED" d="M268.5 146.1c2.6-.4 5.2-.9 7.8-1.5l.4 2.4c-2.6.5-5.2 1-7.8 1.4-.1-.8-.2-1.5-.4-2.3z"/><path fill="#414649" d="M211.1 145.7c.8-.6 1.6.8.9 1.4-.8.5-1.7-.9-.9-1.4zM215.9 145.4c2-.5 0 2.5-.5.7.1-.1.4-.5.5-.7zM227 145c1 .9 1.4 2.2 1.7 3.4-1.8-.1-1.5-2.1-1.7-3.4z"/><path fill="#EDEDED" d="M341.4 145.1l.8.3 1.4 1.7 3.6 4.4-1.5 1.2c-.2.1-.6.3-.9.4l-5.1-6.1c.5-.7 1.1-1.3 1.7-1.9z"/><path fill="#969797" d="M151.8 146.2l3 .4c-.5 2.8 0 5.7-.8 8.5-1 0-2-.1-3-.2.1-2.9.4-5.8.8-8.7z"/><path fill="#414649" d="M159.7 146.2c.9-.7 1.8.8.9 1.4-.8.8-1.7-.8-.9-1.4z"/><path fill="#969797" d="M257.4 146.7c2.8-.2 5.6-.3 8.4-.4.1 1 .1 2 .2 3.1-2.8.2-5.7.7-8.6.2v-2.9z"/><path fill="#171617" d="M346.5 146.1c.8 1.5 1.6 3.1 2.2 4.8-2-.7-1.7-3.2-2.2-4.8z"/><path fill="#EDEDED" d="M151.9 146.5l2.5.5-.8 7.7c-.5-.1-1.6-.2-2.1-.2.2-2.7.3-5.3.4-8zM257.8 147c2.6 0 5.2-.2 7.8-.5v2.6c-2.6.1-5.3.2-7.9.2l.1-2.3z"/><path fill="#414649" d="M96.3 147.2l-1.7 16.1c-1.1.6-1.3-1.2-1.4-1.9 0-3.2.7-6.4 1.4-9.6-.2-.5-.4-1-.5-1.5l1.2.4c.3-1.1.6-2.3 1-3.5zM171.6 147.4c.9-.7 1.8.9.9 1.4-.9.7-1.8-.9-.9-1.4zM214.1 146.9c1.1.6 1.4 2.2.5 3.1-1.1-.7-.3-2.2-.5-3.1zM105.3 147.8c1-.3 1.3 0 .9 1-.9.3-1.2 0-.9-1zM277.3 149c.6-1.7 3-.6 4.3-.9-1 1.1-2.9 1.5-4.3.9zM91.1 149.1c1-.3 1.3 0 1 1-1 .3-1.3 0-1-1zM85.1 153.2c-.8-1.5.9-3 1.9-4-.3 1.3-.3 3.4-1.9 4zM106.1 151.3c-.2-1 .7-1.5 1.4-2 .2 2.9-.5 5.7-.1 8.6.5 6.6 4.2 12.5 4.8 19.1.2 2.1-1.3 4.1-.4 6.2 1 2.7.3 5.7 1.2 8.5.5-.9.7-2 .9-3l.5 2.4c-.3.2-1 .7-1.4.9.4 8.4 0 16.9-1.9 25.1l-.9.4c1.5-4.1 1.9-8.6 2.4-12.9-.2-4.7.9-9.5-.3-14.2l-.7-1.2c-.5 2.6-.8 5.2-1.3 7.9l1.6.4c-.6.2-1.3.4-1.9.7-.2 1.6-.4 3.3-1 4.8.1-5 2.2-9.8 1.9-14.9-.2-3.9.6-8.1-.8-11.9l-2.1-9.3c-1.8-5.1-2-10.4-1.9-15.6zM134.4 149.7c.2.1.6.4.8.6-.5 1.1-1.2 2.3-2.1 3.1 0-1.4.5-2.6 1.3-3.7zM176.9 149.7c1-.3 1.3 0 1 1-1 .3-1.3 0-1-1zM272.7 149.9c1.1-.5 1.7 1.8.6 1.9-.8-.2-1.1-1.4-.6-1.9zM99.4 150.8l1.1-.7c-.1 1.2-.4 2.4-1 3.5 0-.9 0-1.8-.1-2.8zM252.6 150.5c.8-.6 1.6.8.9 1.3-.8.6-1.7-.8-.9-1.3zM281.8 150.4h3.3c-1 .9-2.7 1.7-3.3 0zM314.6 150.4c.9-.7 1.8.8 1 1.4-.9.7-1.8-.8-1-1.4zM303.5 150.9c1-.4 1.9 1.2 1.3 2-.9.2-1.9-1.3-1.3-2zM318.9 151c.7-.5 1.5.7.9 1.2-.8.5-1.5-.7-.9-1.2zM89.7 153.1l1.2-1.6c-1.2 4.1-.7 8.4-1 12.6-.8-.7-2.2-1.3-2-2.6.3-1.7.9-3.4 1.3-5.1-.9-.7-.8-1.8-1-2.7.4-.3 1.1-.5 1.5-.6zM317.1 151.5c1-.3 1.3 0 1 1-1 .2-1.3-.1-1-1zM136.7 152.3c.7-.5 1.3.8.7 1.3-.8.5-1.4-.8-.7-1.3zM291.8 153.8c1.8-.4 3.6-1 5.3-1.7l1.8 2.3c-.6.2-1.2.4-1.7.6-.4.8-.7 1.6-1.1 2.3l1.2 4.2c-1 .4-2.1.8-3.1 1.1-1.3-2.8-1.9-5.8-2.4-8.8zM134.7 152.5c1 1.4 2.2 2.7 3.5 3.9-1.1 0-2.2-.2-3.2-.6l-.3-3.3zM177.4 152.7c.9-.3 1.3 0 1 1-.9.3-1.2 0-1-1zM275 153.4c.8-.6 1.5.9.8 1.4-.8.6-1.5-.9-.8-1.4zM281.6 153.3c.5-.6 1.9-.7 2 .3-.1 1.1-2.7 1-2-.3zM82.8 157.7c.5-1.6.9-3.4 2.4-4.4-.1 1.5-.1 3-.6 4.4-.6 1.5-1.9 2.6-2.4 4.1-.4 1.2-.4 2.5-.5 3.8l1.2.8c-.4 4.2-1.1 8.4-.6 12.6.2 5.2-.2 10.4.7 15.5 0 1 1 1.4 1.7 1.9-.2-2.5-.6-5.1-.3-7.6 1.3 2.7.9 5.8 2.1 8.5 1.1-2.1.6-4.4.3-6.6.5-.5.9-1 1.1-1.7-.9-.8-1.9-1.5-2.7-2.4.7-2.1.8-4.3.6-6.5l.5-1c.4 2.2.3 4.6 1.2 6.7.7-4.8-.2-9.6-.1-14.5l1.3 1.2c.6 2.9.1 5.9.3 8.8.1 1.6 1.1 3 1.3 4.6-.4.6-.8 1.2-1.2 1.7-.3 3.5-.4 7-1.1 10.4-.8 3.6.6 7 1.6 10.4l-.9 1.1c0 1.7-.2 3.3-.6 4.9.9.1 1.8.2 2.7.4l-.6 5.3-.1-2.4c-.4 0-1.1-.1-1.5-.2l-.5-1.5-.9 1.2v-10.5c.1-1.7-.8-3.1-1.2-4.6.2-.7.5-1.3.8-2l-1.9-.8c1.4 6.3 0 12.8.1 19.2.2 3.3-2.7 6.5-1.3 9.8-1.8 3-1.9 6.4-2.2 9.8-.1.5.1 1 .5 1.4-.1-.4-.2-1.1-.2-1.5.6-2.1.3-5 2.5-6.2-.3 3.3-.4 6.9-2 9.9-.8.8-1.2-.8-1.8-1.2l.4 1.1c1.9 1.1.7 3.8-.4 5.1-1-1-.2-2.9-1.1-3.8-.7 1.4-.4 3.1-.6 4.6-.2 2.6-1.7 5-1.4 7.7.1 1.8.3 3.7-.6 5.4.6-3.4-.3-6.8.2-10.1 1-9.1 3.2-18.1 5-27.1 1.6-9.7 2.9-19.8.8-29.6-.1-2.5-1.9-4.6-1.8-7.1.1-2.4-.8-4.8-.1-7.1-1.1-3-1.3-6.4-.3-9.5.3-.1.8-.4 1.1-.6 0-.5 0-1.1-.1-1.6l-1.6 1.6c-.4-3.7.1-7.4 1.7-10.8.1-.2.6-.6 1.1-1zM220.1 153.9h.7l.1 1.7c3.1.2 6.1.2 9.2.5l-.9 3.4c-2.8.1-5.6.1-8.3 0-.3-1.9-.6-3.7-.8-5.6zM252.7 153.9c.8-.6 1.6.8.9 1.4-.8.5-1.6-.9-.9-1.4z"/><path fill="#EDEDED" d="M292.1 154.2c.8-.3 1.6-.6 2.5-.9.9 2.7 1.6 5.4 2.1 8.2-.6.1-1.9.3-2.6.4-.6-2.6-1.3-5.2-2-7.7z"/><path fill="#414649" d="M108.2 154.6c.8.1 1 .4.5 1.2-.8-.1-1-.5-.5-1.2z"/><path fill="#EDEDED" d="M182.1 154.6l2.7.1c-.3 2.1-.3 4.2.7 6.2-1 .4-1.7 1.2-2.1 2.3-.6-.1-1.7-.3-2.2-.4l-1.9-4.5 2.4-1.3c.2-.9.2-1.7.4-2.4zM248 154.7l2.8-.3c.4 2.8 1.1 5.5 1.3 8.3l-2.9.3c0-.5-.1-1.5-.1-2.1-2.1.3-4.3.4-6.4.3 0-.9 0-1.8.1-2.7 1.9.1 3.9.2 5.8-.6-.2-1.1-.5-2.1-.6-3.2zM346.7 155c.7-.5 1.3-1 2-1.4 1.4 1.9 2.8 3.9 4.1 5.8.2.2.5.7.7 1l-.8.7c-.2.2-.7.6-1 .8l-.9-.1c-1.4-2.1-3-4.1-4.3-6.3l.2-.5z"/><path fill="#414649" d="M285.5 155.7h1.4l1.5 1.4-.7 1c-.3.1-.9.2-1.1.3.1-.5.2-1 .4-1.4-.7-.4-1.1-.9-1.5-1.3zM103.6 156.2c1.3-.7 1.4 1.9.2 2-.9-.1-.7-1.5-.2-2z"/><path fill="#EDEDED" d="M198.8 156c2.6 0 5.1-.2 7.7 0 1.2.3.5 1.9.7 2.8-2.8.1-5.6 0-8.4.2v-3z"/><path fill="#969797" d="M209.5 156.2c2.9-.3 5.9-.2 8.8-.2-.1 1.3-.2 2.6-.3 4-.3-.2-.8-.5-1-.7-2.4-.2-4.9 0-7.3-.1l-.2-3zM232 156.4c2.9.4 5.7.9 8.6 1.7l-.8 2.9c.1-.9.2-1.8.3-2.6l-7.7-1.5c-.2.8-.4 1.5-.6 2.2 2.4.5 4.8.9 7.1 1.6-2.5-.1-5.1-.6-7.5-1.2.2-1.1.4-2.1.6-3.1z"/><path fill="#414649" d="M326.5 156.2c1-.3 1.3 0 1 1-1 .3-1.3-.1-1-1zM100.7 157.7c.5-.4 1-.8 1.6-1.2.5 1.2 1 2.3 1.7 3.3.3 2.7.6 5.5 1 8.2-.4 0-1.3-.1-1.7-.2l.9 2.7h-2.2c.1-.7.2-1.4.3-2-.4-.1-1.1-.4-1.4-.5v-3.8l.3 3.5c.5-.5 1.8-.7 1.6-1.6-.4-2.8-.1-6-2.1-8.4z"/><path fill="#EDEDED" d="M187.9 157.3c2.7-.4 5.4-.9 8.1-1l.1 2.9c-2.8 0-5.5.7-8.3.9-.2-1-.2-1.9.1-2.8zM210 156.5h7.8v2.2h-7.8v-2.2zM220.9 156.3c2.8 0 5.5 0 8.3.1-.1.9-.2 1.8-.3 2.8-2.7-.3-5.4-.2-8.2-.2.1-.8.2-2.1.2-2.7zM232.3 156.8l7.7 1.5-.3 2.6-.8-.3c-2.3-.7-4.7-1.2-7.1-1.6.1-.7.3-1.4.5-2.2z"/><path fill="#414649" d="M298.4 160.5c-.7-1.8.9-3.1 2.1-4.2l.6 2.1c-.3.1-1 .4-1.4.5-.4.6-.9 1.1-1.3 1.6zM303 156.7c.5-.8 1.9 0 1.3.8-.5.9-1.9 0-1.3-.8zM324.6 156.9c.9-.7 1.8.8 1 1.4-.9.7-1.8-.8-1-1.4zM141.2 161c-1.5-.7-1.5-2.7-1.2-4.1 1.3.8.9 2.7 1.2 4.1z"/><path fill="#EDEDED" d="M151.4 157.6l2.6-.1c.3 2.7.5 5.5 1.1 8.2l-2.8.3c-.7-2.7-.9-5.6-.9-8.4z"/><path fill="#414649" d="M283.5 157.3c1.6-.3.5 1.8-.5 1.7-1.5.2-.3-1.7.5-1.7zM322.9 158c.9.1 1 1.9.1 2-1-.1-1-1.8-.1-2zM341.3 158.1c.8-.7 2 .7 1.3 1.5-.8.7-2.1-.7-1.3-1.5zM280.4 159.1c1.8-.2.5 2-.7 1.3-.9-.3 0-1.4.7-1.3zM334.2 159.3c.7-.5 1.5.7.9 1.2-.8.5-1.5-.7-.9-1.2zM265.5 159.8c2-.1-.8 1.8 0 0zM285.9 159.3c1.7 2.9 1.2 6.5 1.8 9.7l-1.2-.3c-.2-3.1-.9-6.2-.6-9.4zM326.9 161.6l2.1-1.6c.3.8.6 1.5 1.2 2.1 0 .3.1.8.2 1l-2.3-1.5-.1 3.2c-.3.2-.8.5-1 .7-.1-1.3-.2-2.6-.1-3.9zM253.1 160.4c.8-.7 1.6.8.8 1.3-.8.7-1.6-.8-.8-1.3zM342.6 160.3c.5-.8 1.9.1 1.4.9-.6.7-2-.1-1.4-.9zM189.2 161.2c.8.1 1 .4.5 1.1-.8-.1-1-.4-.5-1.1zM191.6 160.6c.9 1.2 2.4 3.4.4 4.3-.8-1.3-.5-2.9-.4-4.3zM299.9 160.9c.6.6 2.8 1 1.4 2-.9.2-2 .2-2.7-.4-.8-1 .7-1.2 1.3-1.6zM196.6 163.2c-.2-.9.2-1.8.8-2.5.8 2.6 1 5.3.9 7.9-1.5-1.3-1.4-3.5-1.7-5.4zM307.9 161.1l1.8 1.5c.1-.4.2-1.3.2-1.7.8.8 1.3 1.8 1.8 2.8-1.5.1-2.9.1-4.4.1l1-.9c-.2-.6-.3-1.2-.4-1.8zM350.9 161.8l.9.1c.2-.2.7-.6 1-.8.5 3 .9 6 .7 9-.4 3.3-1.6 6.4-2.4 9.7-.7-.8-1.5-1.5-2.3-2.2l.7-.9 1.5-.7c-.1-.7-.8-1.2-1.1-1.8.5-.4 1-.8 1.5-1.3.5-3.8.4-7.7-1.2-11.2l.7.1z"/><path fill="#EDEDED" d="M185.2 161.6l2.8 2.4 1.6-.1v1.4l2.6 2.8-1.2-.3-.1 1.7-.1-1.7-1.3 1.5c-1-.8-1.9-1.8-3-2.5-1.9-.2-3.7 0-5.6.1v-2.9c.7 0 1.5-.1 2.2-.2.8-.6 1.4-1.4 2.1-2.2z"/><path fill="#414649" d="M304.1 162.2c.8-.1 1.6-.1 2.3-.1l-3.2 2.7c.3-.8.5-1.7.9-2.6zM88.4 165.3c-1.4.1-3.2-1-2.3-2.5.7.8 1.5 1.6 2.3 2.5zM163.3 163.3c.9-.7 1.7.9.9 1.5-.9.7-1.7-.9-.9-1.5zM339.4 163.9l1.2-1.2c1.9 1.8 3.6 3.8 5.7 5.4l3.3.3-1.7 1.7 1.8.3c-.5 1.5-2 1.1-2.9.3l-2.6 1.1c-.7-1.6-2-2.7-3.3-3.8-.7.1-1.3.2-2 .4l-.3-3 2 .8c-.4-.8-.8-1.6-1.2-2.3zM129.6 164c.9-.7 1.7.9.9 1.5-.9.7-1.7-1-.9-1.5zM143.7 163.9c.9-.7 1.7.9.9 1.5-.9.7-1.7-.9-.9-1.5z"/><path fill="#969797" d="M294.5 164.5l3.1-.6c.4 2.8.6 5.7 1.3 8.5l-1.6.3c.2-.2.6-.6.8-.7l-.8-7.5-2.4.4c.3 2.2.5 4.5.5 6.7-.6-2.3-.7-4.7-.9-7.1z"/><path fill="#414649" d="M82.3 164.4c.9-.3 1.3 0 1 1-1 .3-1.3 0-1-1z"/><path fill="#EDEDED" d="M169.9 166.6c2.7-.7 5.5-1.4 8.3-2 .1 1 .2 1.9.4 2.9-2.7.4-5.2 1.3-7.8 1.9-.4-.9-.7-1.9-.9-2.8z"/><path fill="#414649" d="M213.5 165.2c.8-.6 1.6.8.9 1.4-.8.6-1.6-.8-.9-1.4z"/><path fill="#969797" d="M249.7 165.7c.8-.2 1.6-.4 2.5-.5l1.3 1.6c-.5 2.3 0 4.7 0 7h-1.5c.3-.1.8-.2 1.1-.2-.1-2.6-.5-5.2-.8-7.8l-2.3.1c.4 2.7.6 5.5.5 8.2-.5-2.9-.8-5.7-.8-8.4z"/><path fill="#414649" d="M278.9 165.2h3.8c-1.1 1-3 1.8-3.8 0z"/><path fill="#EDEDED" d="M295 164.9l2.4-.4c.2 2.5.5 5 .8 7.5-.2.2-.6.6-.8.7-1.1.5-2 .1-1.9-1.2-.1-2.2-.2-4.4-.5-6.6z"/><path fill="#414649" d="M133.3 167.9c.7-.9 1.4-1.8 2.1-2.6l.3 3.5-2.4-.9z"/><path fill="#EDEDED" d="M163.4 166.2l.4-.5c-.2 1.1-.2 2.4.4 3.4.9-.5 1.8-1 2.7-1.6.5.8 1 1.7 1.3 2.6-1.3.9-2.8 1.3-4.2 2v.9c-.9-1.2-2.3.6-3.4.7-.4-.9-.8-1.9-1-2.9 1.2-.5 2.4-1 3.6-1.4.1-1 .1-2.1.2-3.2z"/><path fill="#414649" d="M85 167.9c-.1-.8.3-1.6 1.1-1.9 0 2.7.1 5.4-.2 8-1-1.9-.9-4.1-.9-6.1zM142.9 166c1 .6 2 1.2 2.9 1.8-.7 1.2-1.4 2.4-2 3.6.4.5.8.9 1.3 1.4.4-.8.9-1.5 1.4-2.2-.1 1.1-.3 2.2-.5 3.2.3.2 1 .7 1.4 1l.6-3.9c.2.2.6.5.9.7.1 1.6-.2 3.2-1.2 4.4-1.8-1.7-3.4-3.5-5-5.4.5-.7 1.1-1.4 1.5-2.2-.5-.7-.9-1.6-1.3-2.4z"/><path fill="#EDEDED" d="M249.9 165.8l2.3-.1c.3 2.6.7 5.2.8 7.8-.3.1-.8.2-1.1.2-.4.1-1.1.2-1.5.2.2-2.7-.1-5.4-.5-8.1z"/><path fill="#414649" d="M87.1 166.9h.7v3.5c-1.5-.5-.6-2.3-.7-3.5zM238 167.3c.7 1.9 1.4 4.1.8 6.1-.9-1.5-1.1-3.2-1.4-4.9.1-.2.4-.9.6-1.2zM95.6 167.5c1.9.6 1.2 2.8.9 4.2-1.1-1.2-1-2.8-.9-4.2z"/><path fill="#EDEDED" d="M153.2 168.9l2.7-.9c.8 2.4 2.4 4.4 3.7 6.6.1 1-1.1 1.4-1.8 1.5-2.4.4-4.1 2.2-5.9 3.6-.1-.2-.4-.5-.6-.7-1.6-1.5-1.7-3.7-1.1-5.7l.3 3.6c1.7-1.1 3.3-2.2 4.9-3.4-.8-1.5-1.6-3.1-2.2-4.6z"/><path fill="#414649" d="M277.5 168c1.2-.5 1.5 1.5.3 1.7-1.2.4-1.5-1.5-.3-1.7zM178.6 168.4l1.1 3.5c-.4 0-1.2 0-1.6-.1.1-1.1.3-2.3.5-3.4zM139.5 168.9c1.4.9 2.2 2.4 2.6 4-2.2.2-2.2-2.5-2.6-4z"/><path fill="#EDEDED" d="M193.1 169.3c.2 0 .6.1.8.2 1.9 1.8 3.8 3.8 5.3 6-.8.6-1.6 1.2-2.4 1.7-1.4-2.4-3.6-4.1-5.3-6.2.5-.5 1.1-1.1 1.6-1.7z"/><path fill="#414649" d="M240.1 169.4c.8-.6 1.6.8.9 1.3-.8.6-1.7-.8-.9-1.3z"/><path fill="#969797" d="M331.8 172l.8-2.5c.4.7.9 1.3 1.2 2.1l-1.2.8-.1 2.9-8.7-.5c0-1 0-1.9.1-2.8 2.6-.4 5.3-.3 7.9 0z"/><path fill="#414649" d="M182.8 170.5c.9-.1 1.7 1.2 1 1.8-1 .6-2.2-1.4-1-1.8zM186.7 169.9c1.4 1.5 1.4 3.5 1.5 5.4-2.1-.9-1.4-3.6-1.5-5.4zM205.8 171l1.1-.7c-.1 1.2-.2 2.4-.2 3.6-.3-1-.6-2-.9-2.9zM307.3 172.6c.4-.8.2-3 1.6-2 1.2 1.2-.7 1.7-1.6 2zM89.5 170.9c1.7.4 1.3 2.3 1.4 3.6-.1 2.6 0 5.3.6 7.9.2.9-.7 2.6-1.7 1.9-.3-4.5-.6-9-.3-13.4zM138.4 171.8c1-.2 1.6 2.1.6 2.4-.9-.3-1.1-1.7-.6-2.4zM174.1 171.3c1.5 1.1.5 3.2.6 4.7h-.7c.1-1.6.1-3.1.1-4.7z"/><path fill="#EDEDED" d="M313 172.7c2.8-.3 5.6-.4 8.4-.6v2.7c-2.7.4-5.5.5-8.2.8-.1-1-.2-1.9-.2-2.9zM324.4 172c2.7.1 5.5.3 8.2.6-.1.5-.2 1.6-.3 2.2-2.6-.2-5.3-.2-7.9-.2v-2.6zM335.2 172.8c2.9.1 5.9.8 8.5 2-.3.8-.6 1.6-.8 2.4-2.2-.6-4.4-1.2-6.6-1.5-.4-.1-1.2-.2-1.5-.3.1-.9.2-1.7.4-2.6z"/><path fill="#414649" d="M176.8 173.4c1.1.2.5 2.4-.6 1.9-.5-.6-.2-1.8.6-1.9zM185.2 173.4c.9-.7 1.7.9.9 1.5-.8.6-1.7-.9-.9-1.5zM243 173.5c.8-.3 1.1 0 .9.8-.8.3-1.1 0-.9-.8z"/><path fill="#EDEDED" d="M301.8 176.2c2.7-1.3 5.5-2.3 8.4-2.9l.6 2.9c-1.3.2-2.6.6-3.9 1 0 .5.1 1.4.1 1.8h-.4v-1.7c-1.2.5-2.4 1.1-3.6 1.7-.3-.9-.8-1.8-1.2-2.8z"/><path fill="#414649" d="M178.1 177.5c.1-1.3-.3-2.9.8-3.9.1 1.4 0 2.8-.8 3.9zM83.7 174.3c.7 1 .6 2.1.1 3.1-.3-.6-.6-1.2-.9-1.9.2-.2.6-.9.8-1.2zM85.1 174.8c1.8.6 1.4 2.7.7 4-.5-1.2-.7-2.6-.7-4z"/><path fill="#EDEDED" d="M295.7 175.5c1.1-.1 2.3-.2 3.4-.2.2 1.6.9 3.1 2.3 3.9-.1.2-.2.7-.3 1l-1.4 1.4c-1.4 1.3-2.4 2.9-3.5 4.4-1 .1-2.9-1.1-2-2.3.9-1.5 2-2.8 3.2-4.1-.5-1.2-.9-2.5-1.1-3.8-.1 0-.4-.2-.6-.3z"/><path fill="#414649" d="M164 175.3c.9.8.7 2.1.9 3.3.1 3.7 2.1 7 2.3 10.7-.7-1.8-1.1-3.6-1.6-5.4-.7-2.9-2-5.6-1.6-8.6zM336.3 175.7c2.2.4 4.4 1 6.6 1.5l-1 .8v1.3c-.3.6-.7 1.2-1.1 1.9-1 1.3-1.4 2.9-1.8 4.4-.6-.8-1.2-1.5-1.7-2.3-.2.3-.6.8-.9 1.1-.3-.7-.5-1.5-.7-2.2l1.5.4c0-.4 0-1.2-.1-1.7l1.1 1.4c-.2-.9-.3-1.7-.4-2.6l.7-2.4 1.7-.3c-1.3-.3-2.6-.8-3.9-1.3zM98.1 175.7c.7 1.2.7 2.5.8 3.8.2-.3.7-.9.9-1.1 1.4 7.4 2.4 15.2.5 22.7-1.2 5.6-4.3 10.5-6.1 15.9-.7 1.7-1.6 3.4-2.2 5.3-1.2-1-.8-2.8-.4-4.1 1.1-2.9 1.3-6.1 2.1-9.1 1.3.2 2.1-.8 2.9-1.6-.8-.6-1.5-1.3-1.2-2.3.4-1.9 1.4-3.5 1.7-5.4.4-2.5.4-5 .2-7.6-.6 1-1.1 2-1.6 3.1 1.3-4 1.1-8.1 1.2-12.2h1.4c-.2 3-.3 5.9 0 8.9.9-2.6.7-5.5.5-8.2-1.7-2.4-1-5.4-.7-8.1zM131.9 176.4c.8-.6 1.6.8.9 1.3-.8.7-1.7-.7-.9-1.3zM139 175.8c.7.3 3 .2 2.3 1.5-.1.3-.3 1-.3 1.3-1-.7-1.8-1.6-2-2.8zM315.2 176.1c2 2.1 3.8 4.3 5.3 6.7-2.1-1.9-3.9-4.2-5.3-6.7z"/><path fill="#EDEDED" d="M344.9 178.1c.5-.7 1.1-1.5 1.7-2.2.8.5 1.5 1 2.3 1.6.8.7 1.6 1.4 2.3 2.2.7.8 1.1 1.9 1.4 3l-1.5.5-.9.3c-.6-.7-1.1-1.5-1.6-2.2-1.1-1.3-2.5-2.2-3.7-3.2zM251 184.8c-.1-2.7 0-5.5-.5-8.2 1-.1 2-.2 2.9-.2l.5 8.3c-1 .1-2 .1-2.9.1z"/><path fill="#414649" d="M311.6 177.1c.8-.2 1.1.1.9.9-.9.2-1.1-.1-.9-.9zM178 178.3c.7-.5 1.4.7.8 1.2-.8.5-1.5-.8-.8-1.2z"/><path fill="#EDEDED" d="M197.7 179.2c1.1-.3 2.1-.7 3.1-1.1 1.3 2.4 2.6 4.9 3.6 7.5-.8.3-1.7.7-2.5 1.1-1.1-2.5-2.4-4.9-3.7-7.3-.1-.1-.3-.2-.5-.2z"/><path fill="#414649" d="M334.8 178.1c.8-.7 1.5.8.8 1.3-.9.7-1.6-.8-.8-1.3zM107.3 178.1c1.9.6 1.2 2.5 1.3 4 .1 1.3.5 2.6.8 3.9-2.6-.3-2.4-3.4-2.8-5.3l1.2.1-.5-2.7zM204 178.8c.8.1 1 .5.4 1.2-.8-.1-1-.5-.4-1.2zM205.5 184.9c-.1-2.3-.9-4.8.2-7 .9 2.3.6 4.8-.2 7zM312.8 178.8z"/><path fill="#EDEDED" d="M141.9 185.1c1.8-2.3 3.8-4.4 6.2-6l1.2 1.8c.1.1.2.3.2.5-1.9 1.9-3.9 3.6-5.6 5.8-.6-.7-1.3-1.4-2-2.1z"/><path fill="#414649" d="M151.3 178.9c.1.2.4.5.6.7 1.3.9.9 2.1.2 3.2l-1.4-1.8-1.1.3c-.1-.1-.2-.4-.2-.5.9-.2 1.6-.8 1.9-1.9zM273.9 179.3c.8-.6 1.6.8.9 1.4-.8.5-1.6-.9-.9-1.4zM311.7 179.4c.8-.5 1.6.8 1 1.4-.9.6-1.7-.8-1-1.4zM208.7 179.7c1.5 2.9 3.3 5.6 4.9 8.3-.9 0-1.8 0-2.8.1 0 .3 0 .8.1 1.1-.6-.7-1.2-1.4-1.9-2.1 0 1.2.5 2.3 1.1 3.4l-.8 1.1c.9 1.5 1.6 3.1 2.1 4.9 2.3 1.1 3.5 3.5 4 5.8.2 1.2-.3 2.3-1.3 3 1.4.9 2.8 1.6 4.3 2.2-.5-.9-.9-1.8-1.2-2.8 1.4.8 2.3 2.1 3.2 3.4.6-.3 1.2-.5 1.7-.8.3.5.6 1.1 1 1.6 2.1.4 4.3 1.7 6.5.9l2.1.9c.9 0 1.9 0 2.8.1-1.2-.7-2.3-1.5-3.1-2.7 2.8-.3 4 2.6 6.2 3.6 2.3.4 4.7.5 7.1.4-.6-.5-1.3-1-1.9-1.6-.6.2-1.2.4-1.8.7l-1.6-1.2c.4-.4.8-.8 1.3-1.2l-1-1-1.1 1.2c-.8-1.1-3.3-1.6-2.8-3.2 1.5-.3 3.1.7 4.7 1-2-.8-4.4-1.2-5.4-3.3-2.2-4.1-5.4-7.7-6.6-12.2 2.7 1.3 3.4 4.5 5 6.8 1.4 2 2.6 4.4 4.5 6-2.8-5.1-6.5-9.6-8.4-15.2 1.7-.1 2.1 1.6 2.7 2.8 1.7 3.8 3.9 7.3 6.4 10.6l-.4-2.4c1.6.9 3.1 1.9 4.6 2.9l-3.6-.2c3.1 1.5 6.6 1.8 9.4 3.9-3.6.7-6.5-1.8-9.9-2.4 1.7 1 3.6 1.4 5.3 2.3l.5 1.2-2.1.1c.3.5.7.9 1.1 1.4 1.2-1.9 3.5-.1 5.1.3 0 1.3 0 2.6.2 3.8l.1.8c-3.7-.1-7.4.1-11.1-.3-5.9-.8-11.8-1.8-17.4-3.6-4.5-1.8-8.9-3.7-13.3-5.7.8-1.5 1.1-3.2 1.4-4.9l-2.8-.2c-.4 1.9-1 3.8-2.7 4.8.1-2.4 0-5 1.3-7.2l.9-.1 2.9-.2-.5-3.3c.7-1.5.2-3.2-.1-4.8l1.7.7c-.4-2.2-.9-4.4-1.2-6.6.7.9.9 2 .9 3.2l2.2 2c.2-.4.7-1.2 1-1.6-1.7-2-2.9-4.1-3.5-6.5zM301.2 180.1c.4-.3 1.3-.8 1.7-1l.9 3.7-.8 1.3.6 1.5c.4-2.2.2-4.4-.1-6.6 1.8 1.6 2.5 4 3.2 6.3l-1.5-.5c.5 1.6 1 3.2 1.9 4.7-.4-1.4-.8-2.7-1.1-4.1 2.8.9 1.9 4.3 3.4 6.3 1.4 2 2.7 4.1 3.7 6.4l1.4-.6 1.9 1.8c-1-1.2-1.9-2.5-2.7-3.9 1.3-3-1-5.6-1.8-8.3 1.9 1.1 2.9 3.1 3.6 5.1l.3-2.1c1.7.9.8 3.2 1.4 4.8.2-1.6.3-3.2.5-4.9 1.7 2.4.3 5.5.7 8.2 1.1-3.1.7-6.4.2-9.5.8.9 1.5 1.8 2.1 2.8l1.6-1.5c.1 2.7-.4 5.4-.4 8.1.9-2.9.9-5.9.9-8.9.6.7 1.6 1.3 1.4 2.4-.3 2.9-.5 5.8-1.1 8.7h.6c.3-3.5.8-7.1 1.3-10.6 1.3 1.1 1 2.8.8 4.2-.3 1.7-.5 3.5-.6 5.2.3 0 1-.1 1.4-.1.5-1.6.8-3.3 2.1-4.5.1 1.9 1.1 5.3-1.6 5.7 2.7.2.5 3.3-.4 4.5v1.8l-1.6-.5c0 1.2.1 2.4.4 3.6 2.7 1.2 5.4 2.5 8 3.9l-2.5-2.6c-2.3 0-4.6-1.1-5.7-3.2.5 0 1.4.1 1.8.1.2-1.3.4-2.6.7-3.8.8 1.5 1 3.5 2.5 4.5.7.5 1.6.5 2.4.7l-.5-2c1.4.8 2.4 2.2 3.3 3.5.7.1 1.4.2 2.1.4 1.3 1.3 3.1 1.8 4.8 2.2l-2.5-2.7-1.7.5c-.5-.7-.9-1.4-1.4-2.2-.5.1-1 .2-1.4.3-1.6-1.5-3.2-3.1-3.6-5.4.1-2.6 1-5.2 1.8-7.7l1.1-.5c-1.2 2-2.1 4.3-1.3 6.6.2-1.1.3-2.1.5-3.1l1.6 2.2.3-2.6c.2 1.1.6 2.2 1.2 3.2.3-.7.6-1.4.8-2.2l-.9 4.9c.3.2.9.5 1.2.6 1.1 2.1 3 3.7 4.9 4.9.3-.1.9-.4 1.3-.6 2.5 1 5.2 1.8 7.1 3.7 2.6 2.6 6.3 4 8.8 6.7.6 1-1.5 1.2-1.2 2.2-.1 1.1.6 1.9 1.5 2.5.4-.7.9-1.4 1.3-2 .3.8.5 1.7.7 2.6.8.1 1.6.3 2.5.3l1.5-.4c.4 1.3.6 2.5.9 3.8.6.1 1.2.2 1.8.4l.5-1.5c-.4.1-1.2.2-1.6.2l-.3-2.1 2.2.1c.6 1.5 1.5 2.8 2.6 3.9.4-.4.8-.8 1.2-1.1 1.3 1.3 2.4 2.8 3.3 4.4-.8.2-1.7.5-2.5.8.6 1.6 1.1 3.3 1.5 5-2.6-2-4.3-4.9-7.4-6.3.9 1.8 1.8 4 4 4.2 2.1 1.9 4.5 3.5 6.7 5.3-1 1.6-1.3 3.5-.3 5.2.4-1.2.7-2.4 1.2-3.5 2.5.3 1.9 2.9 1.6 4.6l1.9 2.3c-.1-.5-.3-1-.4-1.6 2.1-5.4 2.2-11.5 1-17.1-2.5-4.1-6.8-6.5-10.8-8.7-1.2-.7-2.6-.6-3.8-.5.7-.1 1.5-.2 2.3-.3 0-.8-.2-1.6-.6-2.3-.8-.3-1.6-.3-2.4-.4-3-.5-4.9-3-7-4.9-2.4-1.2-4.1-3.4-6-5.3-2.5-2.6-4.4-5.8-5.6-9.2l-.9.1c-1.1-1.2-1.9-2.6-3.1-3.7-2.5-2.1-4.6-4.6-6.6-7.2-.5-.8-1.6-1.8-.9-2.9 1.6.6 2.4 2.2 3.8 3.1 0-1-.4-1.9-.7-2.9l1.8 2.1c-.1-1.3-.4-2.7-1-3.9l1.2 1c.2-.3.7-1 1-1.3 1.2.7.7 2.8 1.6 4l.3-2.1c1.1-1.2.6-2.7.4-4.1l1.6 1.1-.3-2.4 1.6 2.2.9-.3c-1.1 2.6-.7 5.6-1.9 8.1-.4 1.4-1.6 2.9-.7 4.4.9 1.8 2.4 3.1 3.6 4.6 1.5 1.8 2 4.2 3.5 6.1 3.9 4.8 8.6 8.8 13.5 12.4.8.6 1.9.6 2.8.9.5.8.9 1.7 1.8 2.2 3 1.9 6.2 3.7 9.2 5.7 1.5.9 1.7 2.7 2.3 4.2.6 2.1 1.9 4.1 2.2 6.3 0 3.6-1.1 7.1-1.8 10.6-1.1 7-1.4 14-2.1 21-.2 2.8-1.1 5.5-1 8.4-.1 2.3.4 4.7-.3 6.9-1.8 1.4-4.1 2.1-5.8 3.7-1.5 1.5-3.3 2.7-5.2 3.7.1-1.1 0-2.2-.3-3.3-.5 1.5-1 3.1-2.2 4.3-.8-.8-1.5-1.7-2.2-2.5.8.2 1.7.3 2.6.5-.9-.6-2-1-2.3-2.1 2.1-1.4 4.6-.5 6.9-.4 2.5-1.4 4.3-3.8 7.1-4.8-.3-.9-.6-1.8-.9-2.6.3-.2 1-.5 1.4-.7l-1-1.2c1.5-1 .7-2.9.9-4.4.3-3.4 1-6.7 1.4-10.1.2-2.1-.2-4.3.3-6.4.4-1.9.6-3.9.8-5.9l-1.7-1.8-1.3-.3c0-1-.1-2.1-.2-3.1-.7 1.1-1.4 2.2-2.1 3.4-.9-1.2-1.4-2.6-1.3-4.1h-.5c.4 1.6.2 3.3-.5 4.8l.5.7c.9-.1 1.7-.2 2.6-.4.3.7.5 1.5.8 2.3.5-.6.8-1.4 1.6-1.6.5.8.8 1.7 1.2 2.6h-4l2.4 2.6c-.4.1-1.2.2-1.7.2-.5 2.3 1.2 3.9 2.8 5.4-1.2-.8-2.4-1.7-3.5-2.6.7 1.3 1.2 2.7 1.6 4.1l-1.6-.7c.9.8 1.8 1.6 2.8 2.2-.9.5-1.6 2-2.7 1.7-.4-.9-.7-1.9-.9-2.9-.5-.2-.9-.5-1.3-.7l.3 2.1-.6.9c.8.7.6 1.5-.1 2.2.1.1.4.3.6.4.7-.4 1.2-1.7 2.1-1.2.3.5.6 1.1.9 1.7-1 .2-2.1.6-3.1.9l.4 1.2c-.8.8-1.5 1.6-2.3 2.5.1.3.4.9.6 1.2-1.2-.1-2.4-.1-3.6-.1.2-1.3 1-2.2 2-2.9.4-2.6.8-5.2.8-7.8.1-6.5.6-13 .1-19.5-1.6-3.6-4.2-6.8-6.6-9.9-1.9-2.8-5.4-3.6-8.2-5.2 1.6-.8 2.9-2 4.2-3.1-.7-.7-1.3-1.4-1.9-2-1.6 1.7-4.1 2-5.6 3.8.4.4 1.1 1.1 1.5 1.4-1.5-.9-2.2-2.7-3.8-3.5-8.8-5.1-18-9.6-27.4-13.5-2.9-.7-4.7-3-6.9-4.8-1.3-1.2-3.2-.7-4.8-.7-.4-.2-.8-.5-1.1-.7-1.6.8-3.4 1.5-5.2 1.9 0-.5.1-1.4.2-1.9-.9 1.4-2.1 2.6-3.4 3.6 1.1-.3 2.3-.6 3.4-.7 0 .2.1.7.1 1l-3.6 1.5 4.1-.6-.3 1.7c.3 0 .9.1 1.2.2-2.9 2.4-6.6 3-10.2 3.7l2.2-2.7c-1 .6-2.7 2.4-3.4.5.3-.7.7-1.4 1.1-2.1-1.2 1.4-3 1.5-4.8 1.3.7-1.3 2-1.7 3.4-1.8.4-.4.9-.9 1.4-1.3-1.9 1.2-4 1.5-6.2 1.7.3.4.6.8.9 1.3-.3 2.6-.5 5.2-.3 7.8.8-1.5.5-3.3.6-5 1.1.1 2.2.2 3.2.3-.7.7-1.4 1.4-2.1 2l2-.2c.4-.8.5-1.7.8-2.5 1.9 1 .2 3-.4 4.3-.9 1.3-.5 3.3-2.2 3.8l-.2-2.8c-1 2.8.5 5.6-.1 8.4h-2c-.1-2.3.2-4.6.3-6.8-1.6 3.6-1 7.7-1.2 11.6.9-1.2 1.7-2.4 3-3.2l-.1 2.3c-.7 1.1-1.1 2.4-1.1 3.7.9-.2 1.8-.4 2.8-.6 0 1.8-.1 3.5-.2 5.3 2.8-2.4.7-6.7 2.6-9.5 1.1-1.6 2.2-3.1 3.2-4.7l-.8-1.8c.4.1 1.2.2 1.6.2-1.3 2.6-1.3 5.6-2.1 8.4.5.5 1.2 1 .8 1.8 0 .8-1.8 1.2-1.8.2.2-1.5.5-3.1.3-4.7-1.9 1.3-1.9 3.8-1.8 5.9.7.7 1.6 1.1 2.5 1.5-.2.9-.4 1.8-.5 2.7l1.6-.4c-.4 2.2-1.7 4.3-1.7 6.6l-.8.7v4.6c-.5 0-1-.1-1.4-.1-.5.6-1.1 1.3-1.5 2 .1 3.2 1.1 6.7-.6 9.8-1 .4-1.5 0-1.5-1.3l-.5.1c.4 1.5.9 3 1.5 4.4.7-.2 1.4-.4 2.1-.7-.1 1.3.3 2.8-.8 3.9-.1-.6-.3-1.8-.5-2.4-.3 1.4-.5 2.7-.7 4.1l.6-1.6 1.3.2c.3-1.3 1.1-2.5 1.9-3.5.4-1.3-.8-3.2.8-4l1.6-.4-1.9 12.3c-.7 7.9-2.6 15.8-2.3 23.7 0 2.5 1.1 5 .8 7.5h-.6c-2.9-5.9-1.2-12.6-1-18.9.1-1.7-1.9-2.2-3-2.9l1.5 1.9-1.2.7c.1.2.4.7.6.9l-.8 1.1c.1.3.4.9.5 1.1l-2.2 3.5-1.5-1.4c-.3.7-.7 1.4-1.1 2.1-.1 2.9-2.4 6.1-.4 8.8-.1 1.8.7 3.5 1.5 5.1-2.7-.3-3.4-3.3-4.1-5.5-.1-1.6.5-3.2.5-4.8.1-5.8 1.9-11.4 2.3-17.1.2-2.4 0-5 1.1-7.3-1-4.1-.1-8.3.5-12.4 1.1.4 2.2.9 3.4.9.5-.7.6-1.6.9-2.4-1.3-.5-2.5-1.2-3.6-1.9l-1.7.6c-.5-5.4-.1-10.7.3-16-.2-4 .6-7.9.5-11.8 0-4.5.2-9.1.4-13.6l-.1-10c0-.9.9-1.3 1.3-1.9.3 1.5.9 2.9 1.8 4.2l2.8-.5c1.8-.5 3.7-.9 5.2-2l-2.1.8-1.2-.1-2.3 1.1-.7-1.5 1.2-.4-.6-.4c-.7.3-1.4 1.3-2.3 1-.4-.8-.8-1.6-1.1-2.4.8-.2 1.6-.3 2.5-.5l1.6-1.8c.1.8.2 1.6.3 2.5l.8-1.1 3.9-.5c-.8-1.9-1-3.9-1.1-5.9-.3 1.9.9 4.8-1.3 5.8.1-2.8-.6-5.5-.3-8.3.5-.8 1.6-.7 2.4-.8l-1.3-.8c.8-2.3 1.1-4.8 1.6-7.2 1.7 1.1 1.3 3.9 1.9 5.7l1.8-.9.3 1.7c.6-1.1 1.2-2.3.5-3.6l-.1 1.6h-2.4c-.3-1.3-.6-2.6-.6-4l1.5 1.6c-.4-1-.7-2-1-3-1 0-2-.2-3-.1 0-1.7.1-3.4.2-5.1-.4 3-.7 6-1.7 8.9l-.9.7c0-2.7 1.3-5.4.7-8 0-.9-.7-1.8-.2-2.6-.6-1.1-.1-1.6.4-2.1zM310.5 179.8c.8.4.8.8 0 1.2-.7-.4-.7-.8 0-1.2zM233 180.7c1-.5 1.8 1.7.6 1.9-.8-.2-1.2-1.3-.6-1.9zM265.4 180.6c.8.1 1 .5.5 1.2-.9-.1-1-.5-.5-1.2zM291.9 182.2c.6-.8 1.4-1.6 2.3-2.1 0 .5.1 1.4.2 1.9-.8.2-1.6.2-2.5.2zM263.7 181.2c1.1-.6 1.9 1.8.6 2-.8-.1-1.2-1.4-.6-2zM193.4 181.6c1-.3 1.3 0 1 1-1 .2-1.3-.1-1-1zM219.5 181.7c.7-.5 1.4.8.9 1.3-.8.5-1.5-.8-.9-1.3zM311 184.1c-2.1-.5.2-3.1 1.6-3-.4.8-.1 3.2-1.6 3zM211.8 182.3c.7-.5 1.5.7.9 1.3-.7.4-1.5-.8-.9-1.3zM276.6 182.5c1.8-.1 3.6-.1 5.5-.2-.4.5-.8 1-1.2 1.4l1.2 1.1h-1.2c-.8-1.8-3.6-.5-4.3-2.3zM186.3 183c.8-.3 1.1 0 .9.9-.8.2-1.1-.1-.9-.9zM172.3 183.4c.8-.2 1.1 0 .8.9-.8.2-1.1-.1-.8-.9zM188.1 183c.9 1.9 1 4 1 6.1-1.9-1.4-1-4.2-1-6.1zM254.9 183.6c.7-.4 1.3.9.8 1.4-.7.5-1.3-.9-.8-1.4zM318.3 183.6c.7-.5 1.5.7.9 1.2-.7.5-1.5-.7-.9-1.2zM194 185.4c.5-.5 1-1 1.5-1.4l-.1 3c-.5-.6-.9-1.1-1.4-1.6zM83.4 185.3c.8-.6 1.7.8.9 1.3-.7.6-1.6-.7-.9-1.3z"/><path fill="#EDEDED" d="M205.6 185.4l1.3.1-.9.3c-.1.7-.1 1.4-.2 2.2.6 1.7 1.3 3.5 1.7 5.3.2 1.1.4 2.2.5 3.3l-2.9.2c-.2-2.7-1.2-5.2-2.1-7.8.9-.3 1.8-.6 2.6-.9v-2.7z"/><path fill="#414649" d="M336.6 185.5c1.9.6 1.1 2.7 1.2 4.2-1.7-.7-1.1-2.7-1.2-4.2zM196.4 186.4h2.1v1.4h-2c-.1-.3-.1-1-.1-1.4zM242.1 186.3c.8-.6 2.4.3 2 1.3-.8.5-2.4-.3-2-1.3zM333.2 186.3c.7 1.1 2.5 3.3 0 3.6 0 1.1 0 2.1-.2 3.2-.6.5-1.2.9-1.8 1.3 1-2.6 1.6-5.3 2-8.1zM309.5 187.1l1.7-.8c.2 1.1.6 3.8-1.4 3-.1-.6-.8-1.5-.3-2.2zM95.2 187.6c1.9.1-.9 1.8 0 0z"/><path fill="#EDEDED" d="M138.2 189.8c.6-.8 1.2-1.6 1.9-2.3.9.3 1.6 1 2.4 1.6-1.1 1.5-2.2 3.1-3 4.7l-2.9-1.3.5-.9c.3-.6.7-1.2 1.1-1.8zM251.1 187.5l2.7.1c.4 2.8 0 5.6-.1 8.4h-2.8c0-2.9.1-5.7.2-8.5zM292.3 187.6c.8 0 1.7.1 2.5.2l.1 2.1 2.2 1.6-.5 1.2c.4-1.6-1-2.2-2.2-2.8l-1.9 6.2c-.9-.2-1.9-.5-2.8-.8 1-2.6 1.5-5.2 2.6-7.7z"/><path fill="#414649" d="M327.7 187.6c.8-.6 1.7.7 1 1.3-.8.6-1.7-.8-1-1.3zM278.9 189.6c.4-1.5 2.5-1.4 2.7.1-.9 0-1.8 0-2.7-.1zM89.3 188.6c1.1 1.1 1.2 2.8 1.5 4.2.5 2.4 1.5 4.6 1.8 7.1-1.5-1.4-2.5-3.2-3.5-4.9 0-2.2 0-4.3.2-6.4zM105.4 188.7c1.6 1.7 1.2 4.2 1.3 6.4.1 3.6-.8 7.2-.4 10.7.2 2.2-.2 4.4-.4 6.5-.8-.3-1.6-.6-2.3-.9.8-2.6 1.3-5.3 1.5-8-.3-4.9-.1-9.8.3-14.7zM299.4 196.2c.7-2.5 1.1-5.3 2.7-7.4.5 2.9-.9 5.6-1.7 8.3-.3-.3-.8-.7-1-.9zM329.6 188.9c1.2 1 1 2.6 1.1 4-2.2-.2-1.1-2.6-1.1-4zM328.2 194.9c-.2-1.8-.9-3.8.4-5.4.3 1.8.8 3.8-.4 5.4zM197.1 190.6c.8-.6 1.6.8.9 1.4-.8.5-1.6-.9-.9-1.4zM285.7 190.4c.8-.7 2.2.6 1.4 1.4-.7.8-2-.5-1.4-1.4zM326.6 191.2c.9.1.8 2.3-.1 2.4-.4-.7-.4-1.7.1-2.4zM193.4 191.5c1 1.9 1.3 4.1.9 6.2-.6-2-.9-4.1-.9-6.2zM223.2 192c1.8.6 3.4 1.5 5 2.6-.2.5-.4 1.1-.7 1.6-1.5-1.3-3.5-2.2-4.3-4.2zM136.5 192.5l2.9 1.3c.2.1.6.3.9.4l-1.1.5c1.4 2 1.7 4.5 1.8 6.9-.8-.9-1.6-1.9-2-3-.9-2.1-2.1-3.9-2.5-6.1zM181.5 192.9c.9-.3 1.3 0 1 1-.9.3-1.3 0-1-1zM282.4 193.5c1.1-.1 2.9-.7 3.3.9-1.2-.1-2.4 0-3.3-.9zM153.4 194c.8-.3 1.1 0 .9.9-.9.2-1.2-.1-.9-.9zM214 193.9c1.3 1.3 2.5 2.7 3.8 3.9-.4.4-.8.8-1.1 1.2-.5-1.9-1.6-3.5-2.7-5.1zM335.4 193.9c1.1-.4 1.4 1.4.4 1.6-1.2.5-1.4-1.3-.4-1.6zM155 194.4c1 .2 2 .4 2.9.7 0 .6.1 1.8.1 2.3-1.4-.5-3-1.2-3-3zM279.5 194.6c1.2.1 2.4.2 3.4 1-1.3.2-3 .6-3.4-1zM329.6 194.7c1.3-.8 1.3 1.9.2 2.1-1-.2-.7-1.6-.2-2.1zM94.2 195l1.4.9c.1 1.8-.9 3.4-1.1 5.1l-.2 7.2c-.3-3.3-.1-6.5 0-9.8l1.1-2c-.4.1-1.2.3-1.5.4 0-.5.2-1.3.3-1.8zM228.5 194.8c2.4 1.7 3.1 4.7 4.9 6.9.7 1.2 2.2 2.4 1.8 3.9h-.5c-2.4-3.4-5.4-6.6-6.2-10.8zM241.3 194.9c2.4.5 4.6 1.5 6.8 2.7-2.4-.3-5.6-.3-6.8-2.7zM135.6 195.9zM238 196.1c1.4.7 2.1 2 2.4 3.5-1.9-.2-2.1-2.1-2.4-3.5zM102.9 197c.9-.7 1.8.9.9 1.5-.8.7-1.7-.9-.9-1.5zM345.2 196.5c1.8 1.5 2.8 3.6 3 5.9-2-1.3-2.6-3.7-3-5.9zM269.9 198.6c1-1.9 3.5-.7 4.2.8-1.4 0-2.8-.2-4.2-.8z"/><path fill="#969797" d="M250.3 198c1 .3 2 .5 3 .9l-2.8-.3c-.4 2.6-.8 5.1-1.1 7.7.4.1 1.4.4 1.8.6-.8.2-1.7.1-2.5-.2.3-1.5.6-3 .8-4.6-2.7-.5-5.3-1.4-7.8-2.6 2.8-.1 5.2 1.5 7.9 2.2.2-1.3.5-2.5.7-3.7z"/><path fill="#EDEDED" d="M289.1 198.2c.9 0 1.9.1 2.8.2l-.3 1.3c-.6 2.4-1.4 4.8-2.3 7.1l-2.4-1.1c0-.2.1-.7.2-.9l.5-2h-2.7l3-.3c.4-1.4.7-2.9 1.2-4.3zM250.5 198.6l2.8.3-.3 1.3c-.5 2.3-.9 4.6-.9 6.9-.2-.1-.7-.2-.9-.2-.5-.1-1.4-.4-1.8-.6.3-2.6.7-5.2 1.1-7.7z"/><path fill="#414649" d="M253.7 198.2c2.1-.2 3 1.9 4.3 3.1 2.3 2.4 4.9 4.6 7.7 6.6 1.5 1.1 3.5 1.2 5.3 1.8.8-.5 1.4-1.1 1.8-2 .6.4 1.1.9 1.7 1.2 2.2-.1 4.3-.7 6.4-1-.4-.2-1.3-.7-1.8-1 .6-1.1 1.4-2 2.4-2.7l-.6 2.6 1.5 1.2c-.1-.7-.3-1.4-.4-2.2 1.8 1.5 4 1.5 6.1.7-1.6-.5-4.1.2-4.8-1.6 1.1-.9 2.6-.3 3.8-.2 0 .2-.1.7-.2.9l2.4 1.1c.9-2.3 1.7-4.7 2.3-7.1.2.4.7 1.2 1 1.6.1.4.3 1.3.4 1.8l.9-3.2c1.3 1.5.4 3.4 0 5 .6 0 1.2 0 1.8.1-.5 1.6-2.3 1.6-3.7 1.8-.6.6-1.2 1.4-2.1 1.6-6 1.6-12.3.7-18.2 2.5-6.4 2-13.1 2.1-19.6 2.7-.1-.3-.2-.8-.2-1.1 0-.6-.1-1.8-.2-2.4.9.6 1.7 1.3 2.7 1.8 1.2.1 2.3-.2 3.5-.4-2.1-1.2-4.1-2.6-5.7-4.4 0-2.3.4-4.6.9-6.9l.2 3.6c1.4 1.2 2.9 2.4 3.3 4.2-1.5-.8-2.8-1.8-4.3-2.7 2.1 2.4 4.9 3.9 7.1 6.1 1.1-.7 2.4-.6 3.6-.2.3-.3.7-.6 1-.8l-1.2-2c1 .4 2.1.9 3.1 1.4-2.2-1.8-4.6-3.5-6.7-5.4-2-1.8-4.5-3.4-5.5-6.1z"/><path fill="#EDEDED" d="M205.6 199.3l2.8.2c-.3 1.7-.6 3.4-1.4 4.9-.9.9-1.9 1.6-3 2.3-.4.1-1.3.3-1.7.3l-1 1.6-.7 1.8-1.3.8c-.7 1.4-1.3 2.9-2.4 4 .6-1.1 1.2-2.1 1.8-3.1l-1.3-.1.8-.1c.1-1.3 1.4-1.4 2.3-1.9.6-1.2 1.1-2.5 1.7-3.8v-1.7l.7-.5c1.7-.9 2.3-2.9 2.7-4.7z"/><path fill="#414649" d="M197.7 204.1c.6-1.5.5-3.6 2.1-4.6-.5 1.7-.4 3.8-2.1 4.6zM298.9 205.9c.2-2-.7-4.7 1-6.1 0 2 1 4.7-1 6.1zM339.9 200.2c2.7 1.8 3.8 5 5.5 7.6-3.6-.5-4.5-4.7-5.5-7.6zM218.2 201.3c.8-.6 1.6.8 1 1.4-.9.6-1.7-.8-1-1.4zM219.9 201c1 1.1 2.7 2.1 2.5 3.8-2.1.6-2.1-2.5-2.5-3.8zM225 200.5c2.4.8 3.1 3.6 4.7 5.3.1-.6.2-1.8.2-2.3 1.3 1 1.5 2.6 1.8 4.1-1.4-.4-3.1-.6-4-1.8-1.2-1.7-2-3.5-2.7-5.3zM147.4 202.3c2.3 1.4 3.5 3.8 5.3 5.7 2.6 2.7 4.2 6.2 7.3 8.3l-1.2 1.2c-1.7-2-4.3-3.2-5.3-5.7-.9-2.5-3.4-3.7-4.7-5.9-.7-1.2-1.1-2.4-1.4-3.6zM143.1 203.2c1.5.5 2 1.9 1.9 3.4-1.1-.9-1.7-2.1-1.9-3.4zM268.7 203.4c.7-.5 1.8.6 1.4 1.3-.7.5-1.8-.5-1.4-1.3zM272.8 203c2 1.1 3.9 2.2 6.2 2.4-1.1.9-2.6 1.1-4 1.3-.7-1.3-1.5-2.5-2.2-3.7zM223.1 203.5c1.8.9 2.9 2.5 3.7 4.3h-2.2c-.7-1.4-1.2-2.8-1.5-4.3z"/><path fill="#EDEDED" d="M191.5 206.9c2.7-.5 5.4-1.3 8.1-1.5.3.8.9 2.1.2 2.8-2.6.6-5.2 1-7.8 1.5-.1-1-.3-1.9-.5-2.8z"/><path fill="#414649" d="M102.3 205.8c.4-.1 1.1-.4 1.4-.5.2 3.2-1.1 6.2-1.7 9.3 0 .7.7 2.3-.5 2.3-1.6.2-1.5-1.8-1.4-2.9.6-2.8 1.6-5.5 2.2-8.2zM142.7 205.3c1.1 1.1 2.5 2.4 1.9 4.1-.8-1.2-1.5-2.6-1.9-4.1zM161.1 205.5c1.1-.3 1.6.7 2.1 1.3 1 1.4 2.6 2.1 3.9 3.1-.5 1.1-1.9.9-2.5.1-1.4-1.1-3.5-2.3-3.5-4.5z"/><path fill="#171617" d="M299.9 207.1c1.1.3-.3 2.1-1.1 1.5-.3-.7.5-1.4 1.1-1.5z"/><path fill="#EDEDED" d="M180.6 210.2c2.6-1.3 5.4-1.9 8.1-2.7.3.9.6 1.8 1 2.7-2.7.9-5.4 1.6-8.1 2.4-.4-.8-.7-1.6-1-2.4z"/><path fill="#414649" d="M227.6 207.1c2-.5 3.5 1 4.2 2.7-1.8-.1-3.4-1.1-4.2-2.7zM235.4 207.7c1.3.8 3.9.9 3.7 3-1.1.3-2.2-.2-3-.9-.2-.6-.5-1.6-.7-2.1z"/><path fill="#EDEDED" d="M248.6 209.4c.9 0 1.9.1 2.8.2.1 1 .2 2 .4 3l.2 1.1c-1.2.3-3 1.6-3.3-.4-.1-1.3-.1-2.6-.1-3.9z"/><path fill="#414649" d="M89.5 209.5c2.4-.2 1.5 2.4 1.7 3.9-1.9-.4-1.5-2.5-1.7-3.9zM311.8 211.1c.9-.4 1.8-.8 2.7-1.3l-5.1 19.8c-.8 4.7-2.1 9.3-2.3 14-.1 2.5-1 5-.9 7.5.2 3-.6 5.9-.9 8.8l-.2-.1c-.7.4-1.4.9-2.1 1.4.9-2.7 1.1-5.4 1.3-8.2l.5 1.9c1.9-9.1 2.4-18.4 4.6-27.4.4-2.2-.1-4.6.8-6.7 1.1-2.9 1.7-6 2.2-9-.3-.1-.5-.5-.6-.7zM198.5 215.6c1.7-1.6 2.5-4 4.4-5.5-.7 3-1.3 6-2.1 8.9-2 4.4-2.9 9.2-3.5 13.9-.3 5.1.3 10.3-1.2 15.3-1.1 3.3-2.1 6.7-3.7 9.8-1.1 2.1-1.4 4.6-.8 6.9l-1-1.6-.9.4h-.2l1.1-1.1c1.2-3.2 1.3-6.8 2.9-9.9 1.7-3.2 1.9-6.8 2.4-10.3.2-1 .1-2-.4-2.8-.5 1.6-.7 3.4-1.8 4.8.5-2.2 1.3-4.4 1.7-6.7l1.3-9.5-.9 1.7-1.3-.5c.3-1.9 2.7-2.6 2.9-4.6.5-2.9 2.1-5.5 2.5-8.4-1.1.9-1.8 2.1-1.4 3.6l-2.2.6.7 2.7-2.1-2-.7 1.9-2.4-1.7v-.8l-.9-.5c1-.2 1.9-.4 2.9-.5-.6-.5-1.2-1-1.7-1.5 1.5.2 2.7.9 3.9 1.8.5-1.7 1.2-3.2 2.5-4.4z"/><path fill="#EDEDED" d="M170.9 216.4c2-2.1 4.4-3.9 7-5.1.6.7 1.1 1.5 1.6 2.3-1.8 1-3.5 2.2-5.1 3.5 1.7.9 3.5 1.5 5.3 2.2-1.8-.4-3.5-1.1-5.2-1.9-.6.4-1.2.6-1.8.8-.7-.6-1.2-1.2-1.8-1.8z"/><path fill="#414649" d="M142 211.9c1-.3 1.7 1.2 1.3 2-1 .5-1.9-1.2-1.3-2zM138.9 213c2 .1-.9 1.8 0 0z"/><path fill="#171617" d="M342.8 213c2.4 1 5 1.5 7.5 2.5 0 .4.1 1.3.2 1.8 2.5-1.2 4.8.6 6.5 2.2 1.1.9.8 2.3.6 3.5-.4-.8-.7-1.6-1.1-2.5-.7-.1-1.3-.2-2-.2-.9-.8-1.8-1.8-3-2.3-3.2-1.2-6.1-3-8.7-5z"/><path fill="#414649" d="M142.9 215l.8-.2c1.7 2.4 3 5.1 3.3 8.1-2.5-1.8-3.2-5.1-4.1-7.9zM149.6 215.5c.7-.6 1.8.7 1 1.3-.7.6-1.8-.7-1-1.3zM296.4 215.4c1.4-.1.9 1.8-.3 1.7-1.4.2-.7-1.7.3-1.7zM140.2 216c1.1-.6 1.8 1.9.6 2.1-.8-.3-1.2-1.5-.6-2.1zM303.8 217.8c2.1-1 4.4-1.6 6.7-1.9-1.1.8-2.2 1.5-3.3 2.2.5.1 1.4.3 1.8.4-1.8 1.3-3.9 2.5-6.2 2.3.8-.8 1.8-1.3 2.9-1.7-.7-.3-2.9-.2-1.9-1.3zM163.7 216c2.9.8 5.3 2.9 8.1 3.9-1-.2-1.9-.4-2.9-.5-.7 2.8-1 5.7-.9 8.6.6-.1 1.9-.2 2.6-.3 0-2.2.3-4.4.9-6.5 1.8 1.9 4.9 2.8 5.6 5.6-1.3-.6-2.5-1.4-3.6-2.2-.2 0-.7.1-.9.2-.4-.4-.8-.8-1.2-1.1-.1 1.4-.1 2.8 0 4.2-.6.2-1.2.4-1.8.7 1 1.6 2.1 3.1 2.6 4.9 1.2 3.7 1 7.6 1.7 11.4.3.2 1 .5 1.3.6l-.7-2.6c1.2.9 2.1 2.2 2.7 3.6-.7-.4-1.3-.9-1.9-1.4l-.3 1.5-1.2-1.4c-.9 2.6-.3 5.3-.5 8 .1 4.3-1 8.6-.4 12.9.6-1.4 0-2.9.3-4.4.3-1.4.5-2.8.7-4.2l2.1-.9c-.8-1.7-1.5-3.4-1.8-5.3 1.2 2.6 2.5 5.3 1.7 8.2l1.2.7 1.6-1.2.4 2.7c.6-1.1 1.5-2.1 2.4-2.9l.8 3c-.5-.1-1-.2-1.6-.2 0 1.4 0 2.8-.1 4.3-.6-.6-1.2-1.3-1.9-1.9-.1.9-.2 1.9-.3 2.9 1.4 0 2.6-.6 3.5-1.7-.2-.9-.4-1.7-.6-2.5l.7 1.2c.7-1.2 1.5-2.4 2.4-3.5.8 0 1.6 0 2.5.1.1 1 .2 2.1.1 3.1-.6.4-1.3.7-1.9.9l.9.9c-.9.4-1.9.7-2.9 1.1l.1.7c-.3-.1-1-.4-1.4-.5l-1 3.1-.3-2.6c-1.9 0-3.8.1-5.6-.5.3 0 .8 0 1.1-.1l-.8-3c-.2 1-.4 2-.5 3l-1.3-.4c-.5.8-.9 1.7-1.3 2.5.4 3.2 1.1 6.4 3 9 .4.1.8.2 1.1.3l2.1 1.1c-.5-1.8-.8-3.6-.8-5.5.7.4 1.4.9 2.2 1.3-.2-1.4-.2-2.9-.8-4.3l-2.9-.2-1.8 2.1-1.6-3.6c2.7 1.1 5.6 1.2 8.4.8l-.4 1.2c.2 1.3.5 2.6.5 4-.5 1.7-1.5 3.1-2.4 4.5l-3-.6c1.5 1.4 2.4 3.3 3.2 5.2.3-.4 1-1.1 1.4-1.4.3 1.7.5 3.5 1 5.2.8-.1 1-1 1-1.7l-.3-8.2 1.8 2.6c.2-1.1.4-2.2.6-3.2.6.9 1.3 1.6 1.7 2.6.2 1.9-.1 3.9-.2 5.8 1.7.7 3.4 1.5 5 2.4-1-3-1.4-6.3-.6-9.5h-1.1c-.1 1-.2 2-.2 3.1h-1.2c-.1-1.7-1.3-4 .6-5.2 1-1.1 1.7-.1 2.4.7l-.4-.8c-.4-.8-.8-1.6-1.1-2.3l2.1.6-1.5-1.4c.3-2 .5-4 .7-6-.2.1-.6.4-.8.6-.1 1.2-.2 2.4-.2 3.6-.5-1.1-1-2.3-1.4-3.4-1 1-1.8 2.2-2.7 3.3l.2-2.2-1.5-.1c2.5-.6 4.8-1.8 7.2-2.9 0 5.3 1.3 10.6.5 15.9-.1 1.4-.5 3-.1 4.4 2.8 7.4 7.8 13.6 11.3 20.6 1.1 2 2 4.2 3.5 5.9.9.1 1.8 0 2.7 0-.7.4-1.4.9-2.1 1.4 3.1 4.2 6.9 8 11.6 10.5 1.4.7 3.2.9 4.4 2.1 1.9 1.9 3.6 3.9 5.4 5.9 1.2 1.4 2.9 2.4 3.5 4.2.1 1.4-1.3 2.5-2.5 2.8-5.8 1.5-11.7 1-17.6.9-3.2 0-6.4-.5-9.5-1-.8-.1-1.5-.6-2.3-1-1.3-.2-2.5-.3-3.7-.6-1-1.2 1.1-1.3 1.8-1.5-2.2.2-4.5.3-6.6-.6l3.7-.6c-2.8-.2-5.6 0-8.3-.4-1.7-1-3.6-1.7-5.7-1.9 2.9-.7 6-.1 8.7-1.4-2.2-1.4-5-.8-7.4-1.4l-.8-1.6h3.2v1.7c2.2 0 4.3 0 6.5.1-.1.3-.2.9-.3 1.3 2.7.4 5.4 1.1 8.2 1.5l-.6 1.4c2.2.1 4.4.1 6.4.8l.9 1.8c2.1-1 4.2.2 6.2.8-.4-2.1-.2-4.2 0-6.2-.4-.8-1-1.4-1.5-2-2.1-.4-4.2-1.8-6.3-.9-1.5-1.2-2.6-2.8-3-4.7-.1.7-.3 2.6-1.4 1.6-1.3-2.9-1.1-6.4-3.3-8.8l.9-2c2.1 2.1 2.7 5.1 3.7 7.8.5-.2.9-.4 1.4-.5l.1-2.1c1.1 1.2 2.2 2.5 3.5 3.6 0-1.2 0-2.3.1-3.5 1.2 1.1 1.3 2.7 1.8 4.2.2-1.4.2-2.8.2-4.2 1.4 2 1.6 4.5 2.5 6.7v-1.7c1.6 1 5.1 1.8 4.2 4.4-.8-.2-1.6-.4-2.3-.5 1.2 1.3 3 1.6 4.6 2.2-2.3 1.6-2.5 4.3-3 6.8l1.9-1.2-1-1.5c1.6-1.2 3.2-3.5 5.4-2.9-.2 1.3-.7 2.5-1.1 3.7-.8-.2-1.6-.5-2.3-.7.7.4 1.4.8 2 1.2.2.5.5 1.1.8 1.7.2.1.7.4 1 .6-.7-.9-1-2-1.2-3.1.5 0 1.4.1 1.9.2l.4 2.1c.4 0 1.1.1 1.4.1l1-2.4c.9.8 1.8 1.7 2.7 2.6l2.4-.8c-1.3-2.4-2.6-5.2-5.4-6.2-1 .6-1.9 1.5-3.2 1.7-.6-1.7 1.6-1.9 2.4-3-1-1.6-2.6-3.3-4.6-2.5-1.5-1.4-2.9-3.1-5-3.7-1-.2-2 .1-3 .2-.7-3.5-2-7.2-4.7-9.6-1.1-.8-1.6-2.1-2.1-3.3-.6.5-1.2 1-1.7 1.4l.5.8c-.7-.2-1.4-.5-2.2-.7 1 2.2 3.6 2.8 5.2 4.5-1.5-.6-2.9-1.5-4.4-2.3.6 1.4 1.8 2.3 2.7 3.4-.3.2-.9.6-1.3.8-1.1-1.1-1.9-2.3-2.9-3.5 0-.4 0-1.2.1-1.7-1-.5-2.1-.9-3.2-1.3l1.3-2.1-3.6-2.4c-.4-1.5-.7-3.1-.9-4.7 1.9 1.5 3.5 3.3 5.4 4.9-2 1.2.4 2.5 1.2 3.7l1.7-.3c-.8-.8-1.6-1.6-2.2-2.5l3.4 1.3c-.8-1.6-1.4-3.5-2.8-4.6-1.3-1.1-2.8-2-4.1-3l2-.5c-1-2.1-2.5-4-3.3-6.2-.7-1.7-2.6-2.6-4-3.6 0 .9 0 1.9-.1 2.8l.9.9c-.3.3-.5.6-.8 1 .6.8 0 1.6-.5 2.2l-1.9-.8 2.2 2.3c0-.2 0-.7-.1-1 .7-.4 1.3-.8 2-1.3 1.2 1.2-.2 2.4-1.3 3.1.1.2.3.6.5.8l-.4.9c.8 1 1.6 2.1 2.1 3.2 1.1 2.5 2.9 4.7 3.2 7.5-1.1-.3-1.9-1.1-2.3-2.2-1.1-2.5-3-4.6-4.2-7.1-2.8-5.1-5.9-10-9.2-14.9-1.9-3-4.8-5.2-6.2-8.5-1.4-3.3-4.8-5.2-5.8-8.7-.5-1.2.2-2.5.5-3.6 2.9-9.3 2.9-19.1 2.5-28.8.1-3.7-1.4-7.3-3-10.6-1.3-2.2-2.3-4.6-4.4-6.1-1.5-1-2.9.7-4 1.6-5.7 4.7-9 11.4-12.7 17.6-2.2 4.2-5.4 7.6-8.4 11.1-1.7 1.8-2.9 4-4.8 5.6-1.9 1.5-3.4 3.4-4.5 5.6-.3 0-.8-.1-1-.1-.2.4-.4.8-.7 1.2l1.2.4c-2.3 1.2-4.8 1.5-7.3 1-.1.6-.3 1.9-.3 2.5 1.9.4 3.7.8 5.6.5-1.4 1.6-2.7 3.4-4.5 4.7.4.1 1.1.3 1.5.3-2.1 2.7-4.4 5.3-5.4 8.6-1.3 3.3-.9 6.9-1.7 10.3-.2 1.3-1.8 1-2.8 1.2.3-.6.9-1 1.6-1.2l-2.1-2.5-1.8 1.2.3-3.2c1.2 1 2.7 1.1 4.2 1-1-1-3.8-1.6-2.6-3.5 1.1.1 1.5 1.4 2.3 2.1 1.5-3.7 1.4-7.7 2.4-11.5.3-.1 1-.2 1.3-.2 1.2-2.4 2.8-4.6 4.6-6.6l-3.2-1.2.4-2c-.3-.6-.5-1.2-.8-1.7 1.6.6 3.2 1.1 4.9 1.5.5-1.5 1.2-2.9 2.1-4.2-.5-.5-1-1.1-.6-1.8.5-1.8 1.5-3.4 2.5-5-.6 1.8-1.5 3.6-.8 5.5 2-1.7 3.7-3.8 5.9-5.3 3.6-2.5 6.2-6 9-9.3 2.6-3 3.9-6.7 5.9-10.1l-2-2 2.1.6c1.1-2 3.1-4.2 1.7-6.6-1 1.1-1.5 2.5-1.6 4-1.4-.4-2.9-.7-3.9-1.8-.3-.7.1-1.6.1-2.3-2-1.4-.6-4-.4-5.9 1.1 1.5 1.8 3.2 2.2 5 .5.4 1.1.8 1.7 1.2.5-.7 1.3-1.2 2.1-1.5.3.3.9.9 1.1 1.2.3-1.5.5-3.1.6-4.6.3-.2.8-.6 1.1-.7v-2.2l1.7 1.9 2.9.7c0-.7 0-1.5-.1-2.2-1.7-1.8-2.8-4-3.1-6.4 1.6 1 2.2 2.9 3 4.6l.1-1.6 2.8 2.1c.4-.1 1.1-.3 1.5-.3 1.6.7 2.5 2.7 3.9 3.8.2-1.7.4-3.4.7-5-2.2-1.4-4.1-2.4-5.1-4.2zM190.1 217.2c.5-.6 1.7.2 1.2.9-.6.6-1.8-.2-1.2-.9zM159.5 219.4c.4-.8.8-1.6 1.3-2.3.6 1.1 2.1 1.9 2.1 3.3-1.1.6-2.3-.7-3.4-1zM358.4 217.2c1.9.8 3.7 1.9 5.4 3.1l-1.6 1.6c-1.2-1.7-2.6-3.2-3.8-4.7zM95.1 223.4c.1-2-.4-5 2.1-5.7-.2 2-.5 4.3-2.1 5.7zM139.3 218.5l1.5.1-.8 4.5c-1.3-.8-2.6-1.7-3.8-2.7 1.1.1 2.2.3 3.3.3.3-.7-.1-1.5-.2-2.2zM300.6 218.7l2.3 1.9-2 1.7c-.1-1.2-.3-2.4-.3-3.6zM99.3 219.4l1.3-.3c.3 1.8.2 3.7 0 5.5-1.2 1.8-1.4 4-2.2 5.9-.3.2-1 .5-1.3.6l.4-3.6c.1-2.7 1.6-5.3 1.8-8.1z"/><path fill="#EDEDED" d="M168.9 219.4l2.9.5c-.1.3-.2.9-.3 1.3-.6 2.1-.9 4.3-.9 6.5-.6.1-1.9.2-2.6.3-.1-2.9.2-5.8.9-8.6z"/><path fill="#414649" d="M180.7 220c1.4.2 3.3.2 4 1.7-1.4-.2-2.9-.6-4-1.7z"/><path fill="#EDEDED" d="M363.7 223.6c1.5-1.5 3.3-2.8 5.1-3.9.8.1 1.6.1 2.4.4.3.7.5 1.5.6 2.3l-2.3.3c-1.2.7-2.2 1.6-3.3 2.5l-1.5.4c-.3-.7-.7-1.4-1-2z"/><path fill="#414649" d="M306.6 220.6c.7-.5 1.1-.4 1.2.4-.8.6-1.2.4-1.2-.4zM142.6 221c1 1.2 2.7 2.7 1.8 4.4-.5.7-.6 2.1-1.6 2.2-.2-.3-.6-.8-.8-1l-.5 1.9c.9.7 2.1.6 3.1.4-.3.9-.6 1.7-1 2.5-.4-.8-1.2-1.2-2.1-1.3-1-1.6-1-3.3-.4-5-.9-.1-1.4-.5-1.2-1.5.3 0 .9.1 1.2.2l.4-1.2.8.1c0-.5.2-1.3.3-1.7zM147.8 221.5c1.1.9 3 2.8 1.8 4.1-1-1.2-1.5-2.6-1.8-4.1zM136.7 222.3c1.7-1 .2 2 0 0zM304.4 222.3l3.2.1-3.4 1.9c0-.7.1-1.3.2-2z"/><path fill="#171617" d="M369.5 222.7c1.3-.1 2.7-.2 3.8.5 4 2.3 8.3 4.7 10.8 8.7 1.2 5.6 1 11.7-1 17.1.1.5.3 1 .4 1.6l-1.9-2.3c.3-1.7.9-4.3-1.6-4.6-.5 1.2-.8 2.4-1.2 3.5-1-1.7-.6-3.6.3-5.2-2.2-1.8-4.6-3.4-6.7-5.3-2.3-.2-3.1-2.4-4-4.2 3.1 1.4 4.8 4.3 7.4 6.3-.4-1.7-.9-3.3-1.5-5 .8-.2 1.7-.5 2.5-.8-.9-1.6-2-3.1-3.3-4.4-.4.4-.8.8-1.2 1.1-1.1-1.1-2-2.5-2.6-3.9l-2.2-.1.3 2.1c.4-.1 1.2-.2 1.6-.2l-.5 1.5c-.6-.1-1.2-.2-1.8-.4-.2-1.3-.5-2.5-.9-3.8 1.1-.5 2.1-1.5 3.3-2.2z"/><path fill="#414649" d="M84.8 224.6c-.1-1.7 1.5-1.5 2.7-1.6-.3 2.1-.2 4.2 0 6.3-.7.8-1.6 1.4-2.4 2.1-.4-2.4 0-4.9 1.2-7-.5 0-1.2.1-1.5.2zM89.9 228.1c-.3-2-1-5.6 2-5.6-.2 1.1-.4 2.2-.7 3.3.4-1.3.8-2.7 1.9-3.5 0 2.3-.4 4.7-.7 7-1 0-1.9.4-2.8.8.1-.7.2-1.4.3-2zM176.2 223.6c1.8-.9.1 2 0 0zM191.6 224.9c.8-.5 1.6.8.9 1.4-.7.6-1.6-.8-.9-1.4zM301.3 225.7c1-.8 2.2-1 3.4-1-.4 1.6-2.2 1.2-3.4 1zM100.3 229.3c.8-1.6.5-4.5 3-4.6-1 3.3-2 6.6-3.7 9.7-.5 1.2-1.9 1.1-3 1.2 1.3-2.1 3.2-3.8 3.7-6.3zM136.2 225.4c.6-.7 1.9.2 1.4 1-.6.6-2-.3-1.4-1zM188.7 226.1c.8-.2 1.1.1.9.9-.9.2-1.2-.1-.9-.9z"/><path fill="#EDEDED" d="M356.1 229.4c1.5-1.8 4-2.1 5.6-3.8.6.7 1.3 1.4 1.9 2-1.3 1.2-2.6 2.4-4.2 3.1-.6.1-1.3.1-1.9 0-.3-.2-1-.9-1.4-1.3z"/><path fill="#414649" d="M91.6 231.9c.4-1.8 1.2-3.5 2.5-4.9.5 2.8-.6 5.6-1.6 8.2-1.3 2.9-.4 6.4-2.3 9.1.3 4.1-1.2 8-1.7 12-.3-.1-1-.4-1.3-.6 0 1-.2 2.5-1.6 1.6-.4-2.1 1.4-3.5 2-5.4.9-2.3.9-4.8.8-7.2-.3-1.4.9-2.2 1.6-3.2.1-3.3.9-6.5 1.6-9.6zM135.1 228.8c.8-.6 2.4.4 1.9 1.4-.7.4-2.2-.4-1.9-1.4zM180.1 231.3c.1-1 .5-1.8 1-2.6-.5 2.8-.9 5.6-.7 8.4.3 3.6-.5 7.1-1.6 10.5-.2.2-.8.5-1 .6 1.2-2.6-1.1-4.7-2.5-6.6l.8-2c.8 1.2 1.5 2.4 2.2 3.6.8-3.9 1.6-7.9 1.8-11.9zM137.8 230.8c1-.3 1.3 0 1 1-.9.3-1.3 0-1-1zM85.5 235.2c-.2-1.6 0-3.2 1.5-4 0 1.5.1 3.2-1.5 4zM132.9 234.3c.8.2 1.5.4 2.3.7l.1 1.5-2.4-2.2zM192.2 234.5c1-.2 1.6 2.1.6 2.4-.8-.3-1.1-1.7-.6-2.4zM377.1 233.6c1.4.7 2 2.1 2.6 3.4.6-.1 1.7-1.5 2-.4-.2 1.7-1 3.3-1.6 4.8-.9-.9-2.1-1.6-2.5-2.8-.4-1.6-.4-3.3-.5-5zM86.4 240.1c.4-2-.4-4.7 1.7-6-.1 4.3-.7 8.6-1.6 12.8-.2 2.1.1 4.1.1 6.2-.1-.5-.3-1.5-.5-2-.5.9-1 1.8-1.6 2.6-.7-2.7 1.6-4.7 1.5-7.3 0-1.8 0-3.5.4-5.3.1-.1 0-.7 0-1zM137.3 235.3c2.3-.4.1 2.7-.6.7.1-.2.4-.5.6-.7zM140.4 235.3c.3.1 1 .4 1.3.6-.6 1.1-1.2 2.2-2.3 2.9.3-1.2.6-2.4 1-3.5zM174.5 235.4c1.9.1-.9 1.8 0 0zM189.4 236.6c.8-.6 1.6.9.9 1.4-.8.6-1.6-.9-.9-1.4zM132.1 237.1c.8-.3 1.1 0 .9.8-.8.3-1.1.1-.9-.8zM137.4 237.1c.9 1.5 1.8 3.1 1.3 4.9-.6-1-1.1-2.1-1.5-3.2l-2.1.5c.8-.8 1.5-1.5 2.3-2.2zM175.2 237.2c.9-.7 1.6 1 .9 1.5-1 .7-1.7-1-.9-1.5zM130.9 238.3c.9 1.3 1.4 2.7 1.5 4.2l-1.4-1.6h-1c.3-.4.6-.7 1-1.1 0-.5 0-1-.1-1.5z"/><path fill="#171617" d="M292.9 243c.1-1.7-.2-3.5.7-5 .1 1.3.1 2.5 0 3.8l1.3 2.4-1.4 1.4.4 1.2c.2-.3.6-.9.9-1.2l.7.1c.2-.2.6-.7.8-1l-.6 9.2c1.1-1.2 1.9-2.7 1.9-4.4 0-2.7.9-5.3 1.1-8 1.1.9 2.2 2 2.2 3.6-3.1 2.7-2.6 7.4-5.3 10.4.2 2.6.8 5.2 1.2 7.8l-.9-1.5c-2.5-1-2.1-3.9-2.1-6.1-2.1.1-.9 2.7-1.3 4.1-1-2.4.1-4.8 0-7.2-.1-3.3.4-6.4.4-9.6z"/><path fill="#414649" d="M83.2 240.5c.9 0 2.8-.3 2.4 1.2-.7.5-3.1.1-2.4-1.2zM100 241.3c1 .1.7 1.7-.2 1.7-1 0-.7-1.6.2-1.7zM139.9 244.3c.2-1.6 1-3.2 2.7-3.4-.7 1.3-1.6 2.4-2.7 3.4zM129.1 241.9c.8-.2 1.1.1.8.9-.8.2-1-.1-.8-.9zM135.5 242c1 0 .9 1.6-.1 1.6s-.9-1.6.1-1.6zM83.6 246.5c-.2-1.4-.9-2.9-.5-4.3h1.7c-.3 1.4-.7 2.9-1.2 4.3zM137.8 243.1c2 .1-.9 1.8 0 0zM93.4 246.5c.6-1.4 1-3.3 2.8-3.5-.2 1.3-.7 2.6-1.3 3.8-1.3 2.6-1.2 5.8-3.3 8-.9-2.9.9-5.6 1.8-8.3zM128.1 243.8c1.2.1 3-.1 3.2 1.5-1.2-.3-2.4-.6-3.2-1.5zM382.6 244.3c.9-.7 1.7.9.9 1.5-.9.7-1.7-.9-.9-1.5zM126.3 245.6h2.5v1.5c-.9-.4-1.8-.8-2.5-1.5zM140.8 245.6c1-.5 1.8 1.8.6 1.9-.8-.1-1.2-1.3-.6-1.9zM137.2 245.9c2-.4 0 2.5-.5.7l.5-.7zM295 247.5c.8.1 1 .5.5 1.2-.9-.2-1-.6-.5-1.2zM181.3 252c0-1.8.8-3.3 1.9-4.6l.9 2.6c-.9.7-1.8 1.3-2.8 2zM130.7 253c-1.4-1.2-1.2-3.1-1.6-4.7.8 1.4 1.5 3 1.6 4.7zM192.8 248.4c.8-.7 1.6.8.8 1.3-.8.7-1.6-.7-.8-1.3zM133.9 248.9c.3 0 1 0 1.4-.1l-.3 1.7c.2.9.3 1.8 0 2.7-.5-1.4-.8-2.9-1.1-4.3zM136 249.7c.8-.2 1.1 0 .8.9-.8.3-1.1 0-.8-.9zM124.3 250.6c1.2-.5 1.4 1.5.3 1.8-1.2.4-1.3-1.5-.3-1.8zM126.5 251.4c2 .1-.9 1.7 0 0zM177.7 253.1l2.4-1.5c0 1.6 0 3.4-1.6 4.2l-.8-2.7zM185.3 252l2.3 5.1c-1-.5-2-1-3.1-1.4l-1-2.1 1.5.2c0-.5.2-1.4.3-1.8zM301 253.8c.8-.7 1.6.8.8 1.3-.8.7-1.6-.8-.8-1.3z"/><path fill="#171617" d="M376.1 257.6c0-1.4.1-2.7.2-4.1.4 1.3.6 2.7.8 4-.3.1-.7.1-1 .1z"/><path fill="#414649" d="M188 254.5c.9.6 1.4 1.6 1.9 2.6-1.2-.4-2-1.2-1.9-2.6zM91.1 255.4c.4-.1 1.1-.3 1.5-.5-.3 3.1-2.5 5.5-3 8.5-.5 2.5-1.4 5.1-1 7.7-1.5-1.7-.9-4.2-.7-6.2.8-3.3 1.1-6.8 3.2-9.5zM120.4 256.4c.4-.7 1.1-.7 1.8-.8l-2.6 4.6c-.5 1.8-.3 3.6-.4 5.4l-1.5-1.3c0-.3.1-.8.2-1.1l-.5-1.1c1-1.9 1.6-4 3-5.7zM179.8 256.6c1.3-.3 2.7-1.4 4.1-.6.4 1.2-.7 1.3-1.6 1.6v.9c-1-.3-1.9-1-2.5-1.9z"/><path fill="#EDEDED" d="M108.7 256.9l2.5-1.2c.1.2.4.7.5 1 .4.8.9 1.6 1.2 2.5-.5.5-1.1.9-1.7 1.3l-.9.3c-.2-.6-.5-1.3-.8-1.9-.2-.7-.5-1.4-.8-2z"/><path fill="#414649" d="M131.9 256.2c.9-.7 1.7.9 1 1.5-.9.6-1.8-1-1-1.5zM184.5 257.2c.8.4.8.8 0 1.2-.8-.4-.8-.8 0-1.2zM302.3 257.4c1.2.1.6 2.4-.5 2-.5-.6-.2-1.7.5-2z"/><path fill="#171617" d="M114.1 257.9c.9.1.4 1.5-.3 1.5-.9-.1-.4-1.5.3-1.5zM174.4 257.6c2 0 1.5 2.7 1.3 4.1-1.1-1.1-1.7-2.5-1.3-4.1z"/><path fill="#414649" d="M80.3 259.4l2.6-.3c-.6.9-1.5 1.6-2.4 2.3 0-.5-.1-1.5-.2-2zM109.6 258.8c.3.6.5 1.2.8 1.9.1 1-.5 2-.8 2.9.9-.3 1.8-.6 2.6-.8l-.9 3.1c-.3-.2-.9-.6-1.1-.9 1.3 2.3.6 5 .5 7.5l1 1.2c-.4.1-1.3.3-1.8.4.5 1.6 1.7 2.8 2.1 4.4-.2 2-.9 3.9-1.3 5.9.5.8 1 1.6 1.3 2.4-.2.6-.8 1-1.2 1.5-.5 2.9-.9 5.8-1.3 8.7l2.3 1.5c.2.6.5 1.2.7 1.9l-1.4 1.2c0-.4-.1-1.3-.1-1.8-.4 0-1.2-.1-1.5-.2v-1c-.8.4-1.5 1.4-2.5 1-.6-1-.1-2.1 0-3.2.9-4 1-8 1.7-12 .7-3.7-.2-7.5-.4-11.2-.2-2 .6-3.9.7-5.9l-.6-5.3c.2-1.1.8-2.2 1.2-3.2zM188.4 259.6l2-.6c-.2.8-.3 1.8-1 2.4-.4-.6-.7-1.2-1-1.8z"/><path fill="#EDEDED" d="M290.6 260.8l1.7-.6c1.1.8 2.4 1.4 3.6 1.9-.3.8-.3 1.7-.9 2.4-1.2-.1-2.3-.5-3.4-.9l-.8-.3c-.3-.7-.6-1.5-1-2.2l.8-.3zM302.9 261.3c.7-.4 1.4-.9 2.1-1.4l.2.1c.6.5 2 1.3 1.3 2.2-2.1 2.3-5.4 2.4-8.2 2.3 0-1 0-1.9.1-2.9 1.5 0 3.1.1 4.5-.3z"/><path fill="#414649" d="M84 260.9l.8-.7-.1 2.7c.5-.8 1-1.5 1.7-2.1 0 1.5-.2 3-.4 4.6-.3-.2-.9-.6-1.3-.9l.6 1.4c-.4 1.9-.6 3.9-.8 5.8-1.2-.9-.8-2.5-.8-3.9.2-2.3 0-4.6.3-6.9zM93 271.3c-1-3.6-.3-7.3 1.6-10.5.9 3.7-.8 7.1-1.6 10.5z"/><path fill="#EDEDED" d="M113.5 261.9l.9-.9c1 1.1 2.1 2.3 3.3 3.3l1.5 1.3c.3.2.9.7 1.2 1l-1.5 2.3c-2.4-1.5-4.4-3.5-6.4-5.5.1-.2.2-.6.2-.8l.8-.7z"/><path fill="#414649" d="M80.4 262.3c.8.1 1 .5.4 1.2-.7-.1-.9-.5-.4-1.2zM121.8 262.2c.8-.6 1.7.8.9 1.3-.7.6-1.6-.8-.9-1.3zM124.1 262.8c.8-.6 1.6.8.9 1.3-.7.6-1.6-.8-.9-1.3z"/><path fill="#171617" d="M175.3 263.4c.3 1 .6 2 .8 3-.3 0-.8 0-1.1.1l-.3-.1c.3-1 .4-2 .6-3z"/><path fill="#EDEDED" d="M189.5 263.6l.9-.4 1 1.6.5.8c-.2.1-.7.4-1 .5-2.4 1.1-4.7 2.2-7.2 2.9-.1-.5-.3-1.4-.3-1.9l-.1-.7c.9-.4 1.9-.7 2.9-1.1 1.1-.5 2.3-1 3.3-1.7zM172.2 268.5c.4-.9.8-1.7 1.3-2.5l1.3.4.3.1c1.8.6 3.7.5 5.6.5l.3 2.6c-2.8.4-5.7.3-8.4-.8l-.4-.3z"/><path fill="#171617" d="M182 266.6c.3.1 1 .4 1.4.5.1.5.3 1.4.3 1.9l1.5.1-.2 2.2c.9-1.1 1.7-2.3 2.7-3.3.4 1.1.9 2.3 1.4 3.4.1-1.2.2-2.4.2-3.6.2-.1.6-.4.8-.6-.1 2-.3 4-.7 6l1.5 1.4-2.1-.6c.4.8.8 1.6 1.1 2.3l.4.8c-.7-.8-1.4-1.8-2.4-.7-1.9 1.1-.7 3.4-.6 5.2h1.2c.1-1 .2-2 .2-3.1h1.1c-.7 3.1-.3 6.4.6 9.5-1.6-.9-3.3-1.7-5-2.4.1-1.9.4-3.9.2-5.8-.4-1-1.1-1.8-1.7-2.6-.2 1.1-.4 2.2-.6 3.2l-1.8-2.6c.1 2.7.1 5.5.3 8.2 0 .7-.1 1.6-1 1.7-.5-1.7-.7-3.4-1-5.2-.3.4-1 1.1-1.4 1.4-.8-1.9-1.7-3.8-3.2-5.2l3 .6c.9-1.5 2-2.9 2.4-4.5 0-1.4-.3-2.7-.5-4l.4-1.2c.8-1 1.2-2 1.5-3z"/><path fill="#EDEDED" d="M122.2 268c2.5.5 5 .1 7.3-1 .3.8 1 1.5.9 2.4-.9.6-1.9 1.1-2.9 1.6-1.9.3-3.8-.1-5.6-.5.1-.7.2-1.9.3-2.5z"/><path fill="#414649" d="M81.9 272.8c-1.6-1.4-2.7-4-.8-5.7.9 1.8.9 3.8.8 5.7zM116.5 269.1c1-.3 1.3 0 1 1-1 .3-1.4 0-1-1z"/><path fill="#171617" d="M175.1 277.5c-1.9-2.6-2.6-5.8-3-9l.4.3c.6 1.2 1.1 2.4 1.6 3.6l1.8-2.1c1 0 1.9 0 2.9.2.6 1.3.6 2.8.8 4.3-.7-.4-1.4-.9-2.2-1.3 0 1.9.3 3.7.8 5.5l-2.1-1.1c-.2-.2-.6-.3-1-.4z"/><path fill="#414649" d="M83.5 276.5c0-1.6-.4-3.5 1-4.7.1 1.5.6 3.6-1 4.7zM116 279.1c-2-1.7-4.1-4.5-3.2-7.2l2.3 4.2v-1.4l-1.2-2.1c1.5.8 3.4 1.4 4.3 3l-2 .1c-.1 1.2-.1 2.3-.2 3.4zM82 277.4c-1.9-.7-1-2.8-.7-4.2l.7 4.2zM95.8 275.9l1.4-3v3.1c-.3-.1-1-.1-1.4-.1zM85.8 274c.8-.6 1.6.8.9 1.4-.9.6-1.6-.8-.9-1.4zM186.3 274.4c.8.3.8.7 0 1.2-.7-.4-.8-.8 0-1.2z"/><path fill="#171617" d="M297.4 274.5c2 .1-.9 1.8 0 0z"/><path fill="#414649" d="M87.6 278.5c.3-1.4.9-2.7 1.6-3.8.5 1.5-.1 3.2-1.6 3.8z"/><path fill="#171617" d="M295.5 275.8c.1-.2.4-.6.6-.8 0 .5-.1 1.4-.1 1.8l1.6 1.2-2.5 1.8 2.1.3c.4 1.3.9 2.7 1.4 4-.7-.2-1.3-.4-1.9-.7 1 1.3 1.4 2.9 1.3 4.5l-2.5-2.2c-.1-.8-.3-1.6-.4-2.5.9-1.8-.4-3.1-1.9-3.9l-.4-1.2c.8.5 1.6.9 2.5 1.4-.1-1.2.1-2.5.2-3.7z"/><path fill="#414649" d="M373.3 276.8c.8-.3 1.1 0 .9.9-.8.3-1.1 0-.9-.9zM375.7 277.4c.8-.5 2.3.5 1.9 1.5-.8.5-2.2-.6-1.9-1.5zM367.8 284.6c1.4-2.4.6-5.9 3.2-7.5-.4 3.1-.2 6.5-2.2 9.2v1.5c-1.9-.4-2.4-3.1-3.6-4.6.1 1.4.4 2.7.3 4.1-.5.8-1.4 1.1-2.2 1.7 0-1.2-.2-2.9 1.3-3.4-.6-.6-1.3-1.2-1.9-1.9l1.5-.5c-.5-.1-1-.2-1.5-.2-1.8 1.3-2.8 3.5-3.9 5.5-.3.2-.9.5-1.2.6-.2 2.7-2 5.4-1 8.1.5.9-.3 1.7-.6 2.4 1-.3 2-.5 3-.7 2.3-2.1 5-5 8.5-4l.3-1.3c1.1-.2 2.2-.4 3.4-.5l-.8 1.7c-3.9 2.7-7.9 5.7-12.7 6.4-1.9.5-3.2-1.5-3-3.2.1-2.2 0-4.4-.1-6.5.3-2.6 2.1-4.6 3.9-6.3 1.4-1.2 2-3.3 4-3.5 2.3-.5 3.7 1.7 5.3 2.9zM371.8 277.4c1.3.8 2.3 1.7 3.3 2.8l-.8 2.1c-1.4-.4-2.6-1.1-3.6-2.1l1.4-.9c-.1-.6-.2-1.2-.3-1.9zM90.5 279.2c.9-.7 1.8.9 1 1.4-.9.7-1.8-.8-1-1.4zM94.7 279.1c1.2-.4 1.4 1.5.3 1.8-1.2.3-1.3-1.6-.3-1.8z"/><path fill="#171617" d="M292.3 280.8c.6 1.7 1.4 3.5.9 5.4-.5 2.5-1.1 5-1.3 7.6l-.9-.1c.1-1.8.7-3.4 1.2-5.1.5-2.6-.1-5.2.1-7.8z"/><path fill="#414649" d="M114.7 282.5c1-.6 2.1-1 3.3-1.3l-1 2.3c-.2.8-.4 1.6-.5 2.4-.6-1.2-1.2-2.3-1.8-3.4z"/><path fill="#171617" d="M185.1 286.7c1 .5 1.8 1.3 2.5 2.1-.4.1-1.2.2-1.7.2 0-.2.1-.7.2-.9-.4-.4-.7-.9-1-1.4z"/><path fill="#414649" d="M360.1 287c1.1-.5 1.6 2 .5 2.2-.9-.3-1.1-1.6-.5-2.2zM363.7 290.1c.1-.4.3-1.2.5-1.6.9.7 1.8 1.5 2.3 2.5-1-.2-1.9-.5-2.8-.9zM358.4 291.4c.9-.6 1.9-1.1 2.9-1.4l2.3 4.2h-2.8c.1-.9.3-1.7.4-2.5-1-.1-1.9-.2-2.8-.3zM110.6 295.6l.6-3.2c.4.8.9 1.6 1.5 2.4l-.6 2.7c-.5-.7-1-1.3-1.5-1.9z"/><path fill="#171617" d="M187.6 293.9c.6-.8 2.2 0 1.4.9-.5.8-2.2 0-1.4-.9z"/><path fill="#414649" d="M191.7 294.6c1-.6 1.9 1.6.8 2-.8 0-1.3-1.3-.8-2zM114.8 297.4c1.1-.3 1.3 1.4.3 1.6-1 .4-1.3-1.4-.3-1.6zM106.5 300.4c.8-.2 1.6-.3 2.4-.4l-1.1 6.2c-.2 1.1 0 2.3-.8 3.2-.8.1-1.7.1-2.5.1l2-9.1zM112.7 300.3l2.7.4c-.2 1.4-.5 2.9-1.4 4.1.4-1.7-.1-3.3-1.3-4.5zM291.4 300.5l1.2.5c-.7 2.4-1.1 4.8-.3 7.2.6-1.3 1.2-2.6 2.1-3.6-.2 1.4-.4 2.8-.6 4.3 1-1.4 1.8-3 3.2-4.1-.1 1.1-.2 2.1-.4 3.2.2.2.7.6 1 .8.3 1.6.5 3.3.7 5l-2.6-.1c1 .7 1.9 1.5 2.6 2.5.6-.7 1.3-.8 1.9-.1-.1 1.2-.5 2.4-.7 3.5-.6-.4-1.2-.9-1.7-1.3-1.2 1.1-2.2 2.3-3.2 3.6l1.8.8c.4 1.1 1.1 2 2.2 2.5.2-1.1.3-2.1.4-3.2.9-.5 1.9-1 2.9-1.5-1 1.8-2.1 3.6-3 5.5 1.5-.1 3.2-.9 4.6.1 2.2 1.5 5 .4 7.3-.3-.3-1.1-.5-2.2-.7-3.3 1.3.8 2 2.1 2.7 3.4-2.5 1.1-4.8 3-7.7 2.7-3-.1-6-.7-8.9-1.6-7.5-.5-14.9-1.2-22.4-1.5-1-.2-2.2.1-2.9-.7 0-.2.1-.7.2-.9-.6-.1-1.2-.1-1.8-.1.4.3.6.6.9 1-3.6.9-7.6 1.2-11-.4 2.1-.6 4.1-1.1 6.1-2v-1c2-.3 4.4-.9 6.2.5l-2.2.4c1.7.2 3.2 1 4.4 2.1-.7-1-1.3-2-1.9-3 2.1-.1 4.3-.3 6.5.2.8.1 1.3.6 1.5 1.4 0-.3.1-.8.1-1 3.8.4 7.6.3 11.3.6 1.2 0 1.9 1.1 2.7 1.8l-.3-3.5c.3-.2.9-.5 1.2-.6l1.3-3.6c-1.9-2.1-3.8-4.2-4.6-6.9-.6-2.2-1.1-4.5-1.6-6.7.4-.1 1.2-.2 1.6-.2-.2-.9-.2-1.9-.1-2.4zM233.6 302.3c.6-.8 2.2 0 1.5.9-.5.8-2.1 0-1.5-.9zM252.7 304.8c2.7-.2 6.2 1.1 8.2-1.6l1 .9c-1.6 1.5-3.8 1.6-5.9 2l-.9 1.3c.1-.3.4-1 .6-1.4-1.1 0-2.1 0-3.2.1 0-.3.1-1 .2-1.3zM265.3 305.7c.7-1 1.7-1.6 2.9-1.8l.1.9-2.2.1c.2.6.4 1.2.6 1.9-3.2.2-6.4.9-9.6.3 2.6-1 5.5-.6 8.2-1.4zM113.2 315.6c.8-3.5 1.1-7.1 1.8-10.5.1 3.2-1.1 6.3-.5 9.5l.4 3.1c-.8-.5-2.1-.9-1.7-2.1zM247.9 305.3c.9 0 1.9.1 2.8.2-1 .3-1.9.6-2.9.8.1-.2.1-.8.1-1zM232 306.4c1.5-1.5 3.9-1.1 5.5 0-1.8.2-3.7.2-5.5 0zM237.3 306.7c1.5-1.3 3.6-.5 5.4-.5-1.4 1.6-3.6.7-5.4.5zM205.2 307.5c2-.2-.1 2.4-.5.6.1-.1.4-.4.5-.6zM111.1 309.3c.9-1.1 1.7 1.1 2.5 1.5-1.1.1-2.4-.1-2.5-1.5zM154.4 309.4c1-.3 1.3 0 1 1-1 .3-1.3-.1-1-1zM156.2 309.4c.6-.8 2.2 0 1.4.9-.5.8-2.2 0-1.4-.9zM211 309c1.1 0 2.3.1 3.4.2-.8 1.5-2.5 1.3-4 1.3.1-.4.4-1.1.6-1.5zM240.4 309.1c1.2-.2 2.4.2 2.9 1.4-.9-.3-3.4.2-2.9-1.4zM299.2 312.6c-.1-1.2-1.2-3.8.8-3.4.3.3.9.9 1.1 1.2 1.9-.2 3.7-.3 5.6-.4-1.8.4-3.5.9-5.3 1.5 1.1 2.5 4 3.3 5.4 5.6-2-.1-3.2-1.7-4.8-2.6-.9-.6-1.9-1.1-2.8-1.9zM208.3 309.7c1.7-.8 0 2 0 0zM246.4 310.1c1.8-.2 3.7-.2 5.5.1-1.8.2-3.6.1-5.5-.1zM104.5 310c.9.2 2.2-.1 2.4 1.1.4 2-.3 4.1-.6 6l-2.3-.6c-1.4-.1-.1-1.4.2-1.9l-.3-1.1c.3-1.2.5-2.4.6-3.5zM187.2 311.5c1.3-1 3-.7 4.5-.8 0 .4-.1.8-.1 1.1-1.5 0-3-.1-4.4-.3zM238.7 310.8c1.1 0 2.2.1 3.3.2-.4.6-1.1.9-1.6 1.3l.1.8c-.5.1-1 .3-1.4.4.9.4 1.8.9 2.6 1.4-2.1.4-4.2.2-6.3-.1l-7.2.3c-.4-1 .6-1.8 1.3-2.2.9.2 1.8.6 2.7.9l-.3-2.1c1.1.2 1.8.9 2.2 1.9 1 .1 2 .1 3.1.2-.7-.7-1.8-1.1-1.8-2.2 1.1-.1 2.6.4 3.3-.8zM270 311.1c1.1-.2 3.6-1.4 3.7.4-1.3.5-2.6.1-3.7-.4zM274 311.2c2.4-.7 5.5-1.2 7.7.2-2.5.4-5.2.8-7.7-.2zM281.8 313.1c.3-1.2.8-2.4 2-2.8-.4 1.1-.8 2.3-2 2.8zM308.2 311.7c.6-.6 1.2-1.3 2.1-1 2.8.5 5.6 0 8.4 0-3.4.9-7 .8-10.5 1zM251.3 311.7c1.6-.2 3.2-.5 4.8-.4-.6.4-1.1 1-1.8 1-3.6.6-7.4-.2-10.9 1.2-.9.5-1.4-.6-1.9-1.2 1.4-.1 2.7-.2 4.1-.6 1.9-.5 3.8.3 5.7 0zM314 312.5c3.1-.1 6.1-.6 9.2-.6v.5c-2.5 0-5 0-7.5.4 2.7 1.5 6 .3 9 .5 0-.4.1-1.2.2-1.7l.9.3c.8.7 1.8 1 2.9.9 3.5-.1 6.9.9 10.5.7l.1.5c-4.6-.3-9.4-.1-14 .4 1.1 1 2.7.7 4.1.7 2-.1 4 0 6 .5 2.5-.3 5.3-1.6 7.6 0l-3.7.9c-.7.8-1.5 1.4-2.5 1.9l-1.3-1.2c-1.4.3-2.9.5-4.4.7l1.6-2.4c-2.4-.1-4.8 0-7.2.2-.8.2-1.1-.8-1.6-1.2-2.9-.2-5.8-.2-8.7-.1.2-.3.4-1 .6-1.4-.6-.1-1.2-.3-1.8-.5zM130 312.5c1.6-.2 3.2-.2 4.8-.1-1.6.2-3.2.3-4.8.1zM192.3 312.2c2.3-.3-.1 2.8-.6.7.1-.1.4-.5.6-.7zM261.4 312.4c1-.3 1.3 0 1 1-1 .2-1.3-.1-1-1zM310.1 312.3c.7-.6 1.1-.4 1.2.4-.7.6-1.1.4-1.2-.4zM259.2 314.2c-1.8-.7-.2-1.6.9-1.6.6 1.4 1.1 2.8 1.4 4.2h-1.9c-.2-.8-.3-1.7-.4-2.6zM118.9 313.5c.8.4.8.8 0 1.2-.8-.4-.8-.8 0-1.2zM120.7 313.4c.6-.4 2 .1 1.4 1-.6 1.1-2.9-.2-1.4-1zM212.7 314.2c4.2-.3 8.4-1.2 12.6-1.1l1.1.8c-3.5.5-7.1.9-10.6 1.1-1.2.1-2.2-.4-3.1-.8zM254.5 313.6c.6-.5 1.7-.6 2.3-.1 0 .9-2.2 1-2.3.1zM262.2 314.1c2.8-.4 5.5.2 8.3.3.2.1.6.4.8.6-2.4.1-4.7.4-7.1.2-.8 0-1.4-.7-2-1.1zM311.9 314c.7-.5 1.1-.4 1.2.4-.7.6-1.1.4-1.2-.4zM132 314.5c1.8-.8 0 2 0 0zM162.3 315.2c1.5-.3 3.1-1 4.5 0-1.3 1.2-3.2 1-4.5 0zM247.2 315.1c3.3-.3 6.6-.1 10 0-1.5 1.1-3.5 1.2-5.3 1.2-1.7.1-3.5.1-4.7-1.2zM127.8 315.9c5.4-1 10.8 1.1 16.3.9-.3.7-.6 1.4-.9 2.2-2.2.3-4.4.5-6.6.5l-.3 1.6c-3.2.2-6.4.3-9.5.9-.8.3-1.4-.3-2-.6 2.3-.6 4.6-1 7-1.2l-2.4-.4 2.7-1.3-2-.4c.8-.7 1.9-.7 2.8-.9-1.6-.5-3.4-.9-5.1-1.3zM219.7 316.7c2.7-.7 5.5-.5 8.2-.8v.6l1.6 1c-3 .2-5.8 2.4-8.9 1.3 0-.3 0-.8.1-1.1-.2-.2-.8-.7-1-1zM262.4 316.6c2-.1 4-.4 6-.8.8-.4 1.4.3 2 .7-2.7.4-5.3.3-8 .1zM116.6 317c.6-.4 2 .1 1.4.9-.7 1.2-3.1-.1-1.4-.9zM145.2 316.8c2 0 4.1.2 5.9 1.1-1.9.6-3.9.6-5.8.1l-.1-1.2zM167.9 317.2c.4-.1 1.2-.2 1.7-.3l-.3 1.3c1.7 0 3.4 0 5.2.2-1.9.3-4.3-.5-5.6 1.4l1.9.4c-1.7-.2-3.5-.2-4 1.8h-.9l-.2-2.3h3c-.3-.9-.6-1.7-.8-2.5zM230 317.5c3.5-.9 7.2-.8 10.6.2-1 1.4-2.3 2.2-4 1.8.5-.4 1-.9 1.6-1.3-2.8 0-5.6.4-8.2-.7zM242.1 317.3c1.9-.8 4.3-.9 5.8.7-1.7.2-3.4.3-5.1.6-.2-.4-1.1-.7-.7-1.3zM66.9 317.6c2.1-.2 0 2.4-.5.6.1-.1.3-.4.5-.6z"/><path fill="#171617" d="M135.7 317.8c1.1-.5 2.4-.3 3.5 0-.7.8-3 .9-3.5 0z"/><path fill="#414649" d="M158.7 318.5c.7-.4 1.4-.9 2.1-1.2 1.2 0 2.1.9 3 1.5-1.6 1-3.4.1-5.1-.3zM303.8 318.7c.7-.9 1.9-1 2.9-1.2l-.7 1.7c-.7-.2-1.4-.4-2.2-.5zM328.8 317.5c1.8-.9.1 1.9 0 0zM64.1 318.1c1.8-.9 0 2 0 0zM96.5 318.2c.6-.4 1.9.2 1.3 1-.6 1-2.7-.3-1.3-1zM100.3 319.1c.5-.4 1.1-.9 1.8-.8.3.5.6 1 .8 1.5l-2.6-.7zM119.1 319.2c1.7-1 3.7-1 5.6-1l-.6 2.3c-1.5.4-3 .6-4.5.6.7-.8 1.7-1.3 2.7-1.6-1.1-.1-2.2-.2-3.2-.3zM128.4 318.1c1.8-.9.1 2 0 0zM150.8 318.8c.3-.2.8-.7 1.1-1 1.8 0 3.6 0 5.4.3-.9 2-4.2 1.2-6 2-.2-.3-.4-1-.5-1.3zM264.6 318.1c.7-.5 1.1-.4 1.2.4-.8.6-1.2.5-1.2-.4zM72.3 319.1c2.7.3 5.7-1.2 8.2.2-.2.3-.7.8-.9 1-2.4-.4-4.9-1-7.4-.7.1-.2.1-.4.1-.5zM84 321.4c-1.5-.3-2.9-1.6-2-3.3.7 1.1 1.4 2.1 2 3.3zM84.2 321.2c.4-.9.8-1.8 1.4-2.6 1-.3 2.1-.1 3.1.1-.8 1.8-2.6 2.6-4.5 2.5zM212.7 319.4c2-.6 4.1-.9 6.2-.8-1 2.4-4.2 1.1-6.2.8zM227.3 319.1c2.6-1.2 5.5-.5 8.2-.3-2.1 2.5-5.5.9-8.2.3zM245.1 318.9c.8-.4 2.5-.6 3 .3-.9.4-2.6.5-3-.3zM250.1 319.2c1.5-.3 3.1-.5 4.6-.5-1 1.3-3.5 2.3-4.6.5zM254.2 319.8c1.6-2 4.6-1.5 6.3.1-2 .3-4.2.3-6.3-.1zM303.5 318.9c1.2.3-.2 2.1-1 1.5-.5-.7.3-1.5 1-1.5zM103.4 319.9c.8-1.6 2.1.7 3 1.2l-1 1.6c.3.9.6 1.9.8 2.9l2.3.3c-.4.7-.9 1.3-1.4 1.9-1.3.5-2.1-.9-2.8-1.7-1.5-1.7-1.2-4.2-.9-6.2zM124.5 320.3c1.1-.8 3.3-1.9 3.6.2-1.2 0-2.4-.1-3.6-.2zM172 320.2c3.4-.9 6.9-.9 10.3-.9-.8.6-1.5 1.6-2.6 1.2-2.5-.5-5.1-.6-7.7-.3zM182.4 319.5c1.4-.2 2.8-.3 4.3-.4-.5.6-1.1 1.2-1.6 1.9-.9-.6-1.8-1-2.7-1.5zM69.9 319.9c1-.3 1.3 0 1 1-1 .3-1.4 0-1-1zM90.9 320.9c.2-2.2 2.7-1.2 3.8-.3-1.3.2-2.5.2-3.8.3zM59.8 320.6c1.2 0 2.3 0 3.5.1l-3.4.9c0-.2-.1-.7-.1-1zM85.2 322.6c1.5-.6 3-1.3 4.3-2.2l-.2 1.6c.5-.1 1-.2 1.6-.2.1.3.4.8.6 1.1-2.3.5-4.6.8-7 1.1.3-.5.5-1 .7-1.4zM305.2 320.6zM108.9 321.1c1.9-.1-.2 2.4-1.2 1.5-.4-.7.6-1.4 1.2-1.5zM116.6 321.3l3.6.6c-1.2.3-2.4.5-3.6.6v-1.2zM135.8 323.8c2.4-1.4 4.9-2.8 7.8-2.5 2.2.3 4.5-.4 6.7 0-2.2.9-4.5.6-6.7.6-1.4.4-2.8.9-4.3 1l-.1 1.1c-1.1-.1-2.2-.2-3.4-.2zM234.2 321.7c1.9-.3 3.9-.8 5.7-.2-1.1 1.6-4.2 1.3-5.7.2zM114.8 322c.8-.1 1 1.3.4 1.7-.8.1-1-1.3-.4-1.7zM77.1 323.1c2.3-1 4.8-1 7.3-.9-2 1.8-4.9.9-7.3.9zM302.8 322.3c1-.3 1.3 0 1 1-1 .3-1.3 0-1-1zM110 323.8l2.4-.1c-.6.7-1.2 1.4-1.8 2l-.6-1.9zM126.6 324.4c2.4-1.3 5.3-1 7.8-.2-2.2 1.7-5.2.6-7.8.2zM81.4 325l2.3-1 .1 1.7-2.4-.7zM85.7 324.9c.9-.3 1.9-.6 2.8-1 0 .3 0 .9.1 1.2-1-.1-2-.2-2.9-.2zM123.9 324.2c.4-.5 1.9-.6 1.7.3-.4.5-1.9.5-1.7-.3zM139.8 325.3c.7-1.2 2-1.3 3.2-1.6 1.9 1.7 4.6 1.2 6.9 1-.6.6-1.2 1.2-1.8 1.9-.2-1-1-1-1.8-.9-1.9-1.2-4.4-.1-6.5-.4z"/><path fill="#171617" d="M203.6 324.2c.9-.5 1.9 1.1 1.4 1.9-.9.4-2-1.1-1.4-1.9z"/><path fill="#414649" d="M117.1 324.7c2.1-.2 0 2.4-.5.6.1-.1.4-.4.5-.6zM112 325.3c.7.7 1.4 1.4 2.1 2.2-.8.7-1.8 1.2-2.8 1.7l-.6 2.2c1 .8 1.9 1.5 2.8 2.3l-2.4-.1c.4.6.9 1.2 1.3 1.7l-3.8-.9c.3-2.2.6-4.4 0-6.5 1.4-.7 2.6-1.4 3.4-2.6zM58.7 325.9zM165.1 325.7c1.9-.1 3.8-.1 5.6.1-1.2 1.6-3.4 1.4-5.1 1.1l-.5-1.2zM77 326.4c1.7-.9 0 2 0 0zM114.8 328.6c-.6-1-.1-2.1.4-2.9.7 1.7 1.1 3.5 1.6 5.2.4 1.8 2.5 2.7 3.1 4.4.8 2 1.2 4.1 2.6 5.7 1 1.1 1.4 2.6 1.6 4.1-2.6.6-5.1 1.4-7.7 1.6-3.2.3-6.3-1-9.5-1.3-3.4-.3-6.6-1.6-10-1.8-1.8.1-2.3-2-2.9-3.3h3.3c1-1.3 2.3-1.2 3.7-.5-.5.5-.9 1-1.4 1.6 1.1.7 2.1 1.4 3.2 2.2-.4-.7-.8-1.3-1.2-1.9l.6-2.1c1.1.7 2.3 1.4 3.3 2.2-.4.4-.9.9-1.3 1.4l1.7 1c0-1 0-1.9-.1-2.8-.5-1.1-1.2-2.1-1.5-3.3h1.7l-.6-1.5 2.5-1.8-.3 1.8c.1.3.2.8.3 1l-.7 1.1.7.9-.1 1.5 2.1.2 1 1.3c1.7.4 3.2 1.2 4.5 2.3 2.3-.8 4.9.4 7.2-.7-1.4-2.7-3.1-5.2-4.1-8.1h-2.8c1 1.1 2.4 1.8 3.3 3l-1.5.1c-2.7.9-5.4 1.5-8.2 1.7l.7-2.8c.6.2 1.2.4 1.8.7l-.5-1.6c1.8-.8 3.5-1.7 5.1-2.8-.4-2.1-.9-4-1.6-5.8zM152.5 327.7c3.4.1 6.7-1.4 10.1-.8 1.4 1.2-1.1 1.2-1.8 1.3-5-.2-9.9-.6-14.9 0-5.1-.4-10.2-.3-15.2-.3-2.8 0-5.7.8-8.4 0 10-.4 20.1 0 30.2-.2zM173.9 327.5l4.9.6c-.8 1.2-2.3 1.1-3.6 1.4 0 .2.1.7.2 1-.3 0-1 .1-1.4.2 0-1.1 0-2.1-.1-3.2zM68.1 328.2c1.8-.2.5 1.9-.7 1.3-1-.4.1-1.4.7-1.3zM72.8 327.9c1.2.1 2.4.3 3.6.5-1.2.6-3.2 1.5-3.6-.5zM77.2 328.3c.5-.6 1.7-.5 1.9.3-.1 1.1-2.5.8-1.9-.3zM136.1 328.8c.6-.4 2.1.1 1.5 1-.7 1.1-3.1-.2-1.5-1zM122.1 330.4c1-1.1 2.5-.9 3.9-.9-1.2.8-2.5 1.2-3.9.9zM168.4 329.6c1.7 0 3.4.1 5.1.3l-1.3 1.3c-1.4-.2-3.4.3-3.8-1.6zM64 330.1c1.9.6 3.9.6 5.7-.1.2.2.5.7.6.9-2.1 0-4.3.2-6.4.6 0-.3.1-1 .1-1.4zM72.3 330c.5-.7 2 0 1.3.8-.5.7-2 0-1.3-.8zM78.1 330c.6-.8 2.2 0 1.5.9-.6.8-2.2 0-1.5-.9zM58.4 330.6c1.5-.5 3.1-.2 4.6 0-1.2 1.2-3 1.3-4.5 1 0-.2 0-.8-.1-1zM70.4 331.8c1-.3 1.3 0 1 1-1 .2-1.3-.1-1-1zM72.8 331.8c1.7-1 .1 1.9 0 0zM75.7 331.7c1-.3 1.3 0 1 1-.9.3-1.2 0-1-1zM77.5 331.9c.6-.8 2.2 0 1.5.9-.6.8-2.3 0-1.5-.9zM58.3 333.7c1.4-.5 3-.7 4.5-.6-1 1.4-3 1.2-4.5.6z"/><path fill="#171617" d="M191.8 333c2.2.3-.9 2.1-1.7.9-.1-.8 1.1-.9 1.7-.9z"/><path fill="#414649" d="M223 333.1c.8-.2 1.1.1.9.9-.9.2-1.2-.1-.9-.9zM68.1 333.4c1.8-.8.1 2 0 0zM80.1 334.3c1.4.1 2.9-.1 4 .9-1.3.3-2.7.4-4 .5-.1-.4-.1-1.1 0-1.4zM221.3 334.1c.5-.6 1.7.2 1.3.9-.6.6-1.7-.2-1.3-.9zM63 335c1.1-.1 2.6-.9 3.4.2-.6 1.3-2.5.4-3.4-.2zM67.8 337.2c.2-.9.2-2.4 1.4-2.6 2.3-.3 4.6.3 6.8 0v1.8l3.5.6.4 2.3c-1.7-.5-3.5-.8-5.3-.5v-.4c1.2-.3 2.9.2 3.4-1.3l-3.3-.1-.1-1.7-1.9.1.4 1.7c-1.7.4-3.5.5-5.3.1zM84.1 334.8c1.7-1 .2 1.9 0 0z"/><path fill="#171617" d="M112.7 338.6c.8-.7 1.7-1.4 2.6-2l1.4 1.8c-1.3.1-2.7.2-4 .2z"/><path fill="#414649" d="M90.3 339.4c1.4-1.1 3-2.5 4.9-1.8.9.2 2.5 1.2 1.6 2.2-1.3-.4-2.5-1-3.9-1l1 2.5c-1.2.3-2.6 1.5-3.8.6-2.1-1.3-4.6-.7-6.9-1.2-1-.5-2.3-1.2-2.1-2.5 1.2-.2 2.2.3 3.3.7 0 .2-.1.7-.2 1 1-.7 2-1.4 3.1-1.9.9.7 1.9 1.2 3 1.4z"/><path fill="#171617" d="M224.7 337.9c.8-.3 1.1 0 .9.8-.8.3-1.1.1-.9-.8z"/><path fill="#414649" d="M115.5 341.6c1.3.4 3 .5 3.5 1.9-1.4 0-2.7-.6-3.5-1.9z"/></g></svg>