<svg xmlns="http://www.w3.org/2000/svg" viewBox="0 0 526.2 346.7" enable-background="new 0 0 526.2 346.7"><g><path fill="none" stroke="#fff" stroke-miterlimit="10" d="M211.3 110.5l-44.1-41.4"/><g fill="#fff"><path d="M125.9 61.5l.5-.6c.4.4 1.1.8 1.9.8.9 0 1.4-.4 1.4-1 0-1.4-3.6-.5-3.6-2.7 0-.9.8-1.7 2.2-1.7 1 0 1.7.4 2.1.8l-.4.6c-.3-.4-1-.7-1.7-.7-.8 0-1.3.4-1.3.9 0 1.3 3.6.4 3.6 2.7 0 1-.8 1.8-2.3 1.8-1 0-1.8-.3-2.4-.9zM131.6 59.4c0-1.7 1.1-3 2.9-3s2.9 1.4 2.9 3c0 1.7-1.1 3-2.9 3s-2.9-1.3-2.9-3zm4.8 0c0-1.2-.7-2.2-1.9-2.2s-1.9 1.1-1.9 2.2c0 1.2.7 2.2 1.9 2.2s1.9-1 1.9-2.2zM138.5 59.4c0-1.7 1.2-3 2.9-3 1.1 0 1.7.4 2.1 1l-.6.6c-.4-.5-.9-.8-1.5-.8-1.2 0-2 .9-2 2.2s.8 2.2 2 2.2c.6 0 1.1-.2 1.5-.8l.6.6c-.4.6-1.1 1-2.1 1-1.7 0-2.9-1.3-2.9-3zM144.6 55.1c0-.3.3-.6.6-.6s.6.3.6.6-.3.6-.6.6-.6-.3-.6-.6zm.2 7.2v-5.8h.9v5.8h-.9zM151.1 62.3v-.7c-.5.5-1.1.8-1.9.8-1 0-2-.7-2-1.9 0-1.3 1-1.9 2-1.9.8 0 1.5.3 1.9.8v-1c0-.8-.6-1.2-1.5-1.2-.7 0-1.3.3-1.8.8l-.4-.6c.6-.6 1.4-1 2.3-1 1.2 0 2.2.6 2.2 2v4h-.8zm0-1.2v-1.1c-.3-.5-1-.7-1.6-.7-.8 0-1.4.5-1.4 1.3 0 .7.6 1.3 1.4 1.3.6-.1 1.3-.4 1.6-.8zM153.8 62.3v-8h.9v8h-.9zM163.2 62.3v-.7c-.5.5-1.1.8-1.9.8-1 0-2-.7-2-1.9 0-1.3 1-1.9 2-1.9.8 0 1.5.3 1.9.8v-1c0-.8-.6-1.2-1.5-1.2-.7 0-1.3.3-1.8.8l-.4-.6c.6-.6 1.4-1 2.3-1 1.2 0 2.2.6 2.2 2v4h-.8zm0-1.2v-1.1c-.3-.5-1-.7-1.6-.7-.8 0-1.4.5-1.4 1.3 0 .7.6 1.3 1.4 1.3.7-.1 1.3-.4 1.6-.8zM170.9 62.3l-1.5-4.7-1.5 4.7h-.9l-1.8-5.8h.9l1.4 4.6 1.5-4.6h.8l1.5 4.6 1.4-4.6h.9l-1.8 5.8h-.9zM178.4 62.3v-.7c-.5.5-1.1.8-1.9.8-1 0-2-.7-2-1.9 0-1.3 1-1.9 2-1.9.8 0 1.5.3 1.9.8v-1c0-.8-.6-1.2-1.5-1.2-.7 0-1.3.3-1.8.8l-.4-.6c.6-.6 1.4-1 2.3-1 1.2 0 2.2.6 2.2 2v4h-.8zm0-1.2v-1.1c-.3-.5-1-.7-1.6-.7-.8 0-1.4.5-1.4 1.3 0 .7.6 1.3 1.4 1.3.6-.1 1.2-.4 1.6-.8zM181.1 62.3v-5.8h.9v.9c.5-.6 1.1-1.1 1.9-1.1v.9h-.4c-.6 0-1.3.5-1.6.9v4.1h-.8zM184.7 59.4c0-1.7 1.2-3 2.9-3 1.8 0 2.8 1.4 2.8 3.1v.2h-4.7c.1 1.1.8 2 2.1 2 .7 0 1.3-.3 1.8-.7l.4.6c-.6.6-1.4.9-2.3.9-1.8-.1-3-1.3-3-3.1zm2.8-2.3c-1.2 0-1.8 1-1.9 1.9h3.8c0-.8-.6-1.9-1.9-1.9zM195.7 62.3v-3.8c0-1-.5-1.3-1.3-1.3-.7 0-1.4.4-1.7.9v4.2h-.9v-5.8h.9v.8c.4-.5 1.2-1 2.1-1 1.2 0 1.8.6 1.8 1.9v4.1h-.9zM198 59.4c0-1.7 1.2-3 2.9-3 1.8 0 2.8 1.4 2.8 3.1v.2h-4.7c.1 1.1.8 2 2.1 2 .7 0 1.3-.3 1.8-.7l.4.6c-.6.6-1.4.9-2.3.9-1.7-.1-3-1.3-3-3.1zm2.9-2.3c-1.2 0-1.8 1-1.9 1.9h3.8c0-.8-.6-1.9-1.9-1.9zM204.6 61.5l.5-.6c.4.4 1.1.8 1.9.8.9 0 1.4-.4 1.4-1 0-1.4-3.6-.5-3.6-2.7 0-.9.8-1.7 2.2-1.7 1 0 1.7.4 2.1.8l-.4.6c-.3-.4-1-.7-1.7-.7-.8 0-1.3.4-1.3.9 0 1.3 3.6.4 3.6 2.7 0 1-.8 1.8-2.3 1.8-1 0-1.8-.3-2.4-.9zM210.2 61.5l.5-.6c.4.4 1.1.8 1.9.8.9 0 1.4-.4 1.4-1 0-1.4-3.6-.5-3.6-2.7 0-.9.8-1.7 2.2-1.7 1 0 1.7.4 2.1.8l-.4.6c-.3-.4-1-.7-1.7-.7-.8 0-1.3.4-1.3.9 0 1.3 3.6.4 3.6 2.7 0 1-.8 1.8-2.3 1.8-1 0-1.8-.3-2.4-.9z"/></g><g fill="#fff"><path d="M425.4 28.2v-3.8h-1v-.8h1v-1.6h.9v1.6h1.2v.8h-1.2v3.6c0 .4.2.7.6.7.3 0 .5-.1.6-.2l.3.7c-.2.2-.6.4-1.1.4-.9-.1-1.3-.6-1.3-1.4zM432.6 29.4v-3.8c0-1-.5-1.3-1.3-1.3-.7 0-1.4.4-1.7.9v4.2h-.9v-8h.9v3c.4-.5 1.2-1 2.1-1 1.2 0 1.8.6 1.8 1.8v4.1h-.9zM435 26.5c0-1.7 1.1-3 2.9-3 1.8 0 2.9 1.4 2.9 3s-1.1 3-2.9 3c-1.8 0-2.9-1.3-2.9-3zm4.8 0c0-1.2-.7-2.2-1.9-2.2s-1.9 1.1-1.9 2.2c0 1.2.7 2.2 1.9 2.2s1.9-1 1.9-2.2zM446.1 29.4v-.8c-.4.5-1.2 1-2.1 1-1.2 0-1.8-.6-1.8-1.8v-4.1h.9v3.8c0 1 .5 1.3 1.3 1.3.7 0 1.4-.4 1.7-.9v-4.3h.9v5.8h-.9zM448.8 30.9l.5-.7c.5.6 1.1.8 1.9.8 1 0 1.9-.5 1.9-1.7v-.8c-.4.6-1.1 1-1.9 1-1.5 0-2.6-1.1-2.6-3s1.1-3 2.6-3c.8 0 1.5.4 1.9 1v-.9h.9v5.6c0 1.9-1.3 2.5-2.8 2.5-1 0-1.7-.2-2.4-.8zm4.2-3.2v-2.5c-.3-.5-1-.9-1.7-.9-1.2 0-1.9.9-1.9 2.2 0 1.3.7 2.2 1.9 2.2.7 0 1.4-.5 1.7-1zM459.6 29.4v-3.8c0-1-.5-1.3-1.3-1.3-.7 0-1.4.4-1.7.9v4.2h-.9v-8h.9v3c.4-.5 1.2-1 2.1-1 1.2 0 1.8.6 1.8 1.8v4.1h-.9zM462.5 28.2v-3.8h-1v-.8h1v-1.6h.9v1.6h1.2v.8h-1.2v3.6c0 .4.2.7.6.7.3 0 .5-.1.6-.2l.3.7c-.2.2-.6.4-1.1.4-.9-.1-1.3-.6-1.3-1.4zM466.1 29.4v-5h-1v-.8h1v-.4c0-1.2.6-1.9 1.7-1.9.5 0 .9.1 1.2.4l-.4.6c-.2-.2-.4-.3-.7-.3-.6 0-.9.4-.9 1.1v.4h1.2v.8h-1.2v5h-.9zM473.2 29.4v-.8c-.4.5-1.2 1-2.1 1-1.2 0-1.8-.6-1.8-1.8v-4.1h.9v3.8c0 1 .5 1.3 1.3 1.3.7 0 1.4-.4 1.7-.9v-4.3h.9v5.8h-.9zM475.9 29.4v-8h.9v8h-.9zM485.9 29.4v-.9c-.4.6-1.1 1-2 1-1.5 0-2.6-1.2-2.6-3s1.1-3 2.6-3c.8 0 1.5.4 2 1v-3.1h.9v8h-.9zm0-1.6v-2.6c-.3-.5-1-.9-1.7-.9-1.2 0-1.9 1-1.9 2.2 0 1.3.7 2.2 1.9 2.2.6 0 1.3-.4 1.7-.9zM488.2 26.5c0-1.7 1.2-3 2.9-3 1.8 0 2.8 1.4 2.8 3.1v.2h-4.7c.1 1.1.8 2 2.1 2 .7 0 1.3-.3 1.8-.7l.4.6c-.6.6-1.4.9-2.3.9-1.7-.1-3-1.3-3-3.1zm2.9-2.3c-1.2 0-1.8 1-1.9 1.9h3.8c0-.8-.6-1.9-1.9-1.9zM494.8 28.6l.5-.6c.4.4 1.1.8 1.9.8.9 0 1.4-.4 1.4-1 0-1.4-3.6-.5-3.6-2.7 0-.9.8-1.7 2.2-1.7 1 0 1.7.4 2.1.8l-.4.6c-.3-.4-1-.7-1.7-.7-.8 0-1.3.4-1.3.9 0 1.3 3.6.4 3.6 2.7 0 1-.8 1.8-2.3 1.8-1 0-1.8-.3-2.4-.9zM500.7 22.2c0-.3.3-.6.6-.6s.6.3.6.6-.3.6-.6.6-.6-.3-.6-.6zm.2 7.2v-5.8h.9v5.8h-.9zM503.6 30.9l.5-.7c.5.6 1.1.8 1.9.8 1 0 1.9-.5 1.9-1.7v-.8c-.4.6-1.1 1-1.9 1-1.5 0-2.6-1.1-2.6-3s1.1-3 2.6-3c.8 0 1.5.4 1.9 1v-.9h.9v5.6c0 1.9-1.3 2.5-2.8 2.5-1.1 0-1.7-.2-2.4-.8zm4.2-3.2v-2.5c-.3-.5-1-.9-1.7-.9-1.2 0-1.9.9-1.9 2.2 0 1.3.7 2.2 1.9 2.2.7 0 1.4-.5 1.7-1zM514.4 29.4v-3.8c0-1-.5-1.3-1.3-1.3-.7 0-1.4.4-1.7.9v4.2h-.9v-5.8h.9v.8c.4-.5 1.2-1 2.1-1 1.2 0 1.8.6 1.8 1.9v4.1h-.9z"/></g><g fill="#fff"><path d="M243.7 21.2c0-1.7 1.2-3 2.9-3 1.1 0 1.7.4 2.1 1l-.6.6c-.4-.5-.9-.8-1.5-.8-1.2 0-2 .9-2 2.2s.8 2.2 2 2.2c.6 0 1.1-.2 1.5-.8l.6.6c-.4.6-1.1 1-2.1 1-1.8.1-2.9-1.3-2.9-3zM249.9 24.1v-5.8h.9v.9c.5-.6 1.1-1.1 1.9-1.1v.9h-.4c-.6 0-1.3.5-1.6.9v4.1h-.8zM253.6 21.2c0-1.7 1.2-3 2.9-3 1.8 0 2.8 1.4 2.8 3.1v.2h-4.7c.1 1.1.8 2 2.1 2 .7 0 1.3-.3 1.8-.7l.4.6c-.6.6-1.4.9-2.3.9-1.8 0-3-1.3-3-3.1zm2.8-2.3c-1.2 0-1.8 1-1.9 1.9h3.8c0-.8-.6-1.9-1.9-1.9zM264.3 24.1v-.7c-.5.5-1.1.8-1.9.8-1 0-2-.7-2-1.9 0-1.3 1-1.9 2-1.9.8 0 1.5.3 1.9.8v-1c0-.8-.6-1.2-1.5-1.2-.7 0-1.3.3-1.8.8l-.4-.6c.6-.6 1.4-1 2.3-1 1.2 0 2.2.6 2.2 2v4h-.8zm0-1.2v-1.1c-.3-.5-1-.7-1.6-.7-.8 0-1.4.5-1.4 1.3 0 .7.6 1.3 1.4 1.3.6-.1 1.2-.3 1.6-.8zM267.2 22.9v-3.8h-1v-.8h1v-1.6h.9v1.6h1.2v.8h-1.2v3.6c0 .4.2.7.6.7.3 0 .5-.1.6-.2l.3.7c-.2.2-.6.4-1.1.4-.9 0-1.3-.5-1.3-1.4zM270.3 16.9c0-.3.3-.6.6-.6s.6.3.6.6-.3.6-.6.6-.6-.3-.6-.6zm.2 7.2v-5.8h.9v5.8h-.9zM274.7 24.1l-2.4-5.8h1l1.9 4.7 1.9-4.7h1l-2.4 5.8h-1zM278.7 21.2c0-1.7 1.2-3 2.9-3 1.8 0 2.8 1.4 2.8 3.1v.2h-4.7c.1 1.1.8 2 2.1 2 .7 0 1.3-.3 1.8-.7l.4.6c-.6.6-1.4.9-2.3.9-1.7 0-3-1.3-3-3.1zm2.9-2.3c-1.2 0-1.8 1-1.9 1.9h3.8c0-.8-.6-1.9-1.9-1.9zM288.9 24.1v-5.8h.9v.9c.5-.6 1.1-1.1 1.9-1.1v.9h-.4c-.6 0-1.3.5-1.6.9v4.1h-.8zM292.7 16.9c0-.3.3-.6.6-.6s.6.3.6.6-.3.6-.6.6-.6-.3-.6-.6zm.2 7.2v-5.8h.9v5.8h-.9zM295.1 23.3l.5-.6c.4.4 1.1.8 1.9.8.9 0 1.4-.4 1.4-1 0-1.4-3.6-.5-3.6-2.7 0-.9.8-1.7 2.2-1.7 1 0 1.7.4 2.1.8l-.4.6c-.3-.4-1-.7-1.7-.7-.8 0-1.3.4-1.3.9 0 1.3 3.6.4 3.6 2.7 0 1-.8 1.8-2.3 1.8-1 .1-1.8-.2-2.4-.9zM305.1 24.1l-2.1-2.6-1 .9v1.7h-.9v-8h.9v5.3l3-3.1h1.1l-2.6 2.6 2.6 3.2h-1zM306.8 23.3l.5-.6c.4.4 1.1.8 1.9.8.9 0 1.4-.4 1.4-1 0-1.4-3.6-.5-3.6-2.7 0-.9.8-1.7 2.2-1.7 1 0 1.7.4 2.1.8l-.4.6c-.3-.4-1-.7-1.7-.7-.8 0-1.3.4-1.3.9 0 1.3 3.6.4 3.6 2.7 0 1-.8 1.8-2.3 1.8-1 .1-1.8-.2-2.4-.9z"/></g><path fill="none" stroke="#fff" stroke-miterlimit="10" d="M321.6 69.1l-39.7-39.7M436.9 69.1l33.3-33.3M76.1 145.4l-39.8-39.7"/><g fill="#fff"><path d="M18.5 97.2v-3.8c0-1-.5-1.3-1.3-1.3-.7 0-1.4.4-1.7.9v4.2h-.9v-8h.9v3c.4-.5 1.2-1 2.1-1 1.2 0 1.8.6 1.8 1.8v4.1h-.9zM25.1 97.2v-.8c-.4.5-1.2 1-2.1 1-1.2 0-1.8-.6-1.8-1.8v-4.1h.9v3.8c0 1 .5 1.3 1.3 1.3.7 0 1.4-.4 1.7-.9v-4.3h.9v5.8h-.9zM34.8 97.2v-3.9c0-.7-.3-1.2-1.1-1.2-.6 0-1.2.4-1.5.9v4.2h-.9v-3.9c0-.7-.3-1.2-1.1-1.2-.6 0-1.2.4-1.5.9v4.2h-.9v-5.8h.9v.8c.2-.4 1-1 1.9-1 .9 0 1.4.5 1.6 1.1.3-.5 1.1-1.1 1.9-1.1 1.1 0 1.6.6 1.6 1.8v4.2h-.9zM37.1 94.3c0-1.7 1.1-3 2.9-3s2.9 1.4 2.9 3c0 1.7-1.1 3-2.9 3s-2.9-1.3-2.9-3zm4.8 0c0-1.2-.7-2.2-1.9-2.2s-1.9 1.1-1.9 2.2c0 1.2.7 2.2 1.9 2.2s1.9-1 1.9-2.2zM44.3 97.2v-5.8h.9v.9c.5-.6 1.1-1.1 1.9-1.1v.9h-.4c-.6 0-1.3.5-1.6.9v4.1h-.8z"/></g><g fill="#fff"><path d="M406.4 321.4l.5-.6c.4.4 1.1.8 1.9.8.9 0 1.4-.4 1.4-1 0-1.4-3.6-.5-3.6-2.7 0-.9.8-1.7 2.2-1.7 1 0 1.7.4 2.1.8l-.4.6c-.3-.4-1-.7-1.7-.7-.8 0-1.3.4-1.3.9 0 1.3 3.6.4 3.6 2.7 0 1-.8 1.8-2.3 1.8-1 0-1.8-.3-2.4-.9zM412.6 320.9v-3.8h-1v-.8h1v-1.6h.9v1.6h1.2v.8h-1.2v3.6c0 .4.2.7.6.7.3 0 .5-.1.6-.2l.3.7c-.2.2-.6.4-1.1.4-.8 0-1.3-.5-1.3-1.4zM416 322.1v-5.8h.9v.9c.5-.6 1.1-1.1 1.9-1.1v.9h-.4c-.6 0-1.3.5-1.6.9v4.1h-.8zM419.6 319.2c0-1.7 1.1-3 2.9-3 1.8 0 2.9 1.4 2.9 3 0 1.7-1.1 3-2.9 3-1.8.1-2.9-1.3-2.9-3zm4.8 0c0-1.2-.7-2.2-1.9-2.2s-1.9 1.1-1.9 2.2c0 1.2.7 2.2 1.9 2.2s1.9-1 1.9-2.2zM430.7 322.1v-3.8c0-1-.5-1.3-1.3-1.3-.7 0-1.4.4-1.7.9v4.2h-.9v-5.8h.9v.8c.4-.5 1.2-1 2.1-1 1.2 0 1.8.6 1.8 1.9v4.1h-.9zM433.4 323.6l.5-.7c.5.6 1.1.8 1.9.8 1 0 1.9-.5 1.9-1.7v-.8c-.4.6-1.1 1-1.9 1-1.5 0-2.6-1.1-2.6-3s1.1-3 2.6-3c.8 0 1.5.4 1.9 1v-.9h.9v5.6c0 1.9-1.3 2.5-2.8 2.5-1 .1-1.7-.1-2.4-.8zm4.2-3.1v-2.5c-.3-.5-1-.9-1.7-.9-1.2 0-1.9.9-1.9 2.2 0 1.3.7 2.2 1.9 2.2.7-.1 1.4-.5 1.7-1zM443.6 320.9v-3.8h-1v-.8h1v-1.6h.9v1.6h1.2v.8h-1.2v3.6c0 .4.2.7.6.7.3 0 .5-.1.6-.2l.3.7c-.2.2-.6.4-1.1.4-.9 0-1.3-.5-1.3-1.4zM450.8 322.1v-3.8c0-1-.5-1.3-1.3-1.3-.7 0-1.4.4-1.7.9v4.2h-.9v-8h.9v3c.4-.5 1.2-1 2.1-1 1.2 0 1.8.6 1.8 1.8v4.1h-.9zM453.2 319.2c0-1.7 1.2-3 2.9-3 1.8 0 2.8 1.4 2.8 3.1v.2h-4.7c.1 1.1.8 2 2.1 2 .7 0 1.3-.3 1.8-.7l.4.6c-.6.6-1.4.9-2.3.9-1.7 0-3-1.2-3-3.1zm2.9-2.2c-1.2 0-1.8 1-1.9 1.9h3.8c0-.9-.6-1.9-1.9-1.9zM459.8 321.4l.5-.6c.4.4 1.1.8 1.9.8.9 0 1.4-.4 1.4-1 0-1.4-3.6-.5-3.6-2.7 0-.9.8-1.7 2.2-1.7 1 0 1.7.4 2.1.8l-.4.6c-.3-.4-1-.7-1.7-.7-.8 0-1.3.4-1.3.9 0 1.3 3.6.4 3.6 2.7 0 1-.8 1.8-2.3 1.8-1 0-1.8-.3-2.4-.9zM465.7 314.9c0-.3.3-.6.6-.6s.6.3.6.6-.3.6-.6.6-.6-.2-.6-.6zm.2 7.2v-5.8h.9v5.8h-.9zM468.1 321.4l.5-.6c.4.4 1.1.8 1.9.8.9 0 1.4-.4 1.4-1 0-1.4-3.6-.5-3.6-2.7 0-.9.8-1.7 2.2-1.7 1 0 1.7.4 2.1.8l-.4.6c-.3-.4-1-.7-1.7-.7-.8 0-1.3.4-1.3.9 0 1.3 3.6.4 3.6 2.7 0 1-.8 1.8-2.3 1.8-1 0-1.8-.3-2.4-.9z"/></g><path fill="none" stroke="#fff" stroke-miterlimit="10" d="M437.5 308.4l-43.9-43.9"/></g></svg>