<?xml version="1.0" encoding="utf-8"?>
<!-- Generator: Adobe Illustrator 17.1.0, SVG Export Plug-In . SVG Version: 6.00 Build 0)  -->
<!DOCTYPE svg PUBLIC "-//W3C//DTD SVG 1.1//EN" "http://www.w3.org/Graphics/SVG/1.1/DTD/svg11.dtd">
<svg version="1.1" id="Layer_1" xmlns="http://www.w3.org/2000/svg" xmlns:xlink="http://www.w3.org/1999/xlink" x="0px" y="0px"
	 viewBox="0 0 612 792" enable-background="new 0 0 612 792" xml:space="preserve">
<g>
	<path fill="#FFFFFF" d="M110.4,579.8c-1,1.7,1.7,4.5,3.5,3.5C114.7,581.5,112.2,578.8,110.4,579.8z M473.1,434
		c-0.2,0-0.8,0-1.2-0.2c-2.9,4.5-1.9,3.9-5,8.1l-2.7,8.5l-1.4,4.6c0.2-0.8,0.2-1.4,0.4-1.9l-1.2,3.5c-1.4,4.8-1.2,9.9-1,14.9
		c12.2-8.1,24-17.8,32.7-29.8c-1.4,0.2-2.7,0.2-3.9,0.4C486.3,436.3,479.7,432.6,473.1,434L473.1,434z M465.8,443.8
		c-1,3.1-1.9,6-2.7,9.3l0.8-2.7L465.8,443.8L465.8,443.8z M146.1,323c4.1-3.5,8.3-7,10.7-11.8C152.5,314.5,149,318.5,146.1,323z
		 M133.7,348.9c1.9,4.8,4.1,10.7,9.5,12.4c4.3,2.7,9.5,0,12.2-3.7c3.5-4.5,7-9.3,7.9-14.9c1.2-6.2,3.3-12.6,0.6-18.8
		C153,330.9,142.2,338.7,133.7,348.9L133.7,348.9z M501.2,245c-1.2-6.6,1.2-13.2,0.6-19.9c0.2-2.3-0.6-4.6-2.7-5.8
		c-2.3,12-3.3,26.9,6.8,35.8C504.3,251.5,502.4,248.4,501.2,245z M495,458.5c2.9-3.5,5.4-7.2,7.2-11.2
		C497.7,449.1,497.5,454.9,495,458.5z M166.8,603.4c2.9-16.1,8.7-31.6,11.4-47.6c-4.6,9.5-8.9,19.2-12.8,29
		c-4.3,10.3-9.5,19.9-14.5,29.8c2.7,1.7,5.4,3.7,7.9,5.6C162.5,615,164.5,609,166.8,603.4L166.8,603.4z M456.5,209.9
		c-4.1,12.2-8.7,24.2-9.1,37.2c3.1-3.9,6.6-7.4,8.5-12c3.5-8.3,5.2-17.4,9.1-25.8c3.9-7.6,4.1-16.3,7.6-24.2l-6-2.5
		C462.3,191.5,459.2,200.6,456.5,209.9z M445.3,266.1c-3.1,0.6-5.8,3.1-7.7,5.6C440.2,270.9,446.8,270.1,445.3,266.1z M279.5,437.4
		c0.8,1.2,1.7,2.3,2.7,3.5c1.7-4.8,3.7-9.7,5.2-14.7c-10.1,10.8-17.4,23.6-26.5,35.2c-4.1,8.7-8.9,17.2-12.6,26.1
		c4.1-6,7.9-12.2,11-18.6C265.2,457.8,273.1,448.1,279.5,437.4L279.5,437.4z M122.1,545.1c0.8,4.8,2.1,9.7,4.1,14.3
		C126.3,554.4,124.8,549.4,122.1,545.1z M564.5,528.1c2.7-10.1,4.6-20.3,4.5-30.8l-3.5,14.1c-0.8-6,0.4-12.2-0.2-18.4
		c-2.7-12,0.6-24.4,0-36.6c-3.7,7.9-5.4,16.5-5.8,25.2c-4.1-2.9-2.5-8.9-2.3-13.4c1.9-10.3-0.2-21.1,4.5-30.8
		c-11.8,18.4-17,40.3-19.8,61.8c-1.5,7.7-3.5,15.3-6.4,22.5c-3.3,10.8-6.2,22.7-14.3,31.2c1.7-5,4.6-9.5,6.8-14.3
		c4.8-10.8,7.2-22.5,10.1-33.9c6-23.4,4.5-47.6,4.8-71.6c0.6-14.7-1.4-29.2-3.1-43.8c0-24.2-0.6-48.6-0.2-72.8
		c0.2-16.7,3.1-33.3,5-49.8c2.3-11.4,4.3-23,5-34.7c-0.6-10.5-7.7-18.6-12.4-27.5c-6.2-10.8-10.8-23.6-21.3-31.2
		c-4.1-2.9-6.8-10.1-13-7.7c-7.9,3.9-17,8.7-20.1,17.6c-1.2,8.7-5.2,16.7-7,25.2c-4.1,11.2-11,21.3-16.1,32.1
		c-4.1,9.5-12,16.5-19.2,23.6c3.9,0,7.9,1.5,11.6,0c2.5-1.5,4.3-3.9,6.6-6c-2.9,4.3-5,9.7-9.7,12.2c-3.7,2.1-7,5.2-10.8,7.2
		c-3.7,0.6-7.4,0.2-10.8,0c-0.4-7-1.5-13.9-0.4-20.9c-0.4,4.6,1.4,13.9,7.6,12.2c-2.1-2.9-4.3-5.8-5.2-9.3c1.7,1.2,3.5,2.3,5.2,3.7
		l5.2-9.1c2.1-5,1.9-10.7,2.3-16.1c1.4-5.4,3.5-10.7,4.6-16.3c2.5-11.8,3.7-24,8.3-35.4c1.9-5.6,7.9-8.3,11-13.2
		c0.8,2.3,1.7,4.5,2.5,6.6c3.9-3.3,2.3-8.3,2.3-12.6c-4.6,0-9.1-2.1-13.9-1.4c-6,3.3-11.6,7.4-17.4,10.8c-8.7,7-14.5,16.8-20.5,26.1
		c-7.7,11-7.4,25.2-10.1,38c-2.3,10.5,4.6,20.9,0.4,31c-4.8,14.9-9.3,30-14.9,44.7c-4.1,9.5-8.1,19.6-16.7,25.9
		c-14.3,13.7-28.1,28.7-39.3,45.3c-4.3,8.3-10.5,15.9-12.6,25c-2.3,9.7-5.6,19-6.8,28.9c-1,7.7-3.5,15.5-1.9,23.2
		c1.2,7.9,4.6,15.5,8.3,22.7c7.6,14.5,21.9,24,28.3,39.1c-0.2,4.5-1.2,8.9-2.1,13.2c-0.4-3.5,0.2-7-0.4-10.3
		c-4.5-6.6-10.3-11.8-14.9-18.2c-8.1-11-17.4-21.9-21.5-35.2c-3.5-9.5-3.7-19.9-3.3-30c0.8-14.5,6.2-28.3,11.8-41.6
		c4.8-11,10.5-21.9,18-31.6l24-27.1c0.6-3.1,0.8-6.2,2.1-8.9c-2.9,5-7.4,8.9-10.7,13.7c-3.9,4.8-6.6,10.7-11.4,14.7
		c1.9-5.4,6.8-8.9,9.7-13.6l4.8-9.7c5.8-8.3,12.4-16.5,15.9-26.1c0.6-6.4,0-13,1.4-19.4c-8.9,18.2-18.8,35.8-31.2,51.9
		c-2.1,2.9-4.6,5.4-7.4,7.7c9.7-16.3,21.3-31.2,29.8-48c-1,0.8-2.9,2.1-3.9,2.7c5.2-15.1,5.2-31.2,7.4-46.9c0.8,1.2,2.1,3.7,2.7,4.8
		c-0.8,2.3-1.5,4.8-1.5,7.4c0,6-2.5,11.4-2.9,17.2c4.6-3.7,3.9-10.5,6.2-15.5l3.5,0.4c0.6-5,0.4-10.3-0.8-15.3
		c8.1-3.9,7.4-14.5,6.2-22.1c-4.3-18.2-12.4-35.6-22.8-51.1c8.1,15.3,13.6,31.8,18.8,48.2c1.4,7.6,3.7,17.4-2.1,23.6
		c0.6-8.1,1.4-16.5-1-24.6c-1,6.6-1,13.2-1.7,19.8c-1.4-2.1-2.3-4.5-2.5-7c0.4-2.5,1.9-4.8,1.5-7.4c-1.2-8.1-4.8-15.5-8.3-22.7
		c-5-10.8-9.9-21.7-16.3-31.8c-2.5-3.7-5-7.7-8.9-10.1c-5-0.8-9.9-2.3-14.3-4.5c-3.5-3.5-7.2-7-12-8.5c-8.7-2.5-16.1-8.3-25.2-9.3
		c-4.3-0.8-8.7-0.4-12.8-2.3l-20.3-10.3c-7.9-3.3-16.8-1.9-25.2-1.7l-12.8-4.3c-4.6-2.5-8.9-5.8-13.7-8.1c2.3,2.5,5,5,7.4,7.7
		c-7.7-0.4-16.1,1-22.1,6c-7,1-14.3,1.7-21.3,1c-11.2-1.2-21.9,3.1-32.3,6.4c-7.2,2.3-13.4,7-19.6,11.2c-12.8,5.6-27.3,3.1-40.9,5.6
		c16.1,7.9,33.9,10.5,50.5,16.8c7.2,2.7,14.3,5.6,22.1,6.4c3.3-0.8,6.4-1.9,9.9-1.9c9.5,0,19.4-1,28.5,2.1c2.5,1.7,3.9,4.6,6,7
		c-3.7-1-7.2-3.1-11-3.9c-4.1,0-7.9,1.4-11.8,1.9c2.1,1,4.3,1.9,6.2,3.1c-7,0.2-13.7,1.5-20.5,1.7l2.5,3.1c-5.2,1.9-11,1.7-16.5,1.2
		c-10.5-5.6-18.2-15.3-29.2-19.9l2.9-2.3c-6-1.2-12,0.4-18,1.4c-4.8,1.7-8.5,5.4-13,7.9c-13.4,7-23.2,19.4-29.8,32.5
		c-0.8,7.7-5.8,14.3-7.7,21.7c-5.2,18.4-3.9,38.9,5,56.2c-2.1-10.3-5.2-20.3-5.4-30.8c-0.4-7.6,3.5-14.1,5.8-21.1
		c1.2,10.3-1.5,21.5,3.3,31.2c1.5,3.1,1.2,6.8,1.7,10.1c4.1,7,11.2,13.4,10.3,22.3c0.8,12.4-5.4,24.6-15.5,32
		c7.9,0,12.8-6.8,16.1-13.2c4.5,1.7,1.4,5.6,0.4,8.7c1.4,0.6,2.9,1.5,4.1,2.3c0.8-2.3,1.5-4.6,2.5-7l1.2,6.6
		c-4.5,4.5-8.9,8.9-13.9,12.6c5.2-2.7,10.3-6,14.5-10.1c1.7,8.1,3.1,16.3,3.5,24.4c1.5,13.6,3.1,27.3,3.7,40.9
		c-2.3,27.3,0.2,54.8-2.7,81.9l-7,40.9c-1.7,5.6-2.1,11.6-3.1,17.4c0.8,17.8,9.5,33.9,19.2,48.4c7.2,11,14.9,21.9,24.8,30.6
		c6.4,2.3,11.8-2.9,17-5.8c6.2-3.7,8.5-11,12.8-16.5c16.3-20.7,16.3-49.4,31-70.9c3.9-3.5,6.4-8.1,8.1-13c-3.7-0.2-7.4-0.4-10.7,1.5
		c-4.1,2.7-6.8,7-9.9,10.8c2.1-3.5,3.9-7.6,7.2-10.3l10.5-7c3.9-3.1,9.1-1.5,13.6-1.7c0.2,7.6,4.1,15.3,0.8,22.7
		c-0.2-5-0.8-10.3-4.5-13.9c-1,0-2.7,0.2-3.5,0.2c1.5,2.3,3.1,4.5,4.8,6.4c-3.7,3.9-1.5,9.3-2.1,14.1c-0.8,15.1-2.9,30.4-7.9,44.9
		c-1.7,4.1,0.4,8.9-1.7,13c-3.7,8.5-9.3,17-17.6,21.7c2.3-5.6,8.1-9.1,9.7-15.1l5.6-18.2l-10.5,21.9c-2.1,3.3-3.9,7-5.4,10.5
		c-1.9,1.7-4.3,3.1-6.2,4.6c3.5-0.6,7.4,0.4,10.7-1.5c3.9-2.3,7.9-4.6,11.6-7.4c12.6-12,19-28.7,26.1-44.2c-0.4,4.5-2.3,8.7-3.3,13
		c4.6-6.2,7.2-13.9,9.3-21.3c2.3-7.6,3.5-15.7,1.5-23.4c-2.9-10.1-1.2-21.1,2.7-30.6c6.4-18,12.4-36.4,23.2-52.3
		c1.9-8.5,8.1-16.1,14.9-21.5c-1.4,2.3-3.1,4.5-4.3,7c8.7-6.8,15.9-15.1,24.2-22.3c5.8-5,7.4-12.8,11.6-19
		c-1.2,8.9-7.4,15.9-11.8,23.6c7.4-5.6,11.8-14.1,13.6-23c2.7-10.7,2.1-21.5,3.3-32.3c0.8-15.3-3.3-30.2-8.1-44.5
		c-4.6-14.9-10.1-29.6-18.6-42.8c-7.9-11-20.3-17.4-29.8-27.1c-4.3-5.8-12.2-7.2-17.6-11.4c7,0.6,13.2,4.3,19.4,7
		c9.3,3.5,15.3,11.8,23.4,17c7.4,8.3,15.1,16.8,19.4,27.3c6,13.4,11.6,27.1,15.1,41.4c3.7,14.7,7.4,30.4,3.1,45.5
		c-0.8,14.1-7.7,26.9-9.1,40.9c-1,5-2.7,9.9-5.8,13.7c-8.3,11.4-15.3,23.8-22.3,36c-3.1,5.6-5.2,11.6-7.6,17.4l-1.7-4.3l-0.2,9.9
		c1-4.1,3.7-7.2,6-10.5c3.9-7.6,7-16.1,13-22.1c3.5-9.1,8.7-17.4,14.5-25.2c-0.8,3.5-1.2,7.4-3.5,10.3c-5.4,7.2-8.9,15.3-13.6,22.8
		c-4.5,7.4-7.2,15.5-12.6,22.1c-3.5,7.7-7.9,15.5-8.3,24.2c-0.4,4.1-2.9,7.7-2.7,12c0,5.4-1.4,10.8,0.6,16.1
		c2.1,9.5,7.9,17.4,13.4,25.4c3.1-2.1-1-5.2-1.5-7.7c2.7,1.7,4.3,4.6,5.8,7.4l-2.5,2.1c9.9,9.5,17.8,23,32.3,25.4
		c-3.1-3.5-6.2-7.2-10.3-9.5c-5.6-3.3-9.5-8.5-12.8-13.9c8.7,8.1,16.8,17.4,28.1,22.1c5,3.7,8.3,9.3,13.2,13
		c8.3,7.7,19.4,11.4,30.2,14.5c8.1,6.6,16.5,15.3,27.7,14.9c-13-6.2-25-15.1-33.5-26.9c7.9,6,14.7,13.2,23.4,18
		c7.9,4.1,13.6,11.2,21.7,14.7c4.3,2.9,9.7,0.8,14.5,1.5c-7.6-4.8-14.9-10.7-20.5-17.8c11.6,4.1,21.1,12.2,32.1,17.4
		c8.1,2.9,16.8,0,25.2,0.6c2.1,0,3.7,1.5,5.4,2.5l-3.3-4.6l12.4,3.5c5.6-0.2,11-0.2,16.7-0.8c-7-3.3-15.3-3.7-21.5-8.7
		c6.6,0.4,12.8,3.5,19.4,3.5c6.6,0.2,13.2,1,19.8-0.2c7.2-1.9,14.7-5.2,18.4-12.2c-7.9,3.3-16.1,6.8-24.6,8.3
		c-1.9,0.4-3.9-0.6-5.8-1c8.3-3.7,17.8-4.1,25.6-8.7c1.5-1.9,1.9-4.6,3.7-6.6c10.7-2.9,21.7-4.1,32.7-4.3l-0.6-3.7
		c-8.3-2.1-16.8-3.9-25.4-5.8c-12-2.9-24.6-2.7-36.6-6c-5-1.2-9.5-4.1-14.7-4.5c-6.4,0.2-12.6,1.9-19,0.8c0.6-0.6,1.7-1.9,2.1-2.5
		c9.1-3.3,19-4.5,27.9-8.7c6.4-4.1,13.9-0.6,20.9-1.5c13.2-1.2,23.6,9.5,36.4,10.8c6.4-1.2,12.6-3.3,18-6.6
		c7.9-7,13.7-16.1,20.1-24.6c-3.1,11.2-12.6,19-19.2,28.1c12.6-6.8,23.8-19.8,23-34.7c-0.2-3.3,1.5-6.2,2.9-9.1
		c4.5-8.5,6.4-18,7.2-27.3c-2.3,5.4-4.3,10.8-7,15.9C565.3,538.7,562.6,533.3,564.5,528.1L564.5,528.1z M361.8,332.3
		c5.6-8.5,9.5-18,13.6-27.3c0,4.5,0.2,8.9-1,13.2c-2.9,5.6-7,10.8-10.7,16.1c-4.5,6-9.1,12.2-15.5,16.1
		C351.7,343.7,357.5,338.5,361.8,332.3z M354.2,324.9c4.8-4.5,5.4-11.6,7.2-17.6c0,4.1,1.7,8.5-1,12c-4.3,5.8-8.1,12-13,17.4
		C348.6,332.3,350.8,328,354.2,324.9L354.2,324.9z M122.3,161.9c4.1-3.1,8.5-6,13.2-7.9C132.5,158.6,128.1,162.7,122.3,161.9z
		 M132.5,160.5c-0.8-1.9,2.1-2.9,3.3-3.5C140.5,156.1,134.8,162.3,132.5,160.5z M137.7,159.6c4.6-3.3,9.9-6,15.5-7
		c3.5-1,6.2,2.3,9.1,3.7C154.4,159,146.1,160.7,137.7,159.6z M57.4,276.7c-2.1,0.4-2.1-3.3-0.8-4.3
		C58.7,272.3,58.7,275.9,57.4,276.7z M63,274c1.9,6.4,1,13.4,3.1,19.8c0.8,2.5,1.2,5,1.4,7.6C60.5,294.1,58.5,283.1,63,274L63,274z
		 M73.1,331.1c-2.3-1-1.4-5.8-0.4-7.7C74.6,324.5,73.8,329,73.1,331.1z M185.6,607.8c-3.7,6-7.6,12.2-13.6,16.1
		c3.3-5,7.7-9.3,10.7-14.7c4.1-6.6,6.2-14.1,10.7-20.3C192.2,595.8,188.7,601.8,185.6,607.8L185.6,607.8z M182.5,253.9
		c2.1-10.8,5.4-22.5,13.7-30c-1.5,8.5-6,16.5-6.6,25.2c0,6.6-4.1,12-5.2,18.2l-2.9-3.7c-2.1-0.2-3.5,1.9-5.4,2.7
		C178.4,262.2,182.1,258.7,182.5,253.9z M119.9,344.1c13-22.5,32.1-40.5,50.7-58.5c4.6-4.5,7.7-10.1,9.9-16.1
		c0.6,1.2,1.5,3.5,1.9,4.6c3.3-6.2,5.6-12.6,7.6-19.4c2.3,5-1.2,10.5-2.9,15.3c-7.9,9.1-15.9,18.2-23.6,27.5
		c-11.2,7.6-19.8,18.2-28.3,28.5c-6.8,9.3-12.2,19.4-17.2,29.8C118,351.8,117.6,347.6,119.9,344.1L119.9,344.1z M106,513
		c-1.4,1.7-2.9,3.5-4.5,5c0.4,1.5,0.8,3.1,1,4.6l-4.1-3.3C100.8,517,103.1,514.5,106,513L106,513z M96.3,531
		c-2.7,9.5-7.7,18.4-7.7,28.5C87.6,549.6,87,537,96.3,531z M128.3,606.1c-11,0-21.5-6.8-27.7-15.9c5,3.5,9.5,8.1,15.3,10.5
		c-2.7-3.5-6.4-5.8-9.7-8.7c-6.6-6.4-11.8-14.3-14.7-23.2c2.5,4.3,4.8,8.5,7.6,12.8c1-0.2,1.7-0.4,2.7-0.8c2.7,6.2,7.6,11.4,14.3,13
		c-4.1-5.2-9.5-9.9-11.4-16.5l2.9-1c-2.7-3.7-4.5-7.9-7.6-11.4c0.8,5,3.5,9.5,5,14.3c-6.6-4.3-7.4-12.8-8.5-19.9
		c-2.7-5.6-1.9-12.2-0.4-18.2c1.2-5,5.8-7.9,8.9-12c6.2,4.5,13,7.9,18.6,13.2c6.2,8.9,5.2,20.3,4.8,30.6c0,2.3-1,4.5-1.7,6.6
		c-2.5-0.2-5.2-0.2-7.7,0c1.9-2.5,4.1-4.8,7.2-6c0.4-5-0.8-9.9-2.3-14.5c-0.8,1.7-1.5,3.7-2.1,5.4c-1.4-1.2-2.9-2.3-4.3-3.3
		c0.2,6.4,0.2,12.6,0,19c3.1,6.2,4.8,14.3,12.4,16.7c-5.2,0.4-10.5-1-15.5-1.5c4.5,4.1,9.1,8.7,15.7,7.6
		C129,603.8,128.5,605.3,128.3,606.1L128.3,606.1z M124.8,529.6c-4.1-3.7-9.7-5-13.6-8.9c6.4,0.4,12.4,4.1,16.7,8.7
		c2.5,4.5,4.6,9.3,6.6,13.9C130.8,539.3,128.3,534.1,124.8,529.6z M147,376.1c6.2-0.6,11.2-3.9,16.3-7.4
		C160.6,374.1,152.9,380.7,147,376.1z M169.1,307.5c-5.8,6.6-13.9,10.5-19.9,16.8c7.6-3.7,14.3-8.9,22.1-12.4c3.7-1.2,5-5,7.7-7.6
		l-1.2,7.6c-3.7,7.4-3.1,15.9-5.2,23.8c-1.9,7.9-3.9,16.3-8.1,23.4c-2.7,5.2-8.7,7-12.6,10.8c4.5-1,7.7-4.3,11.6-6.4
		c3.7-6,8.7-11.6,14.3-16.1c-3.7,7.9-7.6,16.5-14.3,22.5v-6.4c-1,4.3-5.2,6.2-8.7,7.7c-3.5,1.5-7-0.8-10.3-1.9
		c0.2,1.2,0.4,3.9,0.4,5c-1.5,1.4-3.1,2.5-4.8,3.9l1.7-4.8c-2.1-2.9-3.5-6.6-7-8.3c-4.6-2.5-7.7-6.8-11.4-10.5
		c1,2.7,2.5,5.2,3.9,7.7c1.2,10.8-0.6,21.7-3.9,32c-1.2-11.8-0.6-23.8-3.3-35.4c2.1-5.4,4.3-10.7,6-16.3c3.7-6,7.7-11.6,11.8-17.2
		c6-8.5,14.5-14.9,21.1-22.7c7-5.2,13.6-10.8,21.1-15.3l-14.5,14.7l-7.4,11.4C161.8,311.6,165.2,309.1,169.1,307.5L169.1,307.5z
		 M189.1,395.6c3.7-6.2,7.7-12.2,9.9-19.2c-7,6-11.6,14.1-18.8,19.8c5.8-8.9,13-17,17.4-26.7c1.5-3.7,5.4-6.4,5-10.5
		c0-4.5,1.5-8.5,1.4-13l-1.5-12.6c2.3,1.4,3.9,3.3,4.3,6c0.6,6.8,1.4,13.7-1.2,20.3C202.4,372.6,198.6,385.9,189.1,395.6
		L189.1,395.6z M198.9,395.4c-1,1.5-2.5,2.7-3.9,3.9c2.9-7.6,8.3-14.1,11-21.9c3.1-7.4,3.7-15.3,5.2-23
		C212.9,369.1,206.7,383.2,198.9,395.4L198.9,395.4z M238.6,460.9c-6.8,12.2-14.5,24-20.5,36.6c-0.4-1-0.8-1.9-1.2-2.7
		C223.9,483.3,228.6,470,238.6,460.9L238.6,460.9z M218.3,150.1c-8.3,1.5-15.3-4.5-23-6.6c8.3-2.3,16.7,0.4,24.4,3.3
		C219.3,147.7,218.7,149.3,218.3,150.1z M240.8,146.6c6.8,0.2,13.9,1.4,19.9,5C253.7,152.4,247.4,148.7,240.8,146.6z M533.7,261
		c-0.4,3.3-2.7,5.4-5.4,7c1.2-2.9,2.7-5.6,3.7-8.5c0.8-4.6-0.2-9.3,0.2-13.9c1.4-3.3,2.7-6.4,3.9-9.7
		C539.8,244,535.7,252.9,533.7,261z M496.2,217.5c2.7-1,5.2-2.1,7.7-3.7c-0.6,12.6,3.9,24.4,5,36.8c0.8,4.5,4.1,8.1,7.7,10.5
		c-3.5-6.6-8.7-13-7.9-20.9c-2.1-8.1-1.9-16.5-1.4-24.8l-7.7-15.7c8.5,1.7,14.3,8.3,18.6,15.5l-0.2-6c2.9,3.5,6.2,7.2,7.7,11.6
		c2.1,4.8,2.3,10.1,4.1,15.1c1.7-5.2,1-10.7-2.3-15.1c2.1,1.4,4.3,2.7,6.6,4.1c-0.4,4.8-3.7,8.7-4.5,13.6c0,5.6,0.8,11.6-1.5,16.8
		c-1.4,4.8-5.8,7.6-8.7,11.4c-7-3.3-13-8.3-18.8-13.2C493.3,242.6,495.4,229.3,496.2,217.5L496.2,217.5z M499.1,266.1
		c4.1,3.7,9.7,5.4,13.9,8.9c-4.8,0.4-8.9-2.3-13-4.3c4.3,4.1,8.1,8.7,10.8,13.9c-6.4-6.2-12.8-12.6-17-20.3
		c-1.2-4.1-2.9-7.9-4.5-11.8C493.3,256.6,495.6,261.8,499.1,266.1L499.1,266.1z M437.7,300.3c4.3-1.2,7.9-4.1,12-5.8
		c-2.3,3.7-4.6,8.7-9.7,8.7c-6.4-0.2-13.7,1.5-19-2.7C426.5,300.3,432.1,301.1,437.7,300.3z M415.6,431.4c-1.4,4.6-5.2,8.1-6.2,13
		c-3.1,8.5,1,17.2,2.1,25.8c-4.1-5.6-5.4-12.6-5.8-19.2c0.8-10.7,7-19.9,12.2-28.9c1.9-2.5,2.7-6.4,6.2-7.2
		C421,420.2,417.6,425.4,415.6,431.4L415.6,431.4z M420.9,414.6c3.1-6.8,7.9-13,14.1-17C430.5,403.4,425.9,409.4,420.9,414.6z
		 M425.1,309.8c3.7-4.6,10.8-4.6,16.1-2.5C436.5,310.4,430.3,308.7,425.1,309.8z M515.2,332.9c1.9,9.7,0.4,19.4,0.8,29
		c-1.4,7.2-1.9,14.5-3.9,21.5c-1.9,8.1-5,15.9-7.4,23.8c-1.4,3.5,0.8,7,0.2,10.5c-0.6,8.3-0.4,16.8,1.9,25c2.3-2.5,4.5-5,7.2-7.2
		c-2.5,10.1-10.7,17.2-15.9,25.8c-2.9,5-8.1,8.3-11.6,13c-6.6,7.9-15.1,14.1-22.3,21.5c-4.3,7.2-10.5,13-17.6,17.2
		c3.5-4.3,7.7-7.9,10.7-12.6c3.9-6,10.7-9.5,14.7-15.5c-4.8,3.1-8.7,7-13.2,10.5l0.8-4.8c-4.6,3.9-9.9,6.8-15.7,8.3
		c12-9.3,24.4-18.2,33.9-30.4c-9.5,7.9-18.4,17.4-30,22.3l12.6-11.6c-3.1,1-6.4,2.1-9.3,3.7c-2.1,2.7-3.7,6-6.6,8.1
		c3.5-8.3,4.1-17.2,6.8-25.8c1.2-3.7,1.4-7.4,1.7-11.2c0.4-4.8,3.9-8.5,5.8-12.6c0.2-2.3-1-5,1-6.8c3.7-3.7,8.5-5.8,12.6-9.1
		c-11.2,2.3-16.5,13.2-20.9,22.5c-2.1,3.7-1.5,9.1-6,11c1.4-5,3.3-10.1,4.8-15.1c-1.9,2.1-3.7,4.3-5.8,6.4
		c1.2-8.1,6.8-14.5,11.8-20.5c4.8-5.6,10.7-12.4,18.8-12.2l1,2.9c-5.8-1-11.6,2.3-14.5,7.4c3.3-1.4,6.4-3.5,10.1-4.3
		c2.7-0.2,5,1.7,7.6,2.5c-1-3.9,1.5-6.6,4.3-8.9l-1.4,5.8c5.4,4.6,10.8,9.1,15.1,14.9c0.4-6.4,1.5-13-0.2-19.2
		c3.7-18.2,11.6-35.2,17.2-52.9c-0.2-10.1,2.5-20.3,0.2-30.2c-1.9,5.2-1.4,11-3.1,16.3c-0.2-7.6,1.9-15.1,1.9-22.7
		c1.5-9.7,1.2-19.4,3.1-29C517.3,311.2,513.6,322,515.2,332.9L515.2,332.9z M449.5,504.6c2.1-3.7,4.3-7.9,8.3-9.7
		C456.1,499,453.2,502.5,449.5,504.6z M522.7,277.7l-1.5-4.3c1.4,1,2.9,2.1,4.3,3.3c-2.3,2.3-4.6,4.6-7.6,6.2
		C519.4,280.8,521,279.2,522.7,277.7L522.7,277.7z"/>
</g>
<g>
	<path fill="#FFFFFF" d="M112.6,15.9v85.8c0,3.3-1.5,4.1-4.1,4.1H94.4c-2.5,0-4.1-0.8-4.1-4.1V69.1h-32v32.3c0,3.3-1.4,4.1-4.1,4.1
		H40.2c-2.5,0-4.1-0.8-4.1-4.1V15.9c0-3.3,1.5-4.1,4.1-4.1h14.1c2.7,0,4.1,0.8,4.1,4.1v32.3h32V15.9c0-3.3,1.5-4.1,4.1-4.1h14.1
		C111,11.6,112.6,12.6,112.6,15.9z M233.4,75.5c0,22.7-21.5,32.3-38.5,32.3s-38.1-9.7-38.1-32.3V41.8c0-22.7,21.1-32.3,38.1-32.3
		s38.5,9.7,38.5,32.3L233.4,75.5L233.4,75.5z M210.9,43.8c0-9.1-6.6-14.5-16.1-14.5c-9.3,0-15.9,5.2-15.9,14.5v29.6
		c0,9.1,6.6,14.5,15.9,14.5c9.5,0,16.1-5.2,16.1-14.5C210.9,73.4,210.9,43.8,210.9,43.8z M352.3,105.7h-16.8c-3.5,0-5.2-1.4-7.2-4.3
		l-15.5-23c-1.4-1.7-1.5-3.3-1.5-7.4V59.6c0-2.5,0.8-4.1,4.1-4.1h2.9c7,0,13.6-4.8,13.6-11.6c0-7.4-5.8-12.2-13.2-12.2h-19v69.7
		c0,3.3-1.5,4.1-4.1,4.1h-14.1c-2.5,0-4.1-0.8-4.1-4.1V15.9c0-2.5,0.8-4.1,4.1-4.1h36c15.5,0,22.5,3.1,28.5,9.1
		c5.2,5.2,8.3,13.4,8.3,22.5c0,14.9-11,25.4-19.9,28.5l20.1,29.2C355.8,103,355,105.7,352.3,105.7L352.3,105.7z M468.1,77.8
		c0,20.3-16.1,30-38,30c-17.8,0-38.5-10.3-38.5-30.2c0-3.3,0.8-4.1,4.1-4.1h13.9c3.3,0,4.8,0.4,5.2,4.1c0.2,1.9,0.8,3.7,2.7,5.8
		c2.9,3.5,8.7,4.6,13.9,4.6c7.7,0,13.9-1.7,13.9-9.7s-12.8-8.1-24.8-12C406.1,61.8,393,56.2,393,38c0-18.6,16.8-27.7,34.7-28.5
		c18.2,0,38,8.3,38,27.1c0,3.5-0.8,4.1-4.1,4.1h-13.9c-2.7,0-3.1-1.9-3.9-3.9c-0.6-1.4-1.4-2.5-2.9-4.3c-2.7-2.5-7.9-3.9-12.2-3.9
		c-4.6,0-12.6,1.9-12.6,8.3c0,8.7,20.9,11.8,26.7,14.1C453,54.2,468.1,58.3,468.1,77.8L468.1,77.8z M582.7,89.9v11.8
		c0,2.5-0.8,4.1-4.1,4.1h-64.1c-3.3,0-4.1-1.5-4.1-4.1V15.9c0-2.5,0.8-4.1,4.1-4.1h61.6c3.3,0,4.1,1.5,4.1,4.1v11.8
		c0,2.5-0.8,4.1-4.1,4.1H533v15.5h38.3c3.3,0,4.1,1.5,4.1,4.1v11.2c0,2.5-0.8,4.1-4.1,4.1H533v18.8h45.5
		C582,85.6,582.7,87.1,582.7,89.9z"/>
</g>
<g>
	<path fill="#FFFFFF" d="M116.3,694.4L87,776.3c-1.5,3.5-2.5,4.1-5.6,4.1H68.2c-3.1,0-3.9-0.6-5.6-4.1l-29.4-81.9
		c-0.8-1.7-0.2-3.9,2.5-3.9h15.1c3.5,0,4.5,1.2,5.6,4.5L75,751.7L93.4,695c1.2-3.3,2.1-4.5,5.8-4.5h14.5
		C116.3,690.3,116.8,692.7,116.3,694.4z M205.1,751.5c0,21.7-20.5,31-36.8,31s-36.6-9.3-36.6-31v-32.1c0-21.7,20.3-31,36.6-31
		s36.8,9.3,36.8,31V751.5z M183.6,721.1c0-8.7-6.4-13.7-15.3-13.7s-15.1,5-15.1,13.7v28.5c0,8.7,6.4,13.7,15.1,13.7
		c9.1,0,15.3-5,15.3-13.7V721.1z M293.1,765.3v11.2c0,2.5-0.8,3.9-3.9,3.9h-56.9c-3.1,0-3.9-1.5-3.9-3.9v-82.1
		c0-3.1,1.5-3.9,3.9-3.9h13.6c2.5,0,3.9,0.8,3.9,3.9v67h39.5C292.1,761.4,293.1,762.8,293.1,765.3z M384.5,694.4v58.5
		c0,21.5-19.9,29.6-36.2,29.6c-16.3,0-36.2-8.1-36.2-29.6v-58.5c0-3.1,1.5-3.9,3.9-3.9h13.6c2.5,0,3.9,0.8,3.9,3.9V750
		c0,8.7,5.6,13.6,14.7,13.6c9.1,0,14.7-4.8,14.7-13.6v-55.6c0-3.1,1.5-3.9,3.9-3.9h13.6C383.1,690.3,384.5,691.3,384.5,694.4
		L384.5,694.4z M493.9,694.2v82.3c0,3.1-1.5,3.9-3.9,3.9h-13.2c-2.5,0-3.9-0.8-3.9-3.9V730l-13.7,24c-0.8,1.2-1.9,2.9-3.9,2.9h-6.8
		c-2.1,0-3.1-1.7-3.9-2.9l-13.7-24v46.5c0,3.1-1.5,3.9-3.9,3.9h-13.6c-2.5,0-3.9-0.8-3.9-3.9v-82.3c0-2.5,0.8-3.9,3.9-3.9h13.6
		c4.6,0,5.2,3.1,6.4,4.6l18.8,33.7l19-33.7c1-1.5,1.5-4.6,6.2-4.6h13.2C493.1,690.3,493.9,691.9,493.9,694.2z M588.7,765.3v11.2
		c0,2.5-0.8,3.9-3.9,3.9h-61.4c-3.1,0-3.9-1.5-3.9-3.9v-82.1c0-2.5,0.8-3.9,3.9-3.9h59.1c3.1,0,3.9,1.5,3.9,3.9v11.4
		c0,2.5-0.8,3.9-3.9,3.9h-41.2v14.9h36.6c3.1,0,3.9,1.5,3.9,3.9v10.7c0,2.5-0.8,3.9-3.9,3.9h-36.6v18h43.6
		C588,761.4,588.7,762.8,588.7,765.3z"/>
</g>
</svg>
