<svg xmlns="http://www.w3.org/2000/svg" viewBox="0 0 612 255" enable-background="new 0 0 612 255"><g><path fill="none" stroke="#fff" stroke-miterlimit="10" d="M177.3 51.7l-38.9 33.9"/><g fill="#fff"><path d="M160.6 39.8l-.8 2.5h-1.1l2.7-8.1h1.3l2.8 8.1h-1.1l-.9-2.5h-2.9zm2.6-.8l-.8-2.3c-.2-.5-.3-1-.4-1.5l-.4 1.5-.8 2.3h2.4zM171.3 40.8v1.6h-.9l-.1-.9c-.3.5-.9 1.1-1.9 1.1-.9 0-2-.5-2-2.5v-3.4h1.1v3.2c0 1.1.3 1.8 1.3 1.8.7 0 1.2-.5 1.4-1 .1-.2.1-.3.1-.5v-3.6h1.1v4.2zM178 36.5v5c0 1.3-.3 2.1-.8 2.7-.6.5-1.4.7-2.1.7-.7 0-1.5-.2-1.9-.5l.3-.8c.4.2 1 .5 1.7.5 1.1 0 1.9-.6 1.9-2v-.6c-.3.5-.9 1-1.8 1-1.4 0-2.5-1.2-2.5-2.8 0-2 1.3-3.1 2.6-3.1 1 0 1.6.5 1.8 1v-.9h.8zm-1.1 2.3c0-.2 0-.3-.1-.5-.2-.6-.7-1.1-1.5-1.1-1 0-1.7.9-1.7 2.2 0 1.1.6 2.1 1.7 2.1.6 0 1.2-.4 1.5-1.1.1-.2.1-.4.1-.6v-1zM184.6 40.8v1.6h-.9l-.1-.9c-.3.5-.9 1.1-1.9 1.1-.9 0-2-.5-2-2.5v-3.4h1.1v3.2c0 1.1.3 1.8 1.3 1.8.7 0 1.2-.5 1.4-1 .1-.2.1-.3.1-.5v-3.6h1.1v4.2zM186.2 41.3c.3.2.9.4 1.4.4.8 0 1.1-.4 1.1-.9s-.3-.8-1.1-1.1c-1-.4-1.5-.9-1.5-1.6 0-.9.8-1.7 2-1.7.6 0 1.1.2 1.4.4l-.3.8c-.2-.1-.6-.3-1.2-.3s-1 .4-1 .8c0 .5.3.7 1.1 1 1 .4 1.5.9 1.5 1.8 0 1-.8 1.7-2.2 1.7-.6 0-1.2-.2-1.6-.4l.4-.9zM192.4 34.9v1.7h1.5v.8h-1.5v3.1c0 .7.2 1.1.8 1.1.3 0 .5 0 .6-.1v.8c-.2.1-.5.1-.9.1-.5 0-.9-.2-1.1-.4-.3-.3-.4-.8-.4-1.5v-3.2h-.9v-.8h.9v-1.4l1-.2zM201.8 38.5h-3.1v2.9h3.5v.9h-4.5v-8.1h4.4v.9h-3.3v2.6h3.1v.8zM206.7 42.3l-.1-.7c-.3.5-.9.9-1.8.9-1.2 0-1.8-.8-1.8-1.7 0-1.4 1.2-2.2 3.5-2.2v-.1c0-.5-.1-1.3-1.3-1.3-.5 0-1.1.2-1.5.4l-.2-.7c.5-.3 1.2-.5 1.9-.5 1.8 0 2.2 1.2 2.2 2.4v2.2c0 .5 0 1 .1 1.4h-1zm-.1-2.9c-1.2 0-2.5.2-2.5 1.3 0 .7.5 1 1 1 .8 0 1.2-.5 1.4-1l.1-.3v-1zM209.3 38.3v-1.8h.9v1.1c.3-.8.9-1.3 1.6-1.3h.3v1h-.4c-.7 0-1.3.6-1.4 1.4v3.6h-1v-4zM213.3 33.8h1.1v8.5h-1.1v-8.5zM216.5 36.5l1.3 3.4.4 1.2c.1-.3.2-.8.4-1.2l1.2-3.4h1.1l-1.6 4.1c-.8 2-1.3 3-2 3.6-.5.5-1 .6-1.3.7l-.3-.9c.3-.1.6-.3.9-.5.3-.2.6-.6.9-1.2l.1-.3c0-.1 0-.1-.1-.3l-2.1-5.3h1.1z"/></g><path fill="none" stroke="#fff" stroke-miterlimit="10" d="M282.1 143l-47.6 42.6"/><g fill="#fff"><path d="M191.1 194.5h-2.5v-.9h6v.9h-2.5v7.2h-1.1v-7.2zM194.5 201c0-.4.3-.8.7-.8s.7.3.7.8c0 .4-.3.8-.7.8-.4 0-.7-.3-.7-.8zM198.6 199.1l-.8 2.5h-1.1l2.7-8.1h1.3l2.8 8.1h-1.1l-.9-2.5h-2.9zm2.7-.8l-.8-2.3c-.2-.5-.3-1-.4-1.5l-.4 1.5-.8 2.3h2.4zM204.4 201c0-.4.3-.8.7-.8s.7.3.7.8c0 .4-.3.8-.7.8-.5 0-.7-.3-.7-.8zM209.7 193.7c.5-.1 1.2-.2 2-.2 1 0 1.8.2 2.3.7.4.4.7 1 .7 1.7s-.2 1.3-.6 1.7c-.6.6-1.5.9-2.5.9-.3 0-.6 0-.8-.1v3.2h-1v-7.9zm1 3.9c.2.1.5.1.9.1 1.3 0 2-.6 2-1.7s-.8-1.6-1.9-1.6c-.5 0-.8 0-1 .1v3.1zM215.8 197.7v-1.8h.9v1.1c.3-.8.9-1.3 1.6-1.3h.3v1h-.4c-.7 0-1.3.6-1.4 1.4v3.6h-1v-4zM221 194.2c0 .4-.3.6-.7.6-.4 0-.6-.3-.6-.6 0-.4.3-.7.7-.7.3.1.6.4.6.7zm-1.2 7.5v-5.8h1.1v5.8h-1.1zM222.6 201.7v-8.5h1v3.6c.4-.6 1-1.1 2-1.1 1.4 0 2.5 1.2 2.4 3 0 2.1-1.3 3.1-2.6 3.1-.8 0-1.5-.3-1.9-1.1v1h-.9zm1.1-2.4v.4c.2.7.8 1.2 1.6 1.2 1.1 0 1.8-.9 1.8-2.2 0-1.2-.6-2.2-1.7-2.2-.7 0-1.4.5-1.6 1.3l-.1.4v1.1zM229.4 201.7v-8.5h1v3.6c.4-.6 1-1.1 2-1.1 1.4 0 2.5 1.2 2.4 3 0 2.1-1.3 3.1-2.6 3.1-.8 0-1.5-.3-1.9-1.1v1h-.9zm1.1-2.4v.4c.2.7.8 1.2 1.6 1.2 1.1 0 1.8-.9 1.8-2.2 0-1.2-.6-2.2-1.7-2.2-.7 0-1.4.5-1.6 1.3l-.1.4v1.1zM236.9 199c0 1.4.9 2 2 2 .8 0 1.2-.1 1.6-.3l.2.8c-.4.2-1 .4-1.9.4-1.8 0-2.9-1.2-2.9-2.9s1-3.1 2.7-3.1c1.9 0 2.4 1.7 2.4 2.7v.5h-4.1zm3.1-.8c0-.7-.3-1.7-1.5-1.7-1.1 0-1.5 1-1.6 1.7h3.1zM242.3 197.4v-1.6h.9l.1 1c.3-.6 1-1.1 1.9-1.1.8 0 2.1.5 2.1 2.5v3.5h-1.1v-3.3c0-.9-.3-1.7-1.3-1.7-.7 0-1.2.5-1.4 1.1 0 .1-.1.3-.1.5v3.5h-1.1v-4.4zM254.2 198.7c0 2.1-1.5 3.1-2.9 3.1-1.6 0-2.8-1.2-2.8-3 0-1.9 1.3-3.1 2.9-3.1 1.7 0 2.8 1.2 2.8 3zm-4.6.1c0 1.3.7 2.2 1.8 2.2 1 0 1.8-.9 1.8-2.3 0-1-.5-2.2-1.7-2.2-1.4 0-1.9 1.2-1.9 2.3zM255.9 195.9l.8 3c.2.6.3 1.2.4 1.8.1-.6.3-1.2.5-1.8l.9-3h.9l.9 2.9c.2.7.4 1.3.5 1.9.1-.6.3-1.2.4-1.9l.8-2.9h1l-1.9 5.8h-1l-.9-2.8c-.2-.6-.4-1.2-.5-1.9-.1.7-.3 1.3-.5 1.9l-.9 2.8h-1l-1.8-5.8h1.4z"/></g><path fill="none" stroke="#fff" stroke-miterlimit="10" d="M489 95.3l-41.8-30.3"/><g fill="#fff"><path d="M399.4 48.1h-2.4v-.9h6v.9h-2.5v7.2h-1.1v-7.2zM403.7 49.5l1.3 3.5.4 1.2c.1-.3.2-.8.4-1.2l1.2-3.4h1.1l-1.6 4.1c-.8 2-1.3 3-2 3.6-.5.5-1 .6-1.3.7l-.3-.9c.3-.1.6-.3.9-.5.3-.2.6-.6.9-1.2l.1-.3c0-.1 0-.1-.1-.3l-2.1-5.3h1.1zM412.6 47.3v4.7c0 1.8.8 2.6 1.9 2.6 1.2 0 2-.8 2-2.6v-4.8h1.1v4.8c0 2.5-1.3 3.5-3.1 3.5-1.7 0-2.9-.9-2.9-3.5v-4.8h1zM419.3 51.1v-1.6h.9l.1 1c.3-.6 1-1.1 1.9-1.1.8 0 2.1.5 2.1 2.5v3.5h-1.1v-3.4c0-.9-.3-1.7-1.3-1.7-.7 0-1.2.5-1.4 1.1 0 .1-.1.3-.1.5v3.5h-1.1v-4.3zM431 46.8v8.5h-.9v-1c-.3.6-1 1.1-2 1.1-1.4 0-2.5-1.2-2.5-3 0-1.9 1.2-3.1 2.6-3.1.9 0 1.5.4 1.8.9v-3.5h1zm-1.1 5.1v-.4c-.2-.7-.7-1.2-1.5-1.2-1.1 0-1.7 1-1.7 2.2 0 1.2.6 2.1 1.7 2.1.7 0 1.4-.5 1.5-1.3v-1.4zM433.3 52.6c0 1.4.9 2 2 2 .8 0 1.2-.1 1.6-.3l.2.8c-.4.2-1 .4-1.9.4-1.8 0-2.9-1.2-2.9-2.9s1-3.1 2.7-3.1c1.9 0 2.4 1.7 2.4 2.7v.5h-4.1zm3.1-.7c0-.7-.3-1.7-1.5-1.7-1.1 0-1.5 1-1.6 1.7h3.1zM438.8 51.3v-1.8h.9v1.1c.3-.8.9-1.3 1.6-1.3h.3v1h-.4c-.7 0-1.3.6-1.4 1.4v3.6h-1v-4zM443.4 49.5l.8 3c.2.6.3 1.2.4 1.8.1-.6.3-1.2.5-1.8l.9-3h.9l.9 2.9c.2.7.4 1.3.5 1.9.1-.6.3-1.2.4-1.9l.8-2.9h1l-1.9 5.8h-1l-.9-2.8c-.2-.6-.4-1.2-.5-1.9-.1.7-.3 1.3-.5 1.9l-.9 2.8h-1l-1.8-5.8h1.4zM456.9 52.4c0 2.1-1.5 3.1-2.9 3.1-1.6 0-2.8-1.2-2.8-3 0-1.9 1.3-3.1 2.9-3.1 1.7 0 2.8 1.2 2.8 3zm-4.6 0c0 1.3.7 2.2 1.8 2.2 1 0 1.8-.9 1.8-2.3 0-1-.5-2.2-1.7-2.2-1.3.1-1.9 1.2-1.9 2.3zM463.5 52.4c0 2.1-1.5 3.1-2.9 3.1-1.6 0-2.8-1.2-2.8-3 0-1.9 1.3-3.1 2.9-3.1 1.7 0 2.8 1.2 2.8 3zm-4.6 0c0 1.3.7 2.2 1.8 2.2 1 0 1.8-.9 1.8-2.3 0-1-.5-2.2-1.7-2.2-1.3.1-1.9 1.2-1.9 2.3zM469.9 46.8v8.5h-.9v-1c-.3.6-1 1.1-2 1.1-1.4 0-2.5-1.2-2.5-3 0-1.9 1.2-3.1 2.6-3.1.9 0 1.5.4 1.8.9v-3.5h1zm-1.1 5.1v-.4c-.2-.7-.7-1.2-1.5-1.2-1.1 0-1.7 1-1.7 2.2 0 1.2.6 2.1 1.7 2.1.7 0 1.4-.5 1.5-1.3v-1.4z"/></g></g></svg>